<?xml version="1.0" encoding="UTF-8"?>
<svg width="48px" height="87px" viewBox="0 0 48 87" version="1.1" xmlns="http://www.w3.org/2000/svg" xmlns:xlink="http://www.w3.org/1999/xlink">
    <!-- Generator: Sketch 47 (45396) - http://www.bohemiancoding.com/sketch -->
    <title>account-maintenance</title>
    <desc>Created with Sketch.</desc>
    <defs></defs>
    <g id="Page-1" stroke="none" stroke-width="1" fill="none" fill-rule="evenodd">
        <g id="account-maintenance" fill="#3598D4">
            <g id="Account-Maintenance">
                <g id="Group" fill-rule="nonzero">
                    <path d="M41.3,0.2 L7.4,0.2 C3.8,0.2 0.9,3.2 0.9,6.9 L0.9,79.4 C0.9,83.1 3.8,86.1 7.4,86.1 L41.3,86.1 C44.9,86.1 47.8,83.1 47.8,79.4 L47.8,7 C47.8,3.3 44.9,0.2 41.3,0.2 Z M7.4,2.2 L41.3,2.2 C43.8,2.2 45.8,4.3 45.8,6.9 L45.8,11.2 L2.8,11.2 L2.8,7 C2.8,4.4 4.9,2.2 7.4,2.2 Z M45.8,13.3 L45.8,69.7 L2.8,69.7 L2.8,13.3 L45.8,13.3 Z M41.3,84.2 L7.4,84.2 C4.9,84.2 2.9,82.1 2.9,79.5 L2.9,71.7 L45.9,71.7 L45.9,79.5 C45.8,82.1 43.8,84.2 41.3,84.2 Z" id="Shape"></path>
                    <path d="M25.3,82.2 C22.8,82.2 20.7,80.1 20.7,77.6 C20.7,75.1 22.8,73 25.3,73 C27.8,73 29.9,75.1 29.9,77.6 C29.9,80.1 27.8,82.2 25.3,82.2 Z M25.3,75 C23.9,75 22.7,76.2 22.7,77.6 C22.7,79 23.9,80.2 25.3,80.2 C26.7,80.2 27.9,79 27.9,77.6 C27.9,76.2 26.7,75 25.3,75 Z" id="Shape"></path>
                    <path d="M26.5,8.9 L22.2,8.9 C20.9,8.9 19.8,7.9 19.8,6.7 C19.8,5.5 20.9,4.5 22.2,4.5 L26.5,4.5 C27.8,4.5 28.9,5.5 28.9,6.7 C28.9,7.9 27.8,8.9 26.5,8.9 Z M22.2,6.5 C21.9,6.5 21.8,6.7 21.8,6.7 C21.8,6.7 21.9,6.9 22.2,6.9 L26.5,6.9 C26.8,6.9 26.9,6.7 26.9,6.7 C26.9,6.7 26.8,6.5 26.5,6.5 L22.2,6.5 Z" id="Shape"></path>
                    <path d="M13.6,8.9 C12.4,8.9 11.4,7.9 11.4,6.7 C11.4,5.5 12.4,4.5 13.6,4.5 C14.8,4.5 15.8,5.5 15.8,6.7 C15.8,7.9 14.8,8.9 13.6,8.9 Z M13.6,6.5 C13.5,6.5 13.4,6.6 13.4,6.7 C13.4,6.9 13.8,6.9 13.8,6.7 C13.8,6.6 13.7,6.5 13.6,6.5 Z" id="Shape"></path>
                </g>
                <g id="Group" transform="translate(21.000000, 26.000000)" fill-rule="nonzero">
                    <path d="M4.5,4.5 C4.2,4.1 4,3.8 3.8,3.5 C3.7,3.4 3.6,3.1 3.3,3.3 C3.2,3.4 3,3.2 3.1,3.1 C3.5,2.5 2.8,2.3 2.6,1.9 C2.6,1.9 2.6,1.8 2.6,1.7 C3.6,1.5 4.6,1.4 5.7,1.2 C5.3,2.3 4.9,3.3 4.5,4.5 Z" id="Shape"></path>
                    <path d="M15.4,15.9 C16.1,16.8 16.8,17.6 17.6,18.4 C16.5,18.6 15.5,18.9 14.5,19.1 C14.7,18.1 15,17.1 15.4,15.9 Z" id="Shape"></path>
                    <path d="M20,12.7 C20,12.8 19.9,12.9 19.8,12.9 C19.6,12.9 19.6,12.8 19.6,12.6 C19.6,12.5 19.7,12.4 19.8,12.4 C19.9,12.4 20,12.5 20,12.7 Z" id="Shape"></path>
                    <path d="M19.6,13.5 C19.6,13.6 19.5,13.7 19.3,13.7 C19.2,13.7 19.1,13.6 19.1,13.4 C19.1,13.3 19.2,13.1 19.4,13.2 C19.6,13.3 19.6,13.4 19.6,13.5 Z" id="Shape"></path>
                    <path d="M1.1,8.3 C1.2,8.3 1.3,8.4 1.3,8.5 C1.3,8.6 1.2,8.8 1.1,8.7 C1,8.7 0.9,8.6 0.9,8.5 C0.8,8.4 1,8.4 1.1,8.3 Z" id="Shape"></path>
                    <path d="M17.9,1.1 C17.8,1.1 17.7,1 17.7,0.9 C17.7,0.8 17.8,0.7 17.9,0.7 C18,0.7 18.1,0.8 18.1,0.9 C18.1,1 18,1.1 17.9,1.1 Z" id="Shape"></path>
                    <path d="M20.5,8.6 C20.4,8.6 20.3,8.5 20.3,8.4 C20.3,8.3 20.4,8.2 20.5,8.2 C20.6,8.2 20.8,8.3 20.8,8.4 C20.8,8.5 20.7,8.5 20.5,8.6 Z" id="Shape"></path>
                    <path d="M2.7,3.5 C2.9,3.5 2.9,3.6 2.9,3.7 C2.9,3.8 2.8,3.9 2.7,3.9 C2.6,3.9 2.5,3.8 2.5,3.7 C2.5,3.6 2.6,3.6 2.7,3.5 Z" id="Shape"></path>
                    <path d="M19.1,2.3 C19.1,2.4 19,2.5 18.9,2.5 C18.8,2.5 18.7,2.4 18.7,2.3 C18.7,2.2 18.8,2.1 18.9,2.1 C19,2.1 19.1,2.2 19.1,2.3 Z" id="Shape"></path>
                    <path d="M1.5,11.2 C1.4,11.2 1.3,11.1 1.3,11 C1.3,10.9 1.4,10.8 1.5,10.8 C1.6,10.8 1.7,10.9 1.7,11 C1.7,11.1 1.6,11.2 1.5,11.2 Z" id="Shape"></path>
                    <path d="M2.5,4.4 C2.5,4.5 2.4,4.6 2.3,4.6 C2.2,4.6 2.1,4.5 2.1,4.4 C2.1,4.3 2.2,4.2 2.3,4.2 C2.4,4.2 2.4,4.3 2.5,4.4 Z" id="Shape"></path>
                    <path d="M20,5 C19.9,5 19.8,4.9 19.8,4.8 C19.8,4.7 19.9,4.6 20,4.6 C20.1,4.6 20.2,4.7 20.2,4.8 C20.2,4.9 20.1,5 20,5 Z" id="Shape"></path>
                    <path d="M20.4,10.3 C20.3,10.3 20.2,10.2 20.2,10.1 C20.2,10 20.3,9.9 20.4,9.9 C20.5,9.9 20.6,10 20.6,10.1 C20.6,10.2 20.5,10.3 20.4,10.3 Z" id="Shape"></path>
                    <path d="M20.2,5.9 C20.1,5.9 20,5.8 20,5.7 C20,5.6 20.1,5.5 20.2,5.5 C20.3,5.5 20.4,5.6 20.4,5.7 C20.4,5.8 20.4,5.8 20.2,5.9 Z" id="Shape"></path>
                    <path d="M20.6,6.5 C20.6,6.6 20.5,6.7 20.4,6.7 C20.3,6.7 20.2,6.6 20.2,6.5 C20.2,6.4 20.3,6.3 20.4,6.3 C20.5,6.3 20.6,6.4 20.6,6.5 Z" id="Shape"></path>
                    <path d="M1.8,12 C1.7,12 1.6,11.9 1.6,11.8 C1.6,11.7 1.7,11.6 1.8,11.6 C1.9,11.6 2,11.7 2,11.8 C2,11.9 1.9,11.9 1.8,12 Z" id="Shape"></path>
                    <path d="M1.5,10.2 C1.5,10.3 1.5,10.4 1.3,10.4 C1.2,10.4 1.1,10.3 1.1,10.2 C1.1,10.1 1.1,10 1.2,10 C1.4,9.9 1.5,10 1.5,10.2 Z" id="Shape"></path>
                    <path d="M17.5,0.2 C17.5,0.3 17.4,0.4 17.3,0.4 C17.2,0.4 17.1,0.3 17.1,0.2 C17.1,0.1 17.2,0 17.3,0 C17.4,0 17.5,0.1 17.5,0.2 Z" id="Shape"></path>
                    <path d="M2.4,12.5 C2.4,12.7 2.3,12.8 2.2,12.7 C2.1,12.7 2,12.6 2,12.4 C2,12.3 2.1,12.2 2.2,12.2 C2.3,12.3 2.3,12.4 2.4,12.5 Z" id="Shape"></path>
                    <path d="M19.5,3.1 C19.5,3.2 19.4,3.3 19.3,3.3 C19.2,3.3 19.1,3.2 19.1,3.1 C19.1,3 19.1,2.9 19.2,2.8 C19.4,2.9 19.5,3 19.5,3.1 Z" id="Shape"></path>
                    <path d="M2.6,13.4 C2.5,13.4 2.4,13.3 2.4,13.1 C2.4,13 2.5,12.9 2.6,12.9 C2.7,12.9 2.8,13 2.8,13.1 C2.8,13.3 2.7,13.4 2.6,13.4 Z" id="Shape"></path>
                    <path d="M20.5,7.2 C20.6,7.2 20.7,7.3 20.7,7.4 C20.7,7.5 20.6,7.6 20.5,7.6 C20.4,7.6 20.3,7.5 20.3,7.4 C20.3,7.3 20.4,7.3 20.5,7.2 Z" id="Shape"></path>
                    <path d="M1.4,7.7 C1.4,7.8 1.3,7.9 1.2,7.9 C1.1,7.9 1,7.8 1,7.7 C1,7.6 1.1,7.5 1.2,7.5 C1.3,7.5 1.4,7.5 1.4,7.7 Z" id="Shape"></path>
                    <path d="M16.9,16.7 C17,16.7 17.1,16.8 17.1,17 C17.1,17.1 17,17.2 16.9,17.2 C16.8,17.2 16.7,17.1 16.8,17 C16.7,16.8 16.8,16.7 16.9,16.7 Z" id="Shape"></path>
                    <path d="M18,15.4 C18.2,15.4 18.2,15.5 18.2,15.6 C18.2,15.7 18.1,15.8 18,15.8 C17.9,15.8 17.8,15.7 17.8,15.6 C17.8,15.5 17.9,15.5 18,15.4 Z" id="Shape"></path>
                    <path d="M1.5,6.8 C1.5,6.9 1.4,7 1.3,7 C1.2,7 1.1,6.9 1.1,6.8 C1.1,6.7 1.1,6.6 1.3,6.5 C1.4,6.6 1.5,6.7 1.5,6.8 Z" id="Shape"></path>
                    <path d="M17.7,16.3 C17.7,16.4 17.6,16.5 17.5,16.5 C17.4,16.5 17.3,16.4 17.3,16.3 C17.3,16.2 17.4,16.1 17.5,16.1 C17.6,16.1 17.7,16.1 17.7,16.3 Z" id="Shape"></path>
                    <path d="M1.9,5.4 C1.8,5.4 1.7,5.3 1.7,5.2 C1.7,5.1 1.8,5 1.9,5 C2,5 2.1,5.1 2.1,5.2 C2,5.3 2,5.4 1.9,5.4 Z" id="Shape"></path>
                    <path d="M20.5,9.4 C20.4,9.4 20.3,9.3 20.3,9.2 C20.3,9.1 20.4,9 20.5,9 C20.6,9 20.7,9.1 20.7,9.2 C20.7,9.4 20.6,9.4 20.5,9.4 Z" id="Shape"></path>
                    <path d="M2.9,13.8 C2.9,13.7 3,13.6 3.1,13.6 C3.2,13.6 3.3,13.7 3.3,13.8 C3.3,13.9 3.2,14 3.1,14 C3,14 2.9,13.9 2.9,13.8 Z" id="Shape"></path>
                    <path d="M20.4,11 C20.4,11.1 20.3,11.2 20.2,11.2 C20.1,11.2 20,11.1 20,11 C20,10.9 20.1,10.8 20.2,10.8 C20.4,10.8 20.4,10.9 20.4,11 Z" id="Shape"></path>
                    <path d="M1.6,6.2 C1.5,6.2 1.4,6.1 1.4,6 C1.4,5.9 1.5,5.8 1.6,5.8 C1.7,5.8 1.8,5.9 1.8,6 C1.8,6.1 1.7,6.2 1.6,6.2 Z" id="Shape"></path>
                    <path d="M19.7,3.7 C19.8,3.7 19.9,3.8 19.9,3.9 C19.9,4 19.8,4.1 19.7,4.1 C19.6,4.1 19.5,4 19.5,3.9 C19.5,3.8 19.6,3.7 19.7,3.7 Z" id="Shape"></path>
                    <path d="M18.4,1.4 C18.5,1.4 18.6,1.4 18.6,1.5 C18.6,1.6 18.6,1.7 18.4,1.7 C18.3,1.7 18.2,1.6 18.2,1.6 C18.2,1.5 18.3,1.4 18.4,1.4 Z" id="Shape"></path>
                    <path d="M18.5,14.8 C18.6,14.8 18.7,14.9 18.7,14.9 C18.7,15 18.7,15.1 18.5,15.1 C18.4,15.1 18.3,15 18.3,14.9 C18.3,14.9 18.4,14.8 18.5,14.8 Z" id="Shape"></path>
                    <path d="M1.4,9.4 C1.4,9.5 1.3,9.6 1.2,9.6 C1.1,9.6 1,9.5 1,9.4 C1,9.3 1,9.2 1.2,9.2 C1.3,9.2 1.4,9.2 1.4,9.4 Z" id="Shape"></path>
                    <path d="M20,12 C19.9,12 19.8,11.9 19.9,11.8 C19.9,11.7 20,11.6 20.1,11.6 C20.2,11.6 20.3,11.7 20.3,11.8 C20.2,12 20.1,12 20,12 Z" id="Shape"></path>
                    <path d="M19,14.4 C18.9,14.4 18.8,14.3 18.8,14.2 C18.8,14.1 18.9,14 19,14 C19.1,14 19.2,14.1 19.2,14.2 C19.2,14.4 19.1,14.4 19,14.4 Z" id="Shape"></path>
                    <path d="M12.2,8 C12.2,7.7 11.8,7.8 11.6,7.7 C10.9,7.6 10.8,7.2 11.2,6.7 C11.3,6.5 11.4,6.4 11.5,6.2 C11.4,5.8 11.1,5.6 10.9,5.4 C10.6,5 10.4,5 10,5.4 C9.8,5.5 9.7,5.8 9.4,5.7 C9,5.5 9.1,5.2 9,5 C9,4.8 9,4.5 8.8,4.4 C8.4,4.3 8,4.3 7.6,4.4 C7.3,4.5 7.3,4.9 7.3,5.1 C7.3,5.3 7.2,5.5 7,5.6 C6.7,5.7 6.6,5.5 6.4,5.4 C6.2,5.3 6.1,5 5.9,5.1 C5.5,5.3 5.2,5.7 4.9,6 C4.7,6.3 5,6.4 5.1,6.6 C5.5,7.2 5.4,7.5 4.7,7.6 C4.2,7.7 4,7.9 4.1,8.4 C4.1,8.9 3.9,9.4 4.7,9.4 C5.4,9.4 5.5,9.9 5.1,10.4 C4.7,11 4.7,11 5.5,11.8 C5.9,12.2 6.1,11.9 6.3,11.7 C6.5,11.6 6.6,11.3 6.9,11.5 C7.2,11.6 7.2,11.8 7.2,12.1 C7.2,12.3 7.2,12.7 7.4,12.8 C7.8,12.9 8.2,12.9 8.6,12.8 C8.9,12.7 8.8,12.3 8.9,12.1 C8.9,11.9 9,11.7 9.3,11.6 C9.6,11.5 9.7,11.7 9.8,11.8 C10,11.9 10.1,12.2 10.4,12.1 C10.8,11.9 11.1,11.5 11.4,11.1 C11.6,10.8 11.3,10.7 11.2,10.5 C10.8,9.9 10.9,9.6 11.6,9.5 C11.8,9.5 12,9.5 12.1,9.3 C12.3,9 12.2,8.5 12.2,8 Z M8.1,10.4 C7.2,10.4 6.5,9.6 6.5,8.6 C6.5,7.6 7.2,6.9 8.1,6.9 C9,6.9 9.7,7.7 9.7,8.6 C9.8,9.6 9,10.4 8.1,10.4 Z" id="Shape"></path>
                    <path d="M15.8,11.5 C15.1,11.4 15,11.3 15.3,10.6 C15.5,10.1 15.2,10 14.9,9.8 C14.5,9.5 14.4,9.9 14.3,10 C13.9,10.5 13.8,10.5 13.4,10 C13.3,9.8 13.2,9.4 12.8,9.7 C12.5,9.9 12.1,10 12.3,10.5 C12.6,11.2 12.5,11.3 11.8,11.4 C11.4,11.5 11.3,11.7 11.3,12 C11.3,12.3 11.3,12.6 11.8,12.6 C12.5,12.7 12.6,12.8 12.3,13.4 C12.1,13.8 12.3,14 12.6,14.2 C13,14.5 13.1,14.2 13.3,14 C13.7,13.5 13.8,13.5 14.2,14 C14.3,14.1 14.4,14.3 14.6,14.4 C15.1,14.4 15.4,13.9 15.2,13.5 C15,12.8 15,12.7 15.7,12.6 C16.1,12.5 16.2,12.4 16.2,12 C16.3,11.8 16.3,11.6 15.8,11.5 Z M13.9,13 C13.5,13 13.1,12.6 13.1,12.2 C13.1,11.7 13.4,11.3 13.9,11.3 C14.3,11.3 14.7,11.7 14.7,12.1 C14.6,12.6 14.3,12.9 13.9,13 Z" id="Shape"></path>
                    <path d="M16.3,5.2 C16.3,4.9 16.4,4.7 16,4.6 C15.2,4.4 15.2,4.4 15.4,3.5 C15.4,3.4 15.4,3.4 15.5,3.3 C15.5,3.1 15.3,2.9 14.9,2.7 C14.7,2.6 14.6,2.7 14.4,2.9 C13.9,3.5 13.9,3.5 13.3,2.9 C13.2,2.8 13.1,2.6 12.9,2.7 C12.4,2.8 12.2,3.2 12.4,3.7 C12.6,4.3 12.5,4.4 12,4.5 C11.6,4.5 11.5,4.7 11.5,5.1 C11.5,5.5 11.6,5.7 12,5.8 C12.6,5.9 12.7,6 12.4,6.6 C12.4,6.7 12.4,6.7 12.3,6.8 C12.1,7.3 12.5,7.3 12.8,7.5 C13.1,7.7 13.2,7.6 13.3,7.4 C13.8,6.7 13.8,6.7 14.4,7.4 C14.5,7.6 14.7,7.8 14.9,7.6 C15.1,7.4 15.5,7.3 15.4,6.8 C15.1,6 15.1,6 15.9,5.8 C16.3,5.7 16.3,5.5 16.3,5.2 Z M13.8,6.1 C13.4,6.1 13,5.7 13,5.2 C13,4.7 13.4,4.4 13.8,4.4 C14.3,4.4 14.6,4.8 14.6,5.3 C14.6,5.7 14.2,6.1 13.8,6.1 Z" id="Shape"></path>
                </g>
                <path d="M29.3,46.7 C28.8,46.3 28.3,45.9 27.8,45.5 C27.3,45.1 26.7,44.8 26.1,44.4 C26.8,43.8 27.3,43 27.7,42.3 C27.1,42.1 26.5,41.9 25.9,41.6 C24.8,43.5 22.7,44.9 20.3,44.9 C16.8,44.9 13.9,42 13.9,38.5 C13.9,35 16.8,32.1 20.3,32.1 C20.5,32.1 20.7,32.1 21,32.1 C21.1,31.5 21.2,30.9 21.4,30.3 C21.3,30.3 21.2,30.3 21.1,30.3 C21,30.3 20.9,30.3 20.8,30.3 C20.7,30.3 20.5,30.3 20.4,30.3 C20.3,30.3 20.1,30.3 20,30.3 C19.9,30.3 19.8,30.3 19.7,30.3 C19.5,30.3 19.4,30.3 19.2,30.4 C19.1,30.4 19,30.4 18.9,30.4 C18.7,30.4 18.5,30.5 18.4,30.5 C18.3,30.5 18.3,30.5 18.2,30.5 C18,30.6 17.8,30.6 17.5,30.7 C17.5,30.7 17.5,30.7 17.5,30.7 C16.4,31.1 15.4,31.7 14.5,32.5 C11.4,35.5 10.9,40.9 14.5,44.4 C13.9,44.7 13.4,45.1 12.8,45.5 C12.3,45.9 11.8,46.3 11.3,46.7 C11.3,46.7 11.3,46.7 11.3,46.8 C8.5,49.5 7.4,53.2 7.5,56 C10.5,56 13.6,56 16.6,56 C19.1,56 21.5,56 24,56 C27,56 30.1,56 33.1,56 C33.2,53.1 32,49.5 29.3,46.7 C29.3,46.7 29.3,46.7 29.3,46.7 Z M31.1,54 C31.1,54 31.1,54 31.1,54 C28.7,54.1 26.4,54.1 24,54.1 C21.5,54.1 19.1,54.1 16.6,54.1 C14.2,54.1 11.9,54.1 9.5,54.1 C9.5,54.1 9.5,54 9.5,54 C10.3,50.2 12.4,47.5 15.9,45.9 C16.2,45.8 16.6,45.9 17,46.1 C17.1,46.2 17.3,46.2 17.4,46.3 C17.4,46.3 17.4,46.3 17.4,46.3 C18,46.5 18.5,46.7 19.1,46.8 C19.1,46.8 19.2,46.8 19.2,46.8 C19.4,46.8 19.6,46.9 19.9,46.9 C20,46.9 20.2,46.9 20.3,46.9 C20.4,46.9 20.6,46.9 20.7,46.9 C20.9,46.9 21.1,46.9 21.4,46.8 C21.4,46.8 21.5,46.8 21.5,46.8 C22.1,46.7 22.6,46.6 23.2,46.3 C23.2,46.3 23.2,46.3 23.2,46.3 C23.3,46.2 23.5,46.2 23.6,46.1 C24,45.9 24.3,45.9 24.7,45.9 C28.2,47.5 30.3,50.2 31.1,54 Z" id="Shape" fill-rule="nonzero"></path>
            </g>
        </g>
    </g>
</svg>