<?xml version="1.0" encoding="utf-8"?>
<!-- Generator: Adobe Illustrator 21.1.0, SVG Export Plug-In . SVG Version: 6.00 Build 0)  -->
<svg version="1.1" id="Слой_1" xmlns="http://www.w3.org/2000/svg" xmlns:xlink="http://www.w3.org/1999/xlink" x="0px" y="0px"
	 width="549.6px" height="768px" viewBox="0 0 549.6 768" enable-background="new 0 0 549.6 768" xml:space="preserve">
<g>
	<g>
		<path d="M403.2,464v244.1c0,23.2-18,42-40.4,42H58.4c-22.4,0-40.4-18.8-40.4-42V59.9c0-23.2,18-42,40.4-42h304.4
			c22.4,0,40.4,18.8,40.4,42V169c0.3,0,0.6,0,0.9,0c8.6,0,9,0,17.1,0V59.9c0-33.1-26-59.9-58.4-59.9H58.4C26,0,0,26.8,0,59.9v648.2
			C0,741.2,26,768,58.4,768h304.4c32.3,0,58.4-26.8,58.4-59.9V464c-5.7,0-11.4,0-17.1,0C403.8,464,403.5,464,403.2,464z"/>
	</g>
	<g>
		<rect x="8.1" y="616" width="404.1" height="17.9"/>
	</g>
	<g>
		<rect x="8.1" y="93.9" width="404.1" height="17.9"/>
	</g>
	<g>
	</g>
	<g>
		<g>
			<path d="M229.8,77.8h-38.4c-12.5,0-21.5-8-21.5-19.7s8.9-19.7,21.5-19.7h38.4c12.5,0,21.5,8,21.5,19.7S242.3,77.8,229.8,77.8z
				 M191.4,56.3c-1.8,0-3.6,0.9-3.6,1.8s1.8,1.8,3.6,1.8h38.4c1.8,0,3.6-0.9,3.6-1.8s-1.8-1.8-3.6-1.8H191.4z"/>
		</g>
	</g>
</g>
<g>
</g>
<g>
	<g>
		<path d="M417.6,185.1c-4.5,0-9.9,0-14.4,0.9c-39.5,4.5-72.7,24.1-95.2,55.4c-22.4,30.4-29.6,68.8-20.7,106.4
			c8.1,37.6,29.6,66.2,63.8,85.8c0-6.3,0-12.5,0-18.8c0-1.8,0-1.8-2.7-3.6c-35.9-27.7-52.1-65.3-46.7-110
			c7.2-55.4,56.6-98.3,114-98.3c1.8,0,3.6,0,6.3,0c60.2,2.7,106.9,51,109.6,110c1.8,48.3-27.8,94.8-72.7,111.8H458
			c-1.8,0.9-4.5,1.8-7.2,1.8c-2.7,0-5.4-0.9-8.1-3.6c-3.6-3.6-3.6-8-3.6-10.7c0-22.4,0-46.5,0-75.1l0,0v-0.9c0-3.6,0.9-4.5,4.5-3.6
			c4.5,0,9,0,13.5,0c1.8,0,3.6,0,4.5-1.8c0.9-1.8-0.9-2.7-1.8-4.5c-12.6-12.5-26-25.9-38.6-38.4c-2.7-2.7-5.4-3.6-8.1-0.9
			c-13.5,13.4-26.9,26.8-40.4,40.2c-0.9,0.9-1.8,2.7-0.9,3.6c0.9,1.8,1.8,1.8,3.6,1.8c4.5,0,8.1,0,12.6,0s6.3,0.9,5.4,5.4
			c0,0.9,0,1.8,0,1.8l0,0l0,0c0,12.5,0,25.9,0,38.4v30.4c0,13.4-1.8,34,2.7,37.6c6.3,5.4,13.5,4.5,20.7,4.5c4.5,0,9,0,13.5-0.9
			c70.9-8,119.4-63.5,119.4-134.1C550.5,245,489.4,185.1,417.6,185.1z"/>
	</g>
</g>
<path d="M191.4,59.9h38.4"/>
<g>
	<path d="M219.1,730.4c-21.5,0-39-17.5-39-39s17.5-39,39-39s39,17.5,39,39S240.6,730.4,219.1,730.4z M219.1,668.4
		c-12.7,0-23,10.3-23,23s10.3,23,23,23s23-10.3,23-23S231.8,668.4,219.1,668.4z"/>
</g>
<g>
	<path d="M113.6,78.2c-11.1,0-20.1-9-20.1-20.1s9-20.1,20.1-20.1s20.1,9,20.1,20.1S124.7,78.2,113.6,78.2z M113.6,54
		c-2.2,0-4.1,1.8-4.1,4.1s1.8,4.1,4.1,4.1s4.1-1.8,4.1-4.1S115.9,54,113.6,54z"/>
</g>
<path d="M155.3,329.7c-14.6,0-29.2,0-43.7,0c0-10.1,0-19.2,0-29.3c14.6,0,29.2,0,43.7,0c0-14.6,0-29.3,0-43.9c10,0,19.1,0,29.2,0
	c0,14.6,0,29.3,0,43.9c14.6,0,29.2,0,43.7,0c0,10.1,0,19.2,0,29.3c-14.6,0-29.2,0-43.7,0c0,14.6,0,29.3,0,43.9c-10,0-19.1,0-29.2,0
	C155.3,359,155.3,344.3,155.3,329.7z"/>
</svg>
