<?xml version="1.0" encoding="utf-8"?>
<!-- Generator: Adobe Illustrator 21.1.0, SVG Export Plug-In . SVG Version: 6.00 Build 0)  -->
<svg version="1.1" id="Слой_1" xmlns="http://www.w3.org/2000/svg" xmlns:xlink="http://www.w3.org/1999/xlink" x="0px" y="0px"
	 width="13.4px" height="12.1px" viewBox="0 0 13.4 12.1" enable-background="new 0 0 13.4 12.1" xml:space="preserve">
<path fill="#38AA35" d="M5.6,9.6c0.1-0.1,0.1-0.2,0.2-0.3c1.9-2.9,3.9-5.9,5.8-8.8c0.3-0.4,0.7-0.6,1.1-0.5c0.6,0.2,0.9,0.8,0.5,1.4
	c-0.3,0.4-0.6,0.9-0.9,1.3c-1.9,2.9-3.8,5.9-5.8,8.8C6.2,12,5.8,12.1,5.3,12C5.2,11.9,5,11.9,5,11.8C3.4,9.9,1.8,8.1,0.2,6.3
	C-0.3,5.8,0,4.9,0.7,4.8c0.4-0.1,0.7,0.1,0.9,0.4c0.6,0.7,1.3,1.4,1.9,2.1C4.2,8,4.8,8.7,5.4,9.4C5.5,9.5,5.5,9.5,5.6,9.6z"/>
</svg>
