<?xml version="1.0" encoding="utf-8"?>
<!-- Generator: Adobe Illustrator 21.1.0, SVG Export Plug-In . SVG Version: 6.00 Build 0)  -->
<svg version="1.1" id="Capa_1" xmlns="http://www.w3.org/2000/svg" xmlns:xlink="http://www.w3.org/1999/xlink" x="0px" y="0px"
	 viewBox="0 0 17.1 31.4" style="enable-background:new 0 0 17.1 31.4;" xml:space="preserve">
<g>
	<path d="M17.1,20.3c0,3.4-2.4,6.3-6.8,7.1v3.9H6.5v-3.6C4,27.6,1.5,26.9,0,26.1l1.2-4.5c1.6,0.9,3.9,1.7,6.4,1.7
		c2.2,0,3.7-0.8,3.7-2.4c0-1.5-1.2-2.4-4.1-3.3c-4.1-1.4-6.9-3.3-6.9-7c0-3.4,2.4-6,6.5-6.8V0h3.8v3.4c2.6,0.1,4.3,0.7,5.6,1.3L15,9
		c-1-0.4-2.8-1.3-5.5-1.3c-2.5,0-3.3,1.1-3.3,2.2c0,1.3,1.3,2.1,4.6,3.3C15.3,14.8,17.1,16.9,17.1,20.3z"/>
</g>
</svg>
