<?xml version="1.0" encoding="utf-8"?>
<!-- Generator: Adobe Illustrator 21.1.0, SVG Export Plug-In . SVG Version: 6.00 Build 0)  -->
<svg version="1.1" id="Слой_1" xmlns="http://www.w3.org/2000/svg" xmlns:xlink="http://www.w3.org/1999/xlink" x="0px" y="0px"
	 width="12.3px" height="12.2px" viewBox="0 0 12.3 12.2" enable-background="new 0 0 12.3 12.2" xml:space="preserve">
<path fill="#E5231F" d="M1.8,0C2,0,2.1,0.1,2.2,0.2c0.7,0.7,1.4,1.4,2,2c0.5,0.5,1,1,1.5,1.5c0.2,0.2,0.5,0.2,0.8,0
	C7.7,2.5,8.8,1.4,10,0.2c0.3-0.3,0.5-0.3,0.8,0C11.2,0.6,11.6,1,12,1.4c0.3,0.3,0.3,0.5,0,0.8c-1.3,1.2-2.4,2.3-3.6,3.5
	C8.1,6,8.1,6.2,8.4,6.5c1.2,1.2,2.3,2.3,3.5,3.5c0.3,0.3,0.3,0.5,0,0.8c-0.4,0.4-0.8,0.8-1.2,1.2c-0.2,0.2-0.5,0.2-0.8,0
	c-1.1-1.2-2.3-2.4-3.4-3.5c-0.3-0.3-0.6-0.3-0.9,0C4.4,9.7,3.3,10.8,2.1,12c-0.2,0.2-0.5,0.2-0.7,0c-0.4-0.4-0.8-0.8-1.2-1.2
	c-0.3-0.3-0.3-0.5,0-0.8c1.1-1.2,2.3-2.4,3.5-3.5C4,6.2,4,6,3.7,5.7C2.5,4.5,1.4,3.4,0.2,2.2c-0.3-0.3-0.3-0.5,0-0.8
	C0.6,1,1,0.6,1.4,0.2C1.5,0.1,1.6,0,1.8,0z"/>
</svg>
