<?xml version="1.0" encoding="utf-8"?>
<!-- Generator: Adobe Illustrator 21.1.0, SVG Export Plug-In . SVG Version: 6.00 Build 0)  -->
<svg version="1.1" id="Слой_1" xmlns="http://www.w3.org/2000/svg" xmlns:xlink="http://www.w3.org/1999/xlink" x="0px" y="0px"
	 viewBox="0 0 46.9 85.9" style="enable-background:new 0 0 46.9 85.9;" xml:space="preserve">
<style type="text/css">
	.st0{enable-background:new    ;}
	.st1{fill:#3598D4;}
</style>
<g class="st0">
	<path class="st1" d="M13.1,38.5h0.5V42h-0.5V38.5z"/>
	<path class="st1" d="M14.3,38.5H15l1,3l1-3h0.7V42h-0.5v-2.1c0-0.1,0-0.2,0-0.4s0-0.4,0-0.5l-1,3h-0.5l-1-3v0.1c0,0.1,0,0.2,0,0.4
		s0,0.3,0,0.4V42h-0.5V38.5z"/>
	<path class="st1" d="M18.6,38.5h2.6v0.4H19V40h2v0.4h-2v1.2h2.2V42h-2.6V38.5z"/>
	<path class="st1" d="M22,38.5h0.5V42H22V38.5z"/>
	<path class="st1" d="M24,38.5h0.4L23.2,42h-0.4L24,38.5z"/>
	<path class="st1" d="M24.7,38.5h2.6v0.4h-2.1V40h2v0.4h-2v1.2h2.2V42h-2.6V38.5z"/>
	<path class="st1" d="M28.3,40.9c0,0.2,0.1,0.4,0.1,0.5c0.2,0.2,0.4,0.4,0.8,0.4c0.2,0,0.3,0,0.5-0.1c0.3-0.1,0.4-0.3,0.4-0.5
		c0-0.2-0.1-0.3-0.2-0.4c-0.1-0.1-0.3-0.2-0.6-0.2l-0.5-0.1c-0.3-0.1-0.5-0.2-0.7-0.2c-0.2-0.1-0.3-0.4-0.3-0.7
		c0-0.3,0.1-0.6,0.3-0.8c0.2-0.2,0.5-0.3,0.9-0.3c0.4,0,0.7,0.1,0.9,0.3s0.4,0.5,0.4,0.9H30c0-0.2-0.1-0.3-0.2-0.4
		c-0.1-0.2-0.4-0.3-0.7-0.3c-0.3,0-0.5,0.1-0.6,0.2s-0.2,0.3-0.2,0.4c0,0.2,0.1,0.3,0.2,0.4c0.1,0.1,0.3,0.1,0.6,0.2l0.5,0.1
		c0.2,0.1,0.4,0.1,0.5,0.2c0.2,0.2,0.3,0.4,0.3,0.7c0,0.4-0.1,0.7-0.4,0.9c-0.3,0.2-0.6,0.3-1,0.3c-0.4,0-0.8-0.1-1-0.3
		c-0.2-0.2-0.4-0.5-0.4-0.9H28.3z"/>
	<path class="st1" d="M31.3,38.5h0.6l1.8,2.9v-2.9h0.5V42h-0.5l-1.8-2.9V42h-0.5V38.5z"/>
</g>
<g>
	<g>
		<path class="st1" d="M40.4,0H6.5C2.9,0,0,3,0,6.7v72.5c0,3.7,2.9,6.7,6.5,6.7h33.9c3.6,0,6.5-3,6.5-6.7V6.8C46.9,3.1,44,0,40.4,0z
			 M6.5,2h33.9c2.5,0,4.5,2.1,4.5,4.7V11h-43V6.8C1.9,4.2,4,2,6.5,2z M44.9,13.1v56.4h-43V13.1H44.9z M40.4,84H6.5
			C4,84,2,81.9,2,79.3v-7.8h43v7.8C44.9,81.9,42.9,84,40.4,84z"/>
	</g>
	<g>
		<path class="st1" d="M24.4,82c-2.5,0-4.6-2.1-4.6-4.6s2.1-4.6,4.6-4.6s4.6,2.1,4.6,4.6S26.9,82,24.4,82z M24.4,74.8
			c-1.4,0-2.6,1.2-2.6,2.6S23,80,24.4,80s2.6-1.2,2.6-2.6S25.8,74.8,24.4,74.8z"/>
	</g>
	<g>
		<path class="st1" d="M25.6,8.7h-4.3c-1.3,0-2.4-1-2.4-2.2s1.1-2.2,2.4-2.2h4.3c1.3,0,2.4,1,2.4,2.2S26.9,8.7,25.6,8.7z M21.3,6.3
			c-0.3,0-0.4,0.2-0.4,0.2s0.1,0.2,0.4,0.2h4.3c0.3,0,0.4-0.2,0.4-0.2s-0.1-0.2-0.4-0.2H21.3z"/>
	</g>
	<g>
		<path class="st1" d="M12.7,8.7c-1.2,0-2.2-1-2.2-2.2s1-2.2,2.2-2.2s2.2,1,2.2,2.2S13.9,8.7,12.7,8.7z M12.7,6.3
			c-0.1,0-0.2,0.1-0.2,0.2c0,0.2,0.4,0.2,0.4,0C12.9,6.4,12.8,6.3,12.7,6.3z"/>
	</g>
</g>
<g>
	<path class="st1" d="M29.4,22c0,0.6,0,1.1,0,1.6c0,0.4,0.1,0.6,0.5,0.6c1.8,0.1,3.5,0.4,5.1,1.2c2.5,1.3,4,3.5,4.6,6.2
		c0.3,1.4,0.4,2.9,0.6,4.3c0,0.3,0,0.5-0.4,0.5s-0.5-0.2-0.5-0.5c-0.1-1.5-0.4-2.8-1.1-4.1c-1.3-2.2-3.4-3.3-5.9-3.8
		c-0.8-0.2-1.6-0.2-2.3-0.3c-0.4-0.1-0.6,0.1-0.6,0.5c0,0.5,0,1,0,1.6c-2.7-1.3-5.4-2.6-8.1-3.9C24,24.6,26.6,23.4,29.4,22z"/>
</g>
<g>
	<path class="st1" d="M25.6,55c-2.7,1.3-5.4,2.6-8.1,3.9c0-0.8,0-1.4,0-2.1c-1.2-0.2-2.3-0.3-3.3-0.5c-3.8-0.9-6.1-3.3-7-7.1
		c-0.3-1.4-0.4-2.8-0.6-4.3c0-0.3-0.1-0.6,0.4-0.6c0.4,0,0.5,0.2,0.5,0.6c0,1.3,0.3,2.6,0.9,3.7c1.2,2.2,3.2,3.4,5.6,4
		c0.9,0.2,1.9,0.3,2.9,0.4c0.4,0.1,0.5-0.1,0.5-0.5c0-0.5,0-1,0-1.6C20.2,52.4,22.8,53.6,25.6,55z"/>
</g>
<g>
	<path class="st1" d="M36.7,31.7H10.4c-0.2,0-0.3,0.1-0.3,0.3v17c0,0.2,0.2,0.3,0.3,0.3h26.4c0.2,0,0.3-0.1,0.3-0.3V32
		C37.1,31.8,36.9,31.7,36.7,31.7z M35.2,47.5c0,0.2-0.2,0.3-0.3,0.3H12.3c-0.2,0-0.3-0.1-0.3-0.3v-14c0-0.2,0.2-0.3,0.3-0.3h22.5
		c0.2,0,0.3,0.1,0.3,0.3L35.2,47.5L35.2,47.5z"/>
</g>
</svg>
