<?xml version="1.0" encoding="UTF-8"?>
<svg width="48px" height="87px" viewBox="0 0 48 87" version="1.1" xmlns="http://www.w3.org/2000/svg" xmlns:xlink="http://www.w3.org/1999/xlink">
    <!-- Generator: Sketch 47 (45396) - http://www.bohemiancoding.com/sketch -->
    <title>feature-change</title>
    <desc>Created with Sketch.</desc>
    <defs></defs>
    <g id="Page-1" stroke="none" stroke-width="1" fill="none" fill-rule="evenodd">
        <g id="feature-change" fill="#3598D4">
            <g id="Feature-Change">
                <text id="MRC" font-family="Helvetica" font-size="12" font-weight="normal">
                    <tspan x="6.036" y="48.8791">MRC</tspan>
                </text>
                <text id="+" font-family="Helvetica" font-size="24" font-weight="normal">
                    <tspan x="28.4546" y="41.2367">+</tspan>
                </text>
                <g id="Group" fill-rule="nonzero">
                    <path d="M41.3,0.2 L7.4,0.2 C3.8,0.2 0.9,3.2 0.9,6.9 L0.9,79.4 C0.9,83.1 3.8,86.1 7.4,86.1 L41.3,86.1 C44.9,86.1 47.8,83.1 47.8,79.4 L47.8,7 C47.8,3.3 44.9,0.2 41.3,0.2 Z M7.4,2.2 L41.3,2.2 C43.8,2.2 45.8,4.3 45.8,6.9 L45.8,11.2 L2.8,11.2 L2.8,7 C2.8,4.4 4.9,2.2 7.4,2.2 Z M45.8,13.3 L45.8,69.7 L2.8,69.7 L2.8,13.3 L45.8,13.3 Z M41.3,84.2 L7.4,84.2 C4.9,84.2 2.9,82.1 2.9,79.5 L2.9,71.7 L45.9,71.7 L45.9,79.5 C45.8,82.1 43.8,84.2 41.3,84.2 Z" id="Shape"></path>
                    <path d="M25.3,82.2 C22.8,82.2 20.7,80.1 20.7,77.6 C20.7,75.1 22.8,73 25.3,73 C27.8,73 29.9,75.1 29.9,77.6 C29.9,80.1 27.8,82.2 25.3,82.2 Z M25.3,75 C23.9,75 22.7,76.2 22.7,77.6 C22.7,79 23.9,80.2 25.3,80.2 C26.7,80.2 27.9,79 27.9,77.6 C27.9,76.2 26.7,75 25.3,75 Z" id="Shape"></path>
                    <path d="M26.5,8.9 L22.2,8.9 C20.9,8.9 19.8,7.9 19.8,6.7 C19.8,5.5 20.9,4.5 22.2,4.5 L26.5,4.5 C27.8,4.5 28.9,5.5 28.9,6.7 C28.9,7.9 27.8,8.9 26.5,8.9 Z M22.2,6.5 C21.9,6.5 21.8,6.7 21.8,6.7 C21.8,6.7 21.9,6.9 22.2,6.9 L26.5,6.9 C26.8,6.9 26.9,6.7 26.9,6.7 C26.9,6.7 26.8,6.5 26.5,6.5 L22.2,6.5 Z" id="Shape"></path>
                    <path d="M13.6,8.9 C12.4,8.9 11.4,7.9 11.4,6.7 C11.4,5.5 12.4,4.5 13.6,4.5 C14.8,4.5 15.8,5.5 15.8,6.7 C15.8,7.9 14.8,8.9 13.6,8.9 Z M13.6,6.5 C13.5,6.5 13.4,6.6 13.4,6.7 C13.4,6.9 13.8,6.9 13.8,6.7 C13.8,6.6 13.7,6.5 13.6,6.5 Z" id="Shape"></path>
                </g>
            </g>
        </g>
    </g>
</svg>