<?xml version="1.0" encoding="UTF-8"?>
<svg width="150px" height="150px" viewBox="0 0 150 150" version="1.1" xmlns="http://www.w3.org/2000/svg" xmlns:xlink="http://www.w3.org/1999/xlink">
    <!-- Generator: Sketch 43.1 (39012) - http://www.bohemiancoding.com/sketch -->
    <title>ICON-BLACK</title>
    <desc>Created with Sketch.</desc>
    <defs></defs>
    <g id="Brand" stroke="none" stroke-width="1" fill="none" fill-rule="evenodd">
        <g id="ICON-BLACK" fill="#000000">
            <g id="icon">
                <path d="M149.868618,74.9407895 C149.868618,116.322368 116.322566,149.875 74.9344079,149.875 C71.5199342,149.875 68.1646711,149.644737 64.8686184,149.197368 L76.4936184,108 C76.6778289,107.361842 76.1975658,106.723684 75.5330921,106.723684 L60.2699342,106.723684 L49.2567763,145.361842 C20.5133553,134.875 0.000197368421,107.302632 0.000197368421,74.9407895 C0.000197368421,40.8552632 22.7501974,12.0855263 53.9015132,2.99342105 L25.5067763,94.2565789 C24.7173026,96.8092105 26.6975658,99.2828947 29.4738816,99.2828947 L85.6251974,99.2828947 C95.3817763,99.2828947 119.17125,101.335526 125.967303,71.7236842 C127.802829,63.7631579 132.079145,46.0197368 102.618618,47.0723684 L78.4409868,47.0197368 L69.67125,76.1184211 L83.9936184,76.1184211 C85.3021711,76.1184211 86.4534868,75.4078947 86.8350658,74.1578947 L90.5067763,61.8223684 L96.6844079,61.8223684 C110.519276,61.5526316 108.651513,69.0394737 107.519934,72.7894737 C106.394934,76.5460526 103.723224,79.8947368 100.571908,81.5921053 C97.3876974,83.3157895 94.9870395,83.9144737 88.8883553,83.9144737 L45.3725658,83.9427632 L71.6094079,0.132894737 C72.9054605,0.0605263158 73.6251974,0 74.9344079,0 C116.322566,0 149.868618,33.5526316 149.868618,74.9407895" id="logo-icon"></path>
            </g>
        </g>
    </g>
</svg>