<?xml version="1.0" encoding="UTF-8"?>
<svg width="48px" height="87px" viewBox="0 0 48 87" version="1.1" xmlns="http://www.w3.org/2000/svg" xmlns:xlink="http://www.w3.org/1999/xlink">
    <!-- Generator: Sketch 47 (45396) - http://www.bohemiancoding.com/sketch -->
    <title>mdn-change</title>
    <desc>Created with Sketch.</desc>
    <defs></defs>
    <g id="Page-1" stroke="none" stroke-width="1" fill="none" fill-rule="evenodd">
        <g id="mdn-change" fill="#3598D4">
            <g id="MDN-Change">
                <g id="Group" fill-rule="nonzero">
                    <path d="M41.3,0.2 L7.4,0.2 C3.8,0.2 0.9,3.2 0.9,6.9 L0.9,79.4 C0.9,83.1 3.8,86.1 7.4,86.1 L41.3,86.1 C44.9,86.1 47.8,83.1 47.8,79.4 L47.8,7 C47.8,3.3 44.9,0.2 41.3,0.2 Z M7.4,2.2 L41.3,2.2 C43.8,2.2 45.8,4.3 45.8,6.9 L45.8,11.2 L2.8,11.2 L2.8,7 C2.8,4.4 4.9,2.2 7.4,2.2 Z M45.8,13.3 L45.8,69.7 L2.8,69.7 L2.8,13.3 L45.8,13.3 Z M41.3,84.2 L7.4,84.2 C4.9,84.2 2.9,82.1 2.9,79.5 L2.9,71.7 L45.9,71.7 L45.9,79.5 C45.8,82.1 43.8,84.2 41.3,84.2 Z" id="Shape"></path>
                    <path d="M25.3,82.2 C22.8,82.2 20.7,80.1 20.7,77.6 C20.7,75.1 22.8,73 25.3,73 C27.8,73 29.9,75.1 29.9,77.6 C29.9,80.1 27.8,82.2 25.3,82.2 Z M25.3,75 C23.9,75 22.7,76.2 22.7,77.6 C22.7,79 23.9,80.2 25.3,80.2 C26.7,80.2 27.9,79 27.9,77.6 C27.9,76.2 26.7,75 25.3,75 Z" id="Shape"></path>
                    <path d="M26.5,8.9 L22.2,8.9 C20.9,8.9 19.8,7.9 19.8,6.7 C19.8,5.5 20.9,4.5 22.2,4.5 L26.5,4.5 C27.8,4.5 28.9,5.5 28.9,6.7 C28.9,7.9 27.8,8.9 26.5,8.9 Z M22.2,6.5 C21.9,6.5 21.8,6.7 21.8,6.7 C21.8,6.7 21.9,6.9 22.2,6.9 L26.5,6.9 C26.8,6.9 26.9,6.7 26.9,6.7 C26.9,6.7 26.8,6.5 26.5,6.5 L22.2,6.5 Z" id="Shape"></path>
                    <path d="M13.6,8.9 C12.4,8.9 11.4,7.9 11.4,6.7 C11.4,5.5 12.4,4.5 13.6,4.5 C14.8,4.5 15.8,5.5 15.8,6.7 C15.8,7.9 14.8,8.9 13.6,8.9 Z M13.6,6.5 C13.5,6.5 13.4,6.6 13.4,6.7 C13.4,6.9 13.8,6.9 13.8,6.7 C13.8,6.6 13.7,6.5 13.6,6.5 Z" id="Shape"></path>
                </g>
                <text id="MDN" font-family="Helvetica" font-size="7" font-weight="normal">
                    <tspan x="17.0007" y="43.2384">MDN</tspan>
                </text>
                <path d="M30.3,22.2 C30.3,22.8 30.3,23.3 30.3,23.8 C30.3,24.2 30.4,24.4 30.8,24.4 C32.6,24.5 34.3,24.8 35.9,25.6 C38.4,26.9 39.9,29.1 40.5,31.8 C40.8,33.2 40.9,34.7 41.1,36.1 C41.1,36.4 41.1,36.6 40.7,36.6 C40.3,36.6 40.2,36.4 40.2,36.1 C40.1,34.6 39.8,33.3 39.1,32 C37.8,29.8 35.7,28.7 33.2,28.2 C32.4,28 31.6,28 30.9,27.9 C30.5,27.8 30.3,28 30.3,28.4 C30.3,28.9 30.3,29.4 30.3,30 C27.6,28.7 24.9,27.4 22.2,26.1 C24.9,24.8 27.5,23.6 30.3,22.2 Z" id="Shape" fill-rule="nonzero"></path>
                <path d="M26.5,55.2 C23.8,56.5 21.1,57.8 18.4,59.1 C18.4,58.3 18.4,57.7 18.4,57 C17.2,56.8 16.1,56.7 15.1,56.5 C11.3,55.6 9,53.2 8.1,49.4 C7.8,48 7.7,46.6 7.5,45.1 C7.5,44.8 7.4,44.5 7.9,44.5 C8.3,44.5 8.4,44.7 8.4,45.1 C8.4,46.4 8.7,47.7 9.3,48.8 C10.5,51 12.5,52.2 14.9,52.8 C15.8,53 16.8,53.1 17.8,53.2 C18.2,53.3 18.3,53.1 18.3,52.7 C18.3,52.2 18.3,51.7 18.3,51.1 C21.1,52.6 23.7,53.8 26.5,55.2 Z" id="Shape" fill-rule="nonzero"></path>
                <path d="M35.9,31.9 L13,31.9 C12.8,31.9 12.7,32 12.7,32.2 L12.7,49.2 C12.7,49.4 12.8,49.5 13,49.5 L35.9,49.5 C36.1,49.5 36.2,49.4 36.2,49.2 L36.2,32.2 C36.2,32 36.1,31.9 35.9,31.9 Z M34.6,47.7 C34.6,47.9 34.5,48 34.3,48 L14.6,48 C14.4,48 14.3,47.9 14.3,47.7 L14.3,33.7 C14.3,33.5 14.4,33.4 14.6,33.4 L34.2,33.4 C34.4,33.4 34.5,33.5 34.5,33.7 L34.5,47.7 L34.6,47.7 Z" id="Shape" fill-rule="nonzero"></path>
            </g>
        </g>
    </g>
</svg>