<?xml version="1.0" encoding="utf-8"?>
<!-- Generator: Adobe Illustrator 21.1.0, SVG Export Plug-In . SVG Version: 6.00 Build 0)  -->
<svg version="1.1" id="Слой_1" xmlns="http://www.w3.org/2000/svg" xmlns:xlink="http://www.w3.org/1999/xlink" x="0px" y="0px"
	 width="677.6px" height="768px" viewBox="0 0 677.6 768" enable-background="new 0 0 677.6 768" xml:space="preserve">
<g>
	<g>
		<path d="M531.1,464v244.1c0,23.2-18,42-40.4,42H186.3c-22.4,0-40.4-18.8-40.4-42V59.9c0-23.2,18-42,40.4-42h304.4
			c22.4,0,40.4,18.8,40.4,42V169c0.3,0,0.6,0,0.9,0c8.6,0,9,0,17.1,0V59.9c0-33.1-26-59.9-58.4-59.9H186.3
			c-32.4,0-58.4,26.8-58.4,59.9v648.2c0,33.1,26,59.9,58.4,59.9h304.4c32.3,0,58.4-26.8,58.4-59.9V464c-5.7,0-11.4,0-17.1,0
			C531.7,464,531.4,464,531.1,464z"/>
	</g>
	<g>
		<rect x="136" y="616" width="404.1" height="17.9"/>
	</g>
	<g>
		<rect x="136" y="93.9" width="404.1" height="17.9"/>
	</g>
	<g>
		<g>
			<path d="M357.7,77.8h-38.4c-12.5,0-21.5-8-21.5-19.7s8.9-19.7,21.5-19.7h38.4c12.5,0,21.5,8,21.5,19.7S370.2,77.8,357.7,77.8z
				 M319.3,56.3c-1.8,0-3.6,0.9-3.6,1.8s1.8,1.8,3.6,1.8h38.4c1.8,0,3.6-0.9,3.6-1.8s-1.8-1.8-3.6-1.8H319.3z"/>
		</g>
	</g>
</g>
<g>
	<g>
		<path d="M545.5,185.1c-4.5,0-9.9,0-14.4,0.9c-39.5,4.5-72.7,24.1-95.2,55.4c-22.4,30.4-29.6,68.8-20.7,106.4
			c8.1,37.6,29.6,66.2,63.8,85.8c0-6.3,0-12.5,0-18.8c0-1.8,0-1.8-2.7-3.6c-35.9-27.7-52.1-65.3-46.7-110
			c7.2-55.4,56.6-98.3,114-98.3c1.8,0,3.6,0,6.3,0c60.2,2.7,106.9,51,109.6,110c1.8,48.3-27.8,94.8-72.7,111.8h-0.9
			c-1.8,0.9-4.5,1.8-7.2,1.8s-5.4-0.9-8.1-3.6c-3.6-3.6-3.6-8-3.6-10.7c0-22.4,0-46.5,0-75.1l0,0v-0.9c0-3.6,0.9-4.5,4.5-3.6
			c4.5,0,9,0,13.5,0c1.8,0,3.6,0,4.5-1.8c0.9-1.8-0.9-2.7-1.8-4.5c-12.6-12.5-26-25.9-38.6-38.4c-2.7-2.7-5.4-3.6-8.1-0.9
			c-13.5,13.4-26.9,26.8-40.4,40.2c-0.9,0.9-1.8,2.7-0.9,3.6c0.9,1.8,1.8,1.8,3.6,1.8c4.5,0,8.1,0,12.6,0s6.3,0.9,5.4,5.4
			c0,0.9,0,1.8,0,1.8l0,0l0,0c0,12.5,0,25.9,0,38.4v30.4c0,13.4-1.8,34,2.7,37.6c6.3,5.4,13.5,4.5,20.7,4.5c4.5,0,9,0,13.5-0.9
			c70.9-8,119.4-63.5,119.4-134.1C678.4,245,617.3,185.1,545.5,185.1z"/>
	</g>
</g>
<path d="M319.3,59.9h38.4"/>
<g>
	<path d="M347,730.4c-21.5,0-39-17.5-39-39s17.5-39,39-39s39,17.5,39,39S368.5,730.4,347,730.4z M347,668.4c-12.7,0-23,10.3-23,23
		s10.3,23,23,23c12.7,0,23-10.3,23-23S359.7,668.4,347,668.4z"/>
</g>
<g>
	<path d="M241.5,78.2c-11.1,0-20.1-9-20.1-20.1s9-20.1,20.1-20.1c11.1,0,20.1,9,20.1,20.1S252.6,78.2,241.5,78.2z M241.5,54
		c-2.2,0-4.1,1.8-4.1,4.1s1.8,4.1,4.1,4.1c2.3,0,4.1-1.8,4.1-4.1S243.8,54,241.5,54z"/>
</g>
</svg>
