<?xml version="1.0" encoding="utf-8"?>
<!-- Generator: Adobe Illustrator 21.1.0, SVG Export Plug-In . SVG Version: 6.00 Build 0)  -->
<svg version="1.1" id="Слой_1" xmlns="http://www.w3.org/2000/svg" xmlns:xlink="http://www.w3.org/1999/xlink" x="0px" y="0px"
	 width="46.9px" height="85.9px" viewBox="0 0 46.9 85.9" enable-background="new 0 0 46.9 85.9" xml:space="preserve">
<g>
	<path fill="#827DBA" d="M22.4,21c0.8,0,1.5,0,2.3,0c0.1,0,0.2,0,0.2,0.1c1,0.1,1.9,0.2,2.9,0.4c2.6,0.6,4.9,1.7,7,3.2
		c1.7,1.2,3.1,2.7,4.2,4.4c1.6,2.4,2.7,5,3.1,7.8c0.1,0.6,0.2,1.2,0.2,1.8c0,0.8,0,1.5,0,2.3c-0.1,0.4-0.1,0.9-0.2,1.3
		c-0.3,2.7-1.3,5.3-2.7,7.6c-1.6,2.5-3.7,4.6-6.2,6.1c-2.1,1.3-4.4,2.1-6.8,2.5c-0.6,0.1-1.2,0.2-1.8,0.2c-0.8,0-1.5,0-2.3,0
		c-0.1,0-0.2,0-0.3-0.1c-2-0.2-3.9-0.6-5.7-1.4c-3.4-1.3-6.2-3.5-8.3-6.5c-1.7-2.4-2.7-5-3.1-7.9c-0.1-0.6-0.2-1.2-0.2-1.8
		c0-0.8,0-1.5,0-2.3c0-0.1,0-0.2,0.1-0.3c0.1-0.9,0.2-1.9,0.4-2.8c0.6-2.6,1.7-4.9,3.2-7c1.4-1.9,3.1-3.5,5.2-4.8
		c2.2-1.4,4.6-2.3,7.1-2.6C21.2,21.1,21.8,21.1,22.4,21z M12.2,27.1c-0.6,0.5-1.2,1-1.7,1.5c-0.4,0.3-0.8,0.6-1.1,1.1
		c-1.3,1.8-2.3,3.8-2.7,6c-0.2,1-0.3,2.1-0.5,3.2c0,0.2,0,0.3,0.2,0.4C6.7,39.5,7,39.7,7.3,40c1.3,1.2,2.3,2.6,3,4.1
		c0.1,0.2,0,0.3,0,0.5c-0.3,0.6-0.5,1.1-0.7,1.7C9.4,46.9,9.5,47.6,10,48c0.3,0.3,0.6,0.5,0.9,0.7c0.2,0.1,0.3,0.3,0.4,0.5
		c0,0.2,0.1,0.4,0.2,0.5c0.8,0.8,1.6,1.4,2.6,1.8c0.3,0.1,0.5,0.4,0.6,0.7c0.4,1.4,1.1,2.5,2.2,3.4c0.6,0.5,1.3,0.7,2,0.9
		c0.4,0.1,0.8,0.2,1.2,0.3c0-0.2,0-0.3,0-0.4c-0.1,0-0.2-0.1-0.4-0.1c0.3,0,0.6-0.1,0.9-0.1c-0.1-0.1-0.1-0.2-0.1-0.3
		c0.3-0.1,0.6-0.2,0.9-0.3c0.2-0.1,0.3-0.2,0.6-0.1c0.2,0.1,0.4-0.2,0.4-0.4c0-0.3-0.1-0.6-0.1-0.9c0-0.1,0.1-0.2,0.1-0.3
		c0.1-0.1,0.2-0.1,0.3-0.2c0.5-0.3,0.9-0.6,1.4-0.9c0.1-0.1,0.3-0.4,0.2-0.5c-0.2-0.4,0-0.6,0.3-0.9c0.1-0.1,0.2-0.3,0.4-0.4
		c0.5-0.5,0.6-1,0.6-1.7c-0.3,0-0.6-0.1-0.9-0.1c-1.4-0.2-2.7-0.7-3.8-1.6c-0.1-0.1-0.2-0.1-0.3-0.1c-0.3,0.1-0.6,0.3-0.9,0.4
		c-0.1,0-0.2,0.1-0.3,0c-0.1,0-0.2-0.2-0.3-0.2c0.4-0.5,0.4-0.5,0-1.1c0-0.1-0.1-0.1-0.1-0.2c-0.2-0.4-0.5-0.6-1-0.6
		c-0.2,0-0.3-0.1-0.5-0.1c-0.3-0.1-0.5-0.2-0.6-0.6c-0.1-0.2-0.2-0.5-0.3-0.6c-0.7-0.7-1.5-1-2.4-1.4c-0.1,0-0.2,0-0.2,0
		c-0.3,0.1-0.6,0-0.8-0.2c-0.2-0.1-0.4-0.2-0.6-0.4c-0.1-0.1-0.2-0.1-0.4,0s-0.4,0.2-0.6,0.2c-0.6-0.1-1.2-0.4-1.6-0.8
		c-0.4-0.4-0.7-0.8-1.1-1.1c-0.1-0.1-0.2-0.3-0.2-0.5c0-0.4,0-0.8,0.3-1.2c0.1-0.1,0.1-0.3,0.2-0.4c-0.4-0.1-0.6,0.2-0.8,0.4
		S7.7,39.2,7.7,39c-0.1-0.7-0.5-1.5,0.2-2.2c0.2-0.2,0.3-0.5,0.5-0.8c0-0.1,0.1-0.2,0.2-0.2c0.4,0,0.8,0,1.1,0.2
		c0.4,0.1,0.7,0.5,1.1,0c0.1,0.2,0.1,0.4,0.2,0.5c0.1,0.1,0.3,0,0.6,0c0,0.7,0,1.4,0,2.1h0.1c0.2-0.2,0.4-0.3,0.6-0.5
		c0.2-0.1,0.2-0.2,0.1-0.4c-0.2-0.3-0.1-0.6,0-0.8c0.1-0.1,0.1-0.2,0.1-0.3c0.1,0,0.2,0,0.3-0.1c0.4-0.1,0.8-0.6,1.3-0.4
		c0.4,0.1,0.6-0.1,0.8-0.4c0.2-0.2,0.3-0.4,0.5-0.6c0.1-0.1,0.3-0.2,0.4-0.3c0.7-0.3,1.5-0.5,2.3-0.8c0.7-0.2,1.5-0.4,2.2-0.6
		c-0.2-0.1-0.3-0.3-0.4-0.4c0.1-0.2,0.2-0.3,0.4-0.5c-0.5,0.1-0.9,0.2-1.4,0.2v-0.1c0.3-0.1,0.5-0.3,0.8-0.3
		c0.6-0.1,1.2-0.1,1.8-0.2c0.2,0,0.5-0.1,0.7-0.3c0.2-0.1,0.5-0.4,0.7-0.5c0.1-0.1,0.2-0.1,0.3-0.1l-0.1-0.1
		c-0.2,0.1-0.5,0.1-0.8,0.2c0.2-0.4,0.2-0.7,0-1c0,0,0-0.2,0-0.3s0.1-0.2,0.2-0.3c-0.2,0-0.4-0.2-0.6-0.1c-0.5,0.1-0.7-0.1-0.9-0.5
		c0-0.1-0.1-0.1-0.1-0.2c-0.1-0.1-0.2-0.2-0.4-0.3c0,0.2-0.1,0.4-0.1,0.6c-0.5-0.3-0.8,0.1-1,0.4c-0.2,0.2-0.4,0.4-0.5,0.5
		c-0.4,0.4-0.9,0.8-1.3,1.3c0,0-0.1,0-0.1-0.1C17.2,30.7,17,30,17,29.2c0-0.1,0.1-0.1,0.1-0.2c0.9-0.5,1.9-1,2.8-1.5
		c0.2-0.1,0.5-0.2,0.7,0c0.3,0.2,0.5-0.2,0.6-0.3s0-0.3,0-0.4c-0.3,0.1-0.5,0.2-0.8,0.3c0-0.4-0.1-0.8-0.1-1.3
		c-0.1,0.1-0.1,0.2-0.1,0.2c-0.2,0.3-0.3,0.6-0.5,0.8S19,27.1,18.8,27c-0.4-0.2-0.8-0.4-1.2-0.1c-0.2-0.2-0.5-0.2-0.4-0.6
		c-0.5,0.2-0.9,0.4-1.3,0.6c-0.2,0.1-0.3,0.1-0.4-0.1c0.5-0.2,1-0.4,1.5-0.5c-0.2-0.1-0.2-0.1-0.3-0.2c0-0.1,0-0.2,0.1-0.4
		c-0.3,0-0.5,0-0.7,0c-0.2,0-0.4,0-0.6,0c0.1-0.2,0.2-0.4,0.3-0.6c-0.4,0-0.6,0-0.9,0.1c0-0.2,0-0.3,0-0.4c0,0-0.1,0-0.1-0.1
		c-0.8,0.6-1.7,1.2-2.6,1.9C11.9,27,12,27,12.2,27.1z M32,39.5c0.5,0.2,0.6,0.6,0.6,1.1c0,0.2,0.1,0.4,0.1,0.6
		c0,0.4,0.1,0.8-0.1,1.2c0,0.1,0,0.2,0.1,0.3c0.4,0.4,0.9,0.8,1.4,1.2c0.4,0.3,0.8,0.6,1.1,0.9c0.3,0.2,0.3,0.2,0.6-0.1
		c0.1-0.1,0.3-0.3,0.4-0.3c0.7-0.2,1.4-0.4,2.1-0.6c0.3-0.1,0.6-0.2,0.9-0.2c0.4,0,0.6,0.1,0.6,0.5c0,0.5,0,1,0,1.5
		c0,0.1,0,0.2,0,0.3h0.1c1.4-4.1,1.4-8.2-0.2-12.2c-0.3,0-0.4,0.1-0.4,0.4c0,0.1-0.1,0.3-0.1,0.5c-0.2-0.1-0.3-0.1-0.5-0.2
		c-0.3-0.2-0.6-0.4-0.9-0.7c-0.2-0.2-0.3-0.2-0.6-0.1c-0.7,0.3-1.5,0.6-2.2,0.9c0,0,0,0-0.1,0c0,0.1,0,0.2,0,0.3
		c-0.4,0-0.5,0.3-0.7,0.6c-0.4,1.1-0.9,2.1-1.6,3.1C32.6,38.7,32.3,39,32,39.5z M39,32.2L39,32.2c-1-2.3-2.5-4.3-4.5-5.8
		c0.2,0.7,0.7,1.3,0.8,2c-0.2-0.1-0.3-0.1-0.5-0.1c0,0.1-0.1,0.2-0.1,0.3c-0.2-0.2-0.5-0.4-0.7-0.6c0,0,0,0-0.1,0
		c0.1,0.2,0.3,0.4,0.4,0.6c-0.1,0.3-0.1,0.6-0.2,0.9c-0.3-0.1-0.6-0.2-0.8-0.3c-0.3-0.2-0.5-0.5-0.8-0.8c-0.3,0.2-0.3,0.3-0.1,0.5
		c0.1,0.1,0.3,0.3,0.4,0.3c0.2,0.1,0.4,0.3,0.3,0.6s0.2,0.6,0.4,0.7c0.5,0.3,0.6,0.8,1,1.3c-0.3,0-0.6,0.1-0.8,0.1
		c-0.2,0-0.5,0-0.8,0.1c0.2,0.4,0.4,0.8,0.6,1.2c0,0.1,0.1,0.2,0.1,0.4c0,0.4,0.2,0.5,0.5,0.4c0.2-0.1,0.4-0.1,0.7-0.2
		c0.3-0.1,0.6-0.2,0.9-0.4c-0.1-0.2-0.2-0.4-0.3-0.6c0-0.1-0.1-0.2-0.1-0.3c0.1-0.4,0.2-0.8,0.4-1.2c0.1-0.3,0.5-0.4,0.7-0.2
		c0.1,0.1,0.2,0.2,0.3,0.3c0.3,0.3,0.6,0.6,1.1,0.3c-0.2-0.2-0.3-0.4-0.5-0.6L37.2,31c-0.2-0.1-0.3-0.1-0.5-0.2v-0.1
		c0.1,0,0.2,0,0.3,0c0.1,0.1,0.3,0.1,0.4,0.2C38,31.4,38.5,31.8,39,32.2z M23.7,25.3c0.7,0.3,0.9,0.5,1,1.4v0.1
		c0.3,0.3,0.1,0.5,0,0.8c-0.3,0.6,0,1.3,0.6,1.5c0.3,0.1,0.4,0,0.4-0.2c0-0.1,0.1-0.2,0.2-0.2c0.7-0.3,1.2-0.7,1.8-1.2
		c0.2-0.2,0.4-0.5,0.6-0.7c-0.2-0.1-0.3-0.2-0.5-0.3v-0.1c0.2,0,0.3,0,0.6,0c-0.1-0.2-0.2-0.4-0.4-0.6c0.1,0,0.2,0,0.4,0
		c-0.4-0.5-0.7-1-1.1-1.6c-0.2,0.1-0.4,0.3-0.6-0.1c0.1,0,0.1-0.1,0.2-0.1c-0.4-0.3-0.9-0.1-1.1,0.3c-0.2,0-0.4,0-0.6-0.1
		c-0.2,0-0.4-0.1-0.6-0.2c0,0.1-0.1,0.2-0.1,0.4c-0.1,0-0.2-0.1-0.2-0.1C24.2,24.6,23.9,24.9,23.7,25.3z M33.3,27.2
		c0.2,0.2,0.3,0.3,0.5,0.4c0.1-0.2,0.1-0.3,0.2-0.5h0.1c0,0,0,0,0-0.1c-0.1-0.1-0.2-0.2-0.2-0.2s0,0-0.1,0.1
		c-0.3-0.4-0.5-0.7-0.8-1.1c0,0,0-0.1,0.1-0.1c0.1,0.1,0.2,0.1,0.3,0.2c0.1,0.1,0.2,0.2,0.3,0.4c0.3,0.3,0.5,0.3,0.8-0.1
		c-0.8-0.5-1.5-1-2.3-1.5c-0.4-0.3-0.6-0.2-0.8,0.1c0.2,0.3,0.5,0.5,0.6,0.8c0.2,0.3,0.4,0.6,0.5,1c0.1,0.2,0.1,0.4,0.2,0.6
		c0.2,0.1,0.3,0.3,0.5,0.4c0,0,0.1,0,0.2,0c0-0.1,0-0.1,0-0.2C33.4,27.3,33.3,27.3,33.3,27.2z M21.5,28.8c0.7-0.9,0.7-0.9,1.4-0.5
		c0.1-0.1,0.2-0.2,0.2-0.3s0.1-0.2,0-0.3c0-0.1-0.1-0.3-0.2-0.4c-0.1-0.3-0.3-0.6-0.6-0.8c-0.2-0.1-0.5-0.2-0.7-0.3v-0.1
		c-0.1,0.1-0.2,0.1-0.4,0.2c0-0.1,0-0.2,0-0.3c-0.1,0.1-0.3,0.1-0.4,0.2c-0.2,0.1-0.2,0.3,0,0.4c0.1,0,0.2,0,0.2,0
		c0.2,0.1,0.5,0.2,0.7,0.3c-0.1,0.1-0.2,0.3-0.2,0.4c0,0.1-0.1,0.1-0.2,0.2c-0.2,0.3-0.4,0.6-0.8,0.6l0,0c0.2,0,0.4,0,0.5,0.1
		C21.4,28.5,21.4,28.7,21.5,28.8z M21.9,25.6c0.3,0.1,0.6-0.1,0.9-0.2c0.1,0,0.2-0.1,0.2-0.1c0.2,0.1,0.3-0.1,0.5-0.2
		c0.1-0.1,0.1-0.1,0.2-0.1c0.3-0.1,0.4-0.4,0.5-0.6c0-0.1-0.1-0.2-0.2-0.2c-0.4,0-0.7,0.1-1.1,0.2c0,0.1,0.1,0.2,0.1,0.3
		c0.2,0.2,0.1,0.3-0.1,0.4C22.5,25.2,22.2,25.4,21.9,25.6z M17.4,26.3c0.3,0.5,1.4,0.3,1.8-0.3c-0.2-0.1-0.4-0.3-0.7-0.2
		c-0.1,0-0.2-0.2-0.3-0.3c-0.1-0.1-0.1-0.1-0.1-0.2H18c-0.1,0.2-0.2,0.3-0.2,0.5C17.8,26.1,17.7,26.3,17.4,26.3z M13.6,41.4
		c0.1-0.1,0.2-0.2,0.3-0.3c0,0,0-0.1,0-0.2c-0.1-0.4-0.4-0.6-0.8-0.7c-0.1,0-0.4,0.1-0.5,0.2c-0.1,0.1,0,0.4,0.1,0.4
		C13.2,40.8,13.4,41.1,13.6,41.4z M12.1,39.9c-0.1-0.1-0.2-0.3-0.3-0.4c-0.3-0.3-0.4-0.4-0.8-0.1C11.3,40,11.9,40.3,12.1,39.9z
		 M19.2,25.2c-0.1,0.1-0.1,0.1-0.2,0.2c0.2,0.2,0.4,0.4,0.7,0.3c0.1,0,0.1-0.1,0.2-0.2c-0.1,0-0.2,0-0.3,0c0-0.2,0-0.3,0.1-0.5
		c-0.3-0.1-0.6-0.1-0.9,0.2C18.8,25.2,19,25.2,19.2,25.2z M30.1,27.5c-0.4-0.1-0.8,0-1.2,0.2c0.3,0.3,0.4,0.4,0.9,0.2
		C29.9,27.8,30.1,27.8,30.1,27.5z M32.5,30.4c0.1-0.2,0.2-0.3,0.3-0.5c-0.1-0.2-0.2-0.4-0.3-0.6C32,29.6,32,29.7,32.5,30.4z
		 M10.9,39.5c0-0.6-0.3-0.7-1-0.5C10.2,39.1,10.6,39.3,10.9,39.5z M22,32.7c-0.3-0.1-0.6-0.1-0.9-0.2c0,0,0,0,0,0.1
		c0.2,0.2,0.4,0.3,0.5,0.5C21.8,33,21.9,32.9,22,32.7z M20.2,25.4c0.4,0,0.5-0.1,0.4-0.5C20.5,25.1,20.4,25.3,20.2,25.4z M20.3,24.4
		c0.5,0,0.6,0,0.6-0.3C20.7,24.2,20.6,24.3,20.3,24.4z"/>
	<path fill="#827DBA" d="M15.8,33c-0.7,0.3-1.1,0.9-1.9,0.8c0.2-0.4,0.4-0.8,0.6-1.2c-0.2,0.1-0.4,0.1-0.5,0.2
		c-0.3,0.3-0.6,0.5-1,0.8c0-0.6,0.5-1,1-1.3c-0.2-0.2-0.4-0.3-0.6-0.4c0.4-0.5,0.9-0.6,1.4-0.3c0.1,0,0.1,0.1,0.1,0.2
		C15.1,32.3,15.3,32.7,15.8,33z"/>
	<path fill="#827DBA" d="M34.2,29.8c0.1,0.4-0.1,0.4-0.3,0.5C34,30.1,34.1,30,34.2,29.8z"/>
</g>
<path fill="#60608C" d="M39.1,37.5c1.5-0.9,2.7-1.9,3.8-3.1c0.9-0.9,1.4-2,1.5-3.2c0.4-2.9-0.7-4.9-3.2-5.9
	c-1.7-0.7-3.4-0.9-5.1-0.9c-0.6,0-1.2,0-1.8,0c0.1,0.1,0.1,0.1,0.1,0.2c1.1,0.8,2.2,1.7,3.3,2.5c0.1,0.1,0.3,0.2,0.5,0.2
	c0.6,0.2,1.2,0.3,1.8,0.5c1.5,0.6,2,1.7,1.6,3.2c-0.3,1.3-1.1,2.3-1.9,3.2c-0.1,0.1-0.2,0.2-0.3,0.4C39.4,35.5,39.3,36.4,39.1,37.5z
	"/>
<path fill="#FFFFFF" d="M38.3,36.9c1.5-0.9,2.7-1.9,3.8-3.1c0.9-0.9,1.4-2,1.5-3.2c0.4-2.9-0.7-4.9-3.2-5.9
	c-1.7-0.7-3.4-0.9-5.1-0.9c-0.6,0-1.2,0-1.8,0c0.1,0.1,0.1,0.1,0.1,0.2c1.1,0.8,2.2,1.7,3.3,2.5c0.1,0.1,0.3,0.2,0.5,0.2
	c0.6,0.2,1.2,0.3,1.8,0.5c1.5,0.6,2,1.7,1.6,3.2c-0.2,1.3-1,2.3-1.8,3.3c-0.1,0.1-0.2,0.2-0.3,0.4C38.6,34.9,38.5,35.9,38.3,36.9z"
	/>
<path fill="#60608C" d="M38.2,37.2l0.1-1c0.1-0.8,0.2-1.5,0.3-2.2c0-0.2,0.1-0.3,0.3-0.4l0,0c1-1.1,1.6-2.1,1.9-3.1
	c0.4-1.5-0.1-2.6-1.5-3.1c-0.4-0.1-0.8-0.2-1.2-0.3c-0.2-0.1-0.5-0.1-0.7-0.2c-0.2-0.1-0.4-0.1-0.5-0.2C36,26,35,25.3,34.1,24.6
	l-0.5-0.4c0,0,0,0-0.1-0.1c0,0,0-0.1-0.1-0.1l-0.2-0.2h0.3c0.2,0,0.4,0,0.6,0c0.4,0,0.7,0,1,0h0.2c2.1,0,3.7,0.3,5.2,0.9
	c2.6,1,3.7,3.1,3.3,6.1c-0.2,1.3-0.7,2.3-1.6,3.3c-1.1,1.2-2.4,2.2-3.8,3.1H38.2z M33.8,24l0.5,0.3c0.9,0.7,1.9,1.4,2.8,2.1
	c0.1,0.1,0.3,0.2,0.5,0.2c0.2,0.1,0.4,0.1,0.7,0.2c0.4,0.1,0.8,0.2,1.2,0.3c1.6,0.6,2.1,1.7,1.7,3.4c-0.3,1.1-0.9,2.1-2,3.2l0,0
	C39.1,33.8,39,33.9,39,34c-0.1,0.7-0.2,1.4-0.3,2.2l-0.2,0.5c1.3-0.8,2.5-1.8,3.6-2.9c0.8-0.9,1.3-1.9,1.5-3.1
	c0.4-2.8-0.7-4.8-3.1-5.8c-1.4-0.6-3-0.8-5.1-0.9h-0.2c-0.3,0-0.7,0-1,0C34,24,33.9,24,33.8,24z"/>
<path fill="#60608C" d="M5,43c-1.8,1.9-3.2,3.9-3.4,6.5c-0.2,2.2,0.5,3.4,2.5,4.2c1.4,0.6,2.8,0.7,4.3,0.7c2,0,3.9-0.4,5.9-0.9
	c3.7-1,7.1-2.5,10.1-5c0.2-0.2,0.4-0.2,0.6,0c0.3,0.3,0.6,0.5,1,0.8c0.6-2,1.1-4,1.7-6.1c-1.9,1.1-3.7,2.2-5.5,3.3
	c0.2,0.2,0.4,0.4,0.6,0.6c0.3,0.2,0.3,0.4,0,0.7c-0.1,0.1-0.1,0.1-0.2,0.2c-2.3,1.8-4.9,2.9-7.6,3.7c-2.5,0.7-5,1.2-7.6,0.9
	c-0.8-0.1-1.8-0.2-2.3-1s-0.8-1.7-0.9-2.5c-0.2-1.4,0.5-2.6,1.2-3.8c0.1-0.2,0.2-0.4,0.2-0.5C5.2,44.3,5.1,43.7,5,43z"/>
<path fill="#FFFFFF" d="M4.7,41.8c-1.8,1.9-3.2,3.9-3.4,6.5c-0.2,2.2,0.5,3.4,2.5,4.2c1.4,0.6,2.8,0.7,4.3,0.7c2,0,3.9-0.4,5.9-0.9
	c3.7-1,7.1-2.5,10.1-5c0.2-0.2,0.4-0.2,0.6,0c0.3,0.3,0.6,0.5,1,0.8c0.6-2,1.1-4,1.7-6.1c-1.9,1.1-3.7,2.2-5.5,3.3
	c0.2,0.2,0.4,0.4,0.6,0.6c0.3,0.2,0.3,0.4,0,0.7c-0.1,0.1-0.1,0.1-0.2,0.2c-2.3,1.8-4.9,2.9-7.6,3.7c-2.5,0.7-5,1.2-7.6,0.9
	c-0.8-0.1-1.8-0.2-2.3-1c-0.5-0.8-0.8-1.7-0.9-2.5c-0.2-1.4,0.5-2.6,1.2-3.8c0.1-0.2,0.2-0.4,0.2-0.5C4.9,43.1,4.8,42.5,4.7,41.8z"
	/>
<path fill="#60608C" d="M7.8,53.4c-1.2,0-2.6-0.1-4-0.7c-2-0.9-2.8-2.2-2.6-4.4c0.2-2.9,1.9-4.9,3.4-6.6l0.2-0.2v0.2
	c0,0.2,0.1,0.4,0.1,0.6c0.1,0.5,0.2,0.9,0.2,1.3c0,0.3-0.1,0.5-0.2,0.6c-0.7,1.2-1.4,2.3-1.2,3.7c0.1,0.8,0.5,1.7,0.9,2.5
	c0.4,0.7,1.3,0.8,2.1,0.9l0,0c0.5,0.1,1.1,0.1,1.6,0.1c1.8,0,3.6-0.3,6-1c3-0.9,5.5-2.1,7.6-3.7c0,0,0.1,0,0.1-0.1
	c0,0,0.1-0.1,0.2-0.1c0.1-0.1,0.2-0.2,0.2-0.2c0-0.1-0.1-0.2-0.2-0.3s-0.3-0.2-0.4-0.4c-0.1-0.1-0.1-0.1-0.2-0.2l-0.1-0.1l6-3.6
	L27.4,42c-0.6,2.1-1.1,4.1-1.7,6.1l-0.1,0.2l-0.1-0.1c-0.1-0.1-0.2-0.2-0.3-0.3c-0.2-0.2-0.5-0.4-0.7-0.6c-0.2-0.2-0.2-0.2-0.4,0
	c-2.6,2.2-5.8,3.8-10.1,5c-2.1,0.6-4,0.9-5.9,0.9C7.9,53.4,7.8,53.4,7.8,53.4z M4.6,42.1c-1.5,1.6-3,3.6-3.2,6.3
	c-0.2,2.1,0.5,3.2,2.4,4.1c1.3,0.6,2.7,0.7,3.9,0.7c0.1,0,0.2,0,0.3,0c1.9,0,3.8-0.3,5.8-0.9c4.3-1.2,7.5-2.8,10-5
	c0.3-0.3,0.6-0.1,0.7,0c0.2,0.2,0.4,0.4,0.6,0.6c0.1,0,0.1,0.1,0.2,0.1c0.5-1.9,1-3.7,1.6-5.6l-5.1,3.1l0.1,0.1
	c0.1,0.1,0.3,0.2,0.4,0.3c0.2,0.2,0.3,0.3,0.3,0.5s-0.1,0.3-0.3,0.4l-0.1,0.1c0,0-0.1,0-0.1,0.1c-2.1,1.6-4.6,2.8-7.7,3.7
	c-2.4,0.7-4.3,1-6,1c-0.6,0-1.1,0-1.7-0.1l0,0c-0.9-0.1-1.8-0.2-2.3-1S3.6,48.9,3.5,48c-0.2-1.4,0.4-2.6,1.2-3.9
	c0.1-0.2,0.2-0.3,0.1-0.5c0-0.4-0.1-0.9-0.2-1.3C4.6,42.3,4.6,42.2,4.6,42.1z"/>
<g>
	<path fill="#827DBA" d="M40.5,0h-34C2.9,0,0,3,0,6.7v72.5c0,3.7,2.9,6.7,6.5,6.7h33.9c3.6,0,6.5-3,6.5-6.7V6.7C47,3,44.1,0,40.5,0z
		 M6.5,2h33.9c2.5,0,4.5,2.1,4.5,4.7V11H2V6.7C2,4.1,4,2,6.5,2z M45,13.1v56.4H2V13.1H45z M40.5,84h-34C4,84,2,81.9,2,79.3v-7.8h43
		v7.8C45,81.9,43,84,40.5,84z"/>
	<path fill="#827DBA" d="M24.5,81.9c-2.5,0-4.6-2.1-4.6-4.6s2.1-4.6,4.6-4.6s4.6,2.1,4.6,4.6S27,81.9,24.5,81.9z M24.5,74.8
		c-1.4,0-2.6,1.2-2.6,2.6s1.2,2.6,2.6,2.6s2.6-1.2,2.6-2.6S25.9,74.8,24.5,74.8z"/>
	<path fill="#827DBA" d="M25.7,8.7h-4.3c-1.3,0-2.4-1-2.4-2.2s1.1-2.2,2.4-2.2h4.3c1.3,0,2.4,1,2.4,2.2S27,8.7,25.7,8.7z M21.3,6.3
		c-0.3,0-0.4,0.2-0.4,0.2s0.1,0.2,0.4,0.2h4.3c0.3,0,0.4-0.2,0.4-0.2s-0.1-0.2-0.4-0.2H21.3z"/>
	<path fill="#827DBA" d="M12.7,8.7c-1.2,0-2.2-1-2.2-2.2s1-2.2,2.2-2.2s2.2,1,2.2,2.2S13.9,8.7,12.7,8.7z M12.7,6.3
		c-0.1,0-0.2,0.1-0.2,0.2c0,0.2,0.4,0.2,0.4,0C12.9,6.4,12.8,6.3,12.7,6.3z"/>
</g>
</svg>
