<?xml version="1.0" encoding="utf-8"?>
<!-- Generator: Adobe Illustrator 21.0.0, SVG Export Plug-In . SVG Version: 6.00 Build 0)  -->
<svg version="1.1" id="Слой_1" xmlns="http://www.w3.org/2000/svg" xmlns:xlink="http://www.w3.org/1999/xlink" x="0px" y="0px"
	 viewBox="0 0 48 87" enable-background="new 0 0 48 87" xml:space="preserve">
<g>
	<g>
		<path fill="#3598D4" d="M41,0.5H7c-3.6,0-6.5,3-6.5,6.7v72.5c0,3.7,2.9,6.7,6.5,6.7H41c3.6,0,6.5-3,6.5-6.7V7.2
			C47.5,3.5,44.6,0.5,41,0.5z M7,2.5H41c2.5,0,4.5,2.1,4.5,4.7v4.3h-43V7.2C2.5,4.6,4.5,2.5,7,2.5z M45.5,13.6V70h-43V13.6H45.5z
			 M41,84.5H7c-2.5,0-4.5-2.1-4.5-4.7V72h43v7.8C45.5,82.4,43.5,84.5,41,84.5z"/>
		<path fill="#3598D4" d="M25,82.4c-2.5,0-4.6-2.1-4.6-4.6s2.1-4.6,4.6-4.6c2.5,0,4.6,2.1,4.6,4.6S27.5,82.4,25,82.4z M25,75.3
			c-1.4,0-2.6,1.2-2.6,2.6s1.2,2.6,2.6,2.6s2.6-1.2,2.6-2.6S26.4,75.3,25,75.3z"/>
		<path fill="#3598D4" d="M26.2,9.2h-4.3c-1.3,0-2.4-1-2.4-2.2s1.1-2.2,2.4-2.2h4.3c1.3,0,2.4,1,2.4,2.2S27.5,9.2,26.2,9.2z
			 M21.8,6.8c-0.3,0-0.4,0.2-0.4,0.2s0.1,0.2,0.4,0.2h4.3c0.3,0,0.4-0.2,0.4-0.2s-0.1-0.2-0.4-0.2H21.8z"/>
		<path fill="#3598D4" d="M13.2,9.2C12,9.2,11,8.2,11,7s1-2.2,2.2-2.2s2.2,1,2.2,2.2S14.4,9.2,13.2,9.2z M13.2,6.8
			C13.1,6.8,13,6.9,13,7c0,0.2,0.4,0.2,0.4,0C13.4,6.9,13.3,6.8,13.2,6.8z"/>
	</g>
	<path fill="#3598D4" d="M13.5,35.5c1.6,0,3.2,0,4.8,0c0,0.6,0,1.1,0,1.7c0.2-0.3,0.4-0.5,0.6-0.7c0.3-0.3,0.6-0.5,1-0.7
		c0.8-0.5,1.6-0.6,2.5-0.6c1.3,0,2.4,0.4,3.3,1.3c0.2,0.2,0.3,0.4,0.5,0.7c0.2-0.2,0.3-0.4,0.5-0.6c0.8-0.8,1.9-1.2,3-1.4
		c0.8-0.1,1.6-0.1,2.4,0.2c1.6,0.5,2.5,1.6,2.8,3.2c0.1,0.8,0.1,1.7,0.1,2.5c0,2.4,0,4.8,0,7.2c0,0.1,0,0.2,0,0.3
		c-0.3,0-0.6,0-0.9,0c-0.3,0-0.6,0-1,0c-0.5,0.1-1,0-1.5,0c-0.5,0-1,0-1.6,0c0-0.3,0-0.5,0-0.8c0-2.2,0-4.5,0-6.7
		c0-0.3,0-0.5-0.1-0.8c-0.2-0.7-0.6-1.1-1.3-1.1c-1-0.1-1.7,0.5-1.8,1.6c-0.1,0.9-0.1,1.9-0.1,2.8c0,1.6,0,3.3,0,4.9
		c0,0,0,0.1,0,0.1c-1.6,0-3.3,0-5,0c0-0.8,0-1.5,0-2.2c0-1.7,0-3.3,0-5c0-0.3,0-0.6-0.1-0.8c-0.2-1.1-0.9-1.4-1.9-1.3
		c-0.7,0.1-1.2,0.6-1.3,1.5c-0.1,0.7-0.1,1.4-0.1,2.2c0,1.8,0,3.6,0,5.4c0,0.1,0,0.1,0,0.2c-1.7,0-3.3,0-5,0
		C13.5,44.3,13.5,39.9,13.5,35.5z"/>
	<path fill="#3598D4" d="M34.5,59.2H13.5c-4.1,0-7.5-3.4-7.5-7.5V30.7c0-4.1,3.4-7.5,7.5-7.5h21.1c4.1,0,7.5,3.4,7.5,7.5v21.1
		C42,55.9,38.7,59.2,34.5,59.2z M13.5,24.2c-3.6,0-6.5,2.9-6.5,6.5v21.1c0,3.6,2.9,6.5,6.5,6.5h21.1c3.6,0,6.5-2.9,6.5-6.5V30.7
		c0-3.6-2.9-6.5-6.5-6.5H13.5z"/>
</g>
</svg>
