<?xml version="1.0" encoding="utf-8"?>
<!-- Generator: Adobe Illustrator 21.1.0, SVG Export Plug-In . SVG Version: 6.00 Build 0)  -->
<svg version="1.1" id="Слой_1" xmlns="http://www.w3.org/2000/svg" xmlns:xlink="http://www.w3.org/1999/xlink" x="0px" y="0px"
	 width="677.6px" height="768px" viewBox="0 0 677.6 768" enable-background="new 0 0 677.6 768" xml:space="preserve">
<path d="M350.9,732.2c-22.7,0-41.9-18.8-41.9-41.1s19.1-41.1,41.9-41.1c22.7,0,41.9,18.8,41.9,41.1S373.7,732.2,350.9,732.2z
	 M350.9,667.9c-12.7,0-23.7,10.7-23.7,23.2s10.9,23.2,23.7,23.2s23.7-10.7,23.7-23.2S363.7,667.9,350.9,667.9z"/>
<path d="M361.9,76.9h-39.1c-11.8,0-21.8-8.9-21.8-19.7s10-19.7,21.8-19.7h39.1c11.8,0,21.8,8.9,21.8,19.7S373.7,76.9,361.9,76.9z
	 M322.7,56.3c-2.7,0-3.6,1.8-3.6,1.8s0.9,1.8,3.6,1.8h39.1c2.7,0,3.6-1.8,3.6-1.8s-0.9-1.8-3.6-1.8H322.7z"/>
<path d="M243.6,76.9c-10.9,0-20-8.9-20-19.7s9.1-19.7,20-19.7s20,8.9,20,19.7S254.5,76.9,243.6,76.9z M243.6,56.3
	c-0.9,0-1.8,0.9-1.8,1.8c0,1.8,3.6,1.8,3.6,0S244.5,56.3,243.6,56.3z"/>
<path d="M537.5,440.8v179.7H146.2V116.2h391.3v64.4h18.2V59.9c0-33.1-26.4-59.9-59.1-59.9H187.1C154.4,0,128,26.8,128,59.9v648.2
	c0,33.1,26.4,59.9,59.1,59.9h308.5c32.8,0,59.1-26.8,59.1-59.9V440.8H537.5z M146.2,59.9c0-23.2,18.2-42,40.9-42h308.5
	c22.7,0,40.9,18.8,40.9,42v38.4H146.2V59.9z M537.5,708.1c0,23.2-18.2,42-40.9,42H187.1c-22.7,0-40.9-18.8-40.9-42v-69.7h391.3
	V708.1z"/>
<path d="M633.9,320.1c-11.8-11.6-28.2-17.9-46.4-17.9c-12.7,0-26.4,0-39.1,0h-44.6c-14.6,0-28.2,0-42.8,0
	c-14.6,0-26.4-4.5-33.7-11.6c-6.4-6.3-9.1-15.2-9.1-25c0.9-21.5,16.4-34.9,42.8-34.9c13.6,0,28.2,0,41.9,0h38.2
	c10.9,0,20.9,0,31.8,0c0.9,0,1.8,0,3.6,0c5.5,0,13.6,0.9,20.9-6.3l3.6-3.6l-4.5-3.6c-6.4-4.5-11.8-5.4-17.3-5.4h-5.5H562
	c-33.7,0-68.2,0-101.9,0c-36.4,0-61,21.5-61,53.6c0,32.2,24.6,53.6,61,54.5c10.9,0,21.8,0,32.8,0h55.5c13.6,0,27.3,0,40.9,0
	c24.6,0,40,13.4,39.1,35.8c0,21.5-15.5,35.8-40,35.8c-13.6,0-27.3,0-41.9,0h-40c-10,0-20,0-30,0c-1.8,0-2.7,0-4.5,0s-3.6,0-5.5,0
	c-4.5,0-10.9,0.9-16.4,5.4l-3.6,2.7l2.7,3.6c5.5,6.3,10.9,7.2,14.6,7.2c0.9,0,2.7,0,3.6,0c0.9,0,1.8,0,2.7,0l0,0h1.8
	c39.1,0,77.3,0,116.5,0c33.7,0,59.1-24.1,60.1-53.6C649.4,343.3,643.9,329.9,633.9,320.1z"/>
<path d="M666.7,197.6c-6.4-6.3-14.6-9.8-21.8-9.8c-17.3,0-33.7,16.1-33.7,33.1c-0.9,16.1,15.5,33.1,32.8,34h0.9
	c16.4,0,32.8-16.1,32.8-33.1C676.7,212.8,673.1,203.8,666.7,197.6z M643.9,250.3L643.9,250.3L643.9,250.3L643.9,250.3z M644.8,238.7
	c-12.7,0.9-19.1-7.2-19.1-17.9c0-9.8,7.3-17,18.2-17c10.9,0,16.4,7.2,18.2,16.1C661.2,231.6,655.8,237.8,644.8,238.7z"/>
<path d="M421.9,381.8c-6.4-6.3-14.6-9.8-21.8-9.8c-17.3,0-33.7,16.1-33.7,33.1c-0.9,16.1,15.5,33.1,32.8,34h0.9
	c16.4,0,32.8-16.1,32.8-33.1C432.8,397.9,429.2,388.9,421.9,381.8z M400.1,435.4L400.1,435.4L400.1,435.4L400.1,435.4z M400.1,422.9
	c-12.7,0.9-19.1-7.2-19.1-17.9c0-9.8,7.3-17,18.2-17s16.4,7.2,18.2,16.1C417.4,415.7,411,422.9,400.1,422.9z"/>
<path d="M259,325.4c-14.6,0-29.1,0-43.7,0c0-9.8,0-18.8,0-28.6c14.6,0,29.1,0,43.7,0c0-14.3,0-28.6,0-42.9c10,0,19.1,0,29.1,0
	c0,14.3,0,28.6,0,42.9c14.6,0,29.1,0,43.7,0c0,9.8,0,18.8,0,28.6c-14.6,0-29.1,0-43.7,0c0,14.3,0,28.6,0,42.9c-10,0-19.1,0-29.1,0
	C259,354,259,339.7,259,325.4z"/>
</svg>
