<?xml version="1.0" encoding="utf-8"?>
<!-- Generator: Adobe Illustrator 21.1.0, SVG Export Plug-In . SVG Version: 6.00 Build 0)  -->
<svg version="1.1" id="icon-port-in-activation" xmlns="http://www.w3.org/2000/svg" xmlns:xlink="http://www.w3.org/1999/xlink"
	 x="0px" y="0px" width="677.6px" height="768px" viewBox="0 0 677.6 768" enable-background="new 0 0 677.6 768"
	 xml:space="preserve">
<g>
	<path d="M547,418.1c-6.1,0-11.7,0-17.9,0v299c-3.6,18.8-19.7,33.1-39.3,33.1h-304c-22.4,0-40.2-18.8-40.2-42V60
		c0-23.2,17.9-42,40.2-42h303.1c22.4,0,40.2,18.8,40.2,42v140.1h0.1c5.6,0,11.9,0,17.8,0V60c0-33.1-25.9-59.9-58.1-59.9H185.8
		c-32.2,0-58.1,26.8-58.1,59.9v648.2c0,33.1,25.9,59.9,58.1,59.9h304l0,0c32.2,0,58.1-26.8,58.1-59.9l-0.9-8.9V418.1L547,418.1z"/>
</g>
<g>
	<path d="M136.6,616.1h402.3V634H136.6V616.1z"/>
</g>
<g>
	<path d="M136.6,94h402.3v17.9H136.6V94z"/>
</g>
<g>
	<g>
		<path d="M357.5,77.9h-38.4c-12.5,0-21.5-8-21.5-19.7s8.9-19.7,21.5-19.7h38.4c12.5,0,21.5,8,21.5,19.7S370,77.9,357.5,77.9z
			 M319,56.4c-1.8,0-3.6,0.9-3.6,1.8s1.8,1.8,3.6,1.8h38.4c1.8,0,3.6-0.9,3.6-1.8s-1.8-1.8-3.6-1.8H319z"/>
	</g>
</g>
<g>
	<g>
		<g>
			<path d="M447.8,400.6c8-7.2,16.1-4.5,23.2-4.5h110c26.8,0,42.9-16.1,43.8-40.2c0-24.1-16.1-40.2-42.9-40.2h-127
				c-34,0-55.4-19.7-55.4-50.1c0-29.5,21.5-49.2,55.4-49.2h111.8c6.3,0,12.5-0.9,19.7,4.5c-7.2,6.3-14.3,4.5-20.6,4.5h-110
				c-28.6,0-46.5,15.2-46.5,39.3c-0.9,25,17.9,41.1,46.5,41.1H581c32.2,0,55.4,21.5,55.4,50.1c0,26.8-24.1,49.2-54.5,49.2H465.7
				C459.4,406,453.1,407.8,447.8,400.6L447.8,400.6z"/>
		</g>
		<g>
			<path d="M458.5,410.5c-4.5,0-9.8-1.8-14.3-7.2l-2.7-3.6l2.7-2.7c8-7.2,15.2-6.3,22.4-6.3H581c24.1,0,38.4-13.4,39.3-35.8
				c0-21.5-14.3-35.8-38.4-35.8h-127c-36.7,0-59.9-21.5-59.9-54.5c0-32.2,24.1-53.6,59.9-53.6h114.4c6.3,0,12.5,0,19.7,5.4l4.5,3.6
				l-4.5,3.6c-7.2,6.3-14.3,6.3-20.6,5.4H455.8c-25.9,0-42,13.4-42,34.9c0,9.8,2.7,18.8,8.9,25c7.2,8,19.7,11.6,33.1,11.6H581
				c34,0,59.9,23.2,59.9,54.5c0,29.5-26.8,53.6-59,53.6H464.8C463,410.5,460.3,410.5,458.5,410.5L458.5,410.5z M454.9,401.5
				c1.8,0.9,4.5,0,8,0h118.9c27.7,0,50.1-19.7,50.1-44.7c0-26.8-21.5-45.6-51-45.6H455.8c-16.1,0-30.4-5.4-39.3-14.3
				c-8-8.9-11.6-19.7-11.6-32.2c0-26.8,19.7-43.8,51-43.8H455c-31.3,0-51,17.9-51,44.7c0,27.7,19.7,45.6,51,45.6h127
				c28.6,0,47.4,17.9,47.4,44.7c-0.9,26.8-19.7,44.7-48.3,44.7H465.7C462.1,399.7,458.5,399.7,454.9,401.5z M565.8,220.9h8.9H565.8z
				"/>
		</g>
	</g>
</g>
<g>
	<path d="M346.7,730.5c-21.5,0-39-17.5-39-39s17.5-39,39-39s39,17.5,39,39S368.3,730.5,346.7,730.5z M346.7,668.5
		c-12.7,0-23,10.3-23,23s10.3,23,23,23c12.7,0,23-10.3,23-23S359.4,668.5,346.7,668.5z"/>
</g>
<g>
	<path d="M395,439.3c-21.5,0-39-17.5-39-39s17.5-39,39-39s39,17.5,39,39S416.5,439.3,395,439.3z M395,377.3c-12.7,0-23,10.3-23,23
		s10.3,23,23,23c12.7,0,23-10.3,23-23S407.7,377.3,395,377.3z"/>
</g>
<g>
	<g>
		<path d="M638.3,259.3c-21.5,0-39-17.5-39-39s17.5-39,39-39s39,17.5,39,39S659.8,259.3,638.3,259.3z M638.3,197.3
			c-12.7,0-23,10.3-23,23s10.3,23,23,23c12.7,0,23-10.3,23-23S650.9,197.3,638.3,197.3z"/>
	</g>
</g>
<g>
	<path d="M241.2,78.3c-11.1,0-20.1-9-20.1-20.1s9-20.1,20.1-20.1c11.1,0,20.1,9,20.1,20.1S252.3,78.3,241.2,78.3z M241.2,54.1
		c-2.2,0-4.1,1.8-4.1,4.1s1.8,4.1,4.1,4.1c2.3,0,4.1-1.8,4.1-4.1S243.5,54.1,241.2,54.1z"/>
</g>
</svg>
