<?xml version="1.0" encoding="utf-8"?>
<!-- Generator: Adobe Illustrator 21.1.0, SVG Export Plug-In . SVG Version: 6.00 Build 0)  -->
<svg version="1.1" id="icon-port-in-activation" xmlns="http://www.w3.org/2000/svg" xmlns:xlink="http://www.w3.org/1999/xlink"
	 x="0px" y="0px" width="549.6px" height="768px" viewBox="0 0 549.6 768" enable-background="new 0 0 549.6 768"
	 xml:space="preserve">
<g>
	<path d="M419.3,418c-6.1,0-11.7,0-17.9,0v299c-3.6,18.8-19.7,33.1-39.3,33.1h-304c-22.4,0-40.2-18.8-40.2-42V59.9
		c0-23.2,17.9-42,40.2-42h303.1c22.4,0,40.2,18.8,40.2,42V200c0,0,0.1,0,0.1,0c5.6,0,11.9,0,17.8,0V59.9c0-33.1-25.9-59.9-58.1-59.9
		H58.1C25.9,0,0,26.8,0,59.9v648.2C0,741.2,25.9,768,58.1,768h304v0c32.2,0,58.1-26.8,58.1-59.9l-0.9-8.9V418z"/>
</g>
<g>
	<path d="M8.9,616h402.3v17.9H8.9V616z"/>
</g>
<g>
	<path d="M8.9,93.9h402.3v17.9H8.9V93.9z"/>
</g>
<g>
	<g>
		<path d="M229.8,77.8h-38.4c-12.5,0-21.5-8-21.5-19.7s8.9-19.7,21.5-19.7h38.4c12.5,0,21.5,8,21.5,19.7S242.3,77.8,229.8,77.8z
			 M191.3,56.3c-1.8,0-3.6,0.9-3.6,1.8s1.8,1.8,3.6,1.8h38.4c1.8,0,3.6-0.9,3.6-1.8s-1.8-1.8-3.6-1.8H191.3z"/>
	</g>
</g>
<g>
</g>
<g>
	<g>
		<g>
			<path d="M320.1,400.5c8-7.2,16.1-4.5,23.2-4.5h110c26.8,0,42.9-16.1,43.8-40.2c0-24.1-16.1-40.2-42.9-40.2h-127
				c-34,0-55.4-19.7-55.4-50.1c0-29.5,21.5-49.2,55.4-49.2H439c6.3,0,12.5-0.9,19.7,4.5c-7.2,6.3-14.3,4.5-20.6,4.5h-110
				c-28.6,0-46.5,15.2-46.5,39.3c-0.9,25,17.9,41.1,46.5,41.1h125.2c32.2,0,55.4,21.5,55.4,50.1c0,26.8-24.1,49.2-54.5,49.2H338
				C331.7,405.9,325.4,407.7,320.1,400.5L320.1,400.5z"/>
		</g>
		<g>
			<path d="M330.8,410.4c-4.5,0-9.8-1.8-14.3-7.2l-2.7-3.6l2.7-2.7c8-7.2,15.2-6.3,22.4-6.3h114.4c24.1,0,38.4-13.4,39.3-35.8
				c0-21.5-14.3-35.8-38.4-35.8h-127c-36.7,0-59.9-21.5-59.9-54.5c0-32.2,24.1-53.6,59.9-53.6h114.4c6.3,0,12.5,0,19.7,5.4l4.5,3.6
				l-4.5,3.6c-7.2,6.3-14.3,6.3-20.6,5.4H328.1c-25.9,0-42,13.4-42,34.9c0,9.8,2.7,18.8,8.9,25c7.2,8,19.7,11.6,33.1,11.6h125.2
				c34,0,59.9,23.2,59.9,54.5c0,29.5-26.8,53.6-59,53.6H337.1C335.3,410.4,332.6,410.4,330.8,410.4L330.8,410.4z M327.2,401.4
				c1.8,0.9,4.5,0,8,0h118.9c27.7,0,50.1-19.7,50.1-44.7c0-26.8-21.5-45.6-51-45.6H328.1c-16.1,0-30.4-5.4-39.3-14.3
				c-8-8.9-11.6-19.7-11.6-32.2c0-26.8,19.7-43.8,51-43.8h-0.9c-31.3,0-51,17.9-51,44.7c0,27.7,19.7,45.6,51,45.6h127
				c28.6,0,47.4,17.9,47.4,44.7c-0.9,26.8-19.7,44.7-48.3,44.7H338C334.4,399.6,330.8,399.6,327.2,401.4z M438.1,220.8h8.9H438.1z"
				/>
		</g>
	</g>
	<g>
	</g>
</g>
<g>
	<path d="M219,730.4c-21.5,0-39-17.5-39-39s17.5-39,39-39s39,17.5,39,39S240.6,730.4,219,730.4z M219,668.4c-12.7,0-23,10.3-23,23
		s10.3,23,23,23s23-10.3,23-23S231.7,668.4,219,668.4z"/>
</g>
<g>
	<path d="M267.3,439.2c-21.5,0-39-17.5-39-39c0-21.5,17.5-39,39-39s39,17.5,39,39C306.3,421.7,288.8,439.2,267.3,439.2z
		 M267.3,377.2c-12.7,0-23,10.3-23,23c0,12.7,10.3,23,23,23c12.7,0,23-10.3,23-23C290.3,387.5,280,377.2,267.3,377.2z"/>
</g>
<g>
	<g>
		<path d="M510.6,259.2c-21.5,0-39-17.5-39-39s17.5-39,39-39s39,17.5,39,39S532.1,259.2,510.6,259.2z M510.6,197.2
			c-12.7,0-23,10.3-23,23s10.3,23,23,23s23-10.3,23-23S523.2,197.2,510.6,197.2z"/>
	</g>
</g>
<g>
	<path d="M113.5,78.2c-11.1,0-20.1-9-20.1-20.1s9-20.1,20.1-20.1s20.1,9,20.1,20.1S124.6,78.2,113.5,78.2z M113.5,54
		c-2.2,0-4.1,1.8-4.1,4.1s1.8,4.1,4.1,4.1s4.1-1.8,4.1-4.1S115.8,54,113.5,54z"/>
</g>
</svg>
