<?xml version="1.0" encoding="utf-8"?>
<!-- Generator: Adobe Illustrator 21.1.0, SVG Export Plug-In . SVG Version: 6.00 Build 0)  -->
<svg version="1.1" id="Слой_1" xmlns="http://www.w3.org/2000/svg" xmlns:xlink="http://www.w3.org/1999/xlink" x="0px" y="0px"
	 width="677.6px" height="768px" viewBox="0 0 677.6 768" enable-background="new 0 0 677.6 768" xml:space="preserve">
<path d="M464.2,431.8c22.4,16.1,49.3,24.1,78,24.1c36.8,0,70.8-14.3,95.9-39.3c26-25.9,39.4-59.9,39.4-95.7
	c0-36.7-14.3-70.6-39.4-95.7c-26-25.9-60.1-39.3-95.9-39.3c-26,0-51.1,7.2-72.6,20.6c-11.7,7.2-22.4,17-31.4,26.8l-2.7,2.7
	l-27.8-15.2l0.9,97.5l84.3-50.1L457,248.5l3.6-4.5c20.6-22.4,49.3-34,79.8-34c61,0,110.3,49.2,110.3,110s-49.3,110-110.3,110
	c-44.8,0-83.4-25.9-101.3-66.2l-23.3,8.9C427.5,397,443.6,417.5,464.2,431.8z"/>
<path d="M346.8,733.1c-22.4,0-41.2-18.8-41.2-41.1s18.8-41.1,41.2-41.1c22.4,0,41.2,18.8,41.2,41.1S369.2,733.1,346.8,733.1z
	 M346.8,668.8c-12.6,0-23.3,10.7-23.3,23.2c0,12.5,10.8,23.2,23.3,23.2s23.3-10.7,23.3-23.2C370.1,679.5,359.3,668.8,346.8,668.8z"
	/>
<path d="M357.5,77.8H319c-11.7,0-21.5-8.9-21.5-19.7s9.9-19.7,21.5-19.7h38.6c11.7,0,21.5,8.9,21.5,19.7S369.2,77.8,357.5,77.8z
	 M319,57.2c-2.7,0-3.6,1.8-3.6,1.8s0.9,1.8,3.6,1.8h38.6c2.7,0,3.6-1.8,3.6-1.8s-0.9-1.8-3.6-1.8H319z"/>
<path d="M241.9,77.8c-10.8,0-19.7-8.9-19.7-19.7s9-19.7,19.7-19.7c10.8,0,19.7,8.9,19.7,19.7S252.6,77.8,241.9,77.8z M241.9,57.2
	c-0.9,0-1.8,0.9-1.8,1.8c0,1.8,3.6,1.8,3.6,0S242.8,57.2,241.9,57.2z"/>
<path d="M543.1,474.7c-4.5,0-8.1,0-11.7-0.9v147.5H145.9V117.1h385.5v42c3.6,0,8.1-0.9,11.7-0.9c1.8,0,3.6,0,6.3,0V59.9
	c0-33.1-26-59.9-58.3-59.9H186.3C154,0,128,26.8,128,59.9v648.2c0,33.1,26,59.9,58.3,59.9h303.9c32.3,0,58.3-26.8,58.3-59.9V473.9
	C546.7,474.7,544.9,474.7,543.1,474.7z M145,60.8c0-23.2,17.9-42,40.3-42h303.9c22.4,0,40.3,18.8,40.3,42v38.4H144.1V60.8H145z
	 M530.6,709c0,23.2-17.9,42-40.3,42H186.3c-22.4,0-40.3-18.8-40.3-42v-69.7h385.5L530.6,709L530.6,709z"/>
</svg>
