<?xml version="1.0" encoding="utf-8"?>
<!-- Generator: Adobe Illustrator 21.1.0, SVG Export Plug-In . SVG Version: 6.00 Build 0)  -->
<svg version="1.1" id="Слой_1" xmlns="http://www.w3.org/2000/svg" xmlns:xlink="http://www.w3.org/1999/xlink" x="0px" y="0px"
	 viewBox="0 0 12.2 11.7" enable-background="new 0 0 12.2 11.7" xml:space="preserve">
<title>account-maintenance</title>
<desc>Created with Sketch.</desc>
<g id="Page-1">
	<g id="account-maintenance">
		<path id="Shape_42_" fill="#3598D4" d="M8.1,5.3C8.1,5,7.7,5.1,7.5,5C6.8,4.9,6.7,4.5,7.1,4c0.1-0.2,0.2-0.3,0.3-0.5
			C7.3,3.1,7,2.9,6.8,2.7c-0.3-0.4-0.5-0.4-0.9,0C5.7,2.8,5.6,3.1,5.3,3C4.9,2.8,5,2.5,4.9,2.3c0-0.2,0-0.5-0.2-0.6
			c-0.4-0.1-0.8-0.1-1.2,0C3.2,1.8,3.2,2.2,3.2,2.4S3.1,2.8,2.9,2.9C2.6,3,2.5,2.8,2.3,2.7S2,2.3,1.8,2.4C1.4,2.6,1.1,3,0.8,3.3
			C0.6,3.6,0.9,3.7,1,3.9c0.4,0.6,0.3,0.9-0.4,1C0.1,5-0.1,5.2,0,5.7c0,0.5-0.2,1,0.6,1c0.7,0,0.8,0.5,0.4,1
			C0.6,8.3,0.6,8.3,1.4,9.1C1.8,9.5,2,9.2,2.2,9c0.2-0.1,0.3-0.4,0.6-0.2c0.3,0.1,0.3,0.3,0.3,0.6c0,0.2,0,0.6,0.2,0.7
			c0.4,0.1,0.8,0.1,1.2,0C4.8,10,4.7,9.6,4.8,9.4c0-0.2,0.1-0.4,0.4-0.5C5.5,8.8,5.6,9,5.7,9.1C5.9,9.2,6,9.5,6.3,9.4
			c0.4-0.2,0.7-0.6,1-1C7.5,8.1,7.2,8,7.1,7.8c-0.4-0.6-0.3-0.9,0.4-1c0.2,0,0.4,0,0.5-0.2C8.2,6.3,8.1,5.8,8.1,5.3z M4,7.7
			c-0.9,0-1.6-0.8-1.6-1.8S3.1,4.2,4,4.2S5.6,5,5.6,5.9C5.7,6.9,4.9,7.7,4,7.7z"/>
		<path id="Shape_43_" fill="#3598D4" d="M11.7,8.8c-0.7-0.1-0.8-0.2-0.5-0.9c0.2-0.5-0.1-0.6-0.4-0.8c-0.4-0.3-0.5,0.1-0.6,0.2
			c-0.4,0.5-0.5,0.5-0.9,0C9.2,7.1,9.1,6.7,8.7,7C8.4,7.2,8,7.3,8.2,7.8c0.3,0.7,0.2,0.8-0.5,0.9C7.3,8.8,7.2,9,7.2,9.3
			s0,0.6,0.5,0.6c0.7,0.1,0.8,0.2,0.5,0.8c-0.2,0.4,0,0.6,0.3,0.8c0.4,0.3,0.5,0,0.7-0.2c0.4-0.5,0.5-0.5,0.9,0
			c0.1,0.1,0.2,0.3,0.4,0.4c0.5,0,0.8-0.5,0.6-0.9c-0.2-0.7-0.2-0.8,0.5-0.9c0.4-0.1,0.5-0.2,0.5-0.6C12.2,9.1,12.2,8.9,11.7,8.8z
			 M9.8,10.3C9.4,10.3,9,9.9,9,9.5C9,9,9.3,8.6,9.8,8.6c0.4,0,0.8,0.4,0.8,0.8C10.5,9.9,10.2,10.2,9.8,10.3z"/>
		<path id="Shape_44_" fill="#3598D4" d="M12.2,2.5c0-0.3,0.1-0.5-0.3-0.6c-0.8-0.2-0.8-0.2-0.6-1.1c0-0.1,0-0.1,0.1-0.2
			c0-0.2-0.2-0.4-0.6-0.6c-0.2-0.1-0.3,0-0.5,0.2c-0.5,0.6-0.5,0.6-1.1,0C9.1,0.1,9-0.1,8.8,0C8.3,0.1,8.1,0.5,8.3,1
			c0.2,0.6,0.1,0.7-0.4,0.8C7.5,1.8,7.4,2,7.4,2.4S7.5,3,7.9,3.1c0.6,0.1,0.7,0.2,0.4,0.8c0,0.1,0,0.1-0.1,0.2
			C8,4.6,8.4,4.6,8.7,4.8s0.4,0.1,0.5-0.1C9.7,4,9.7,4,10.3,4.7c0.1,0.2,0.3,0.4,0.5,0.2c0.2-0.2,0.6-0.3,0.5-0.8
			c-0.3-0.8-0.3-0.8,0.5-1C12.2,3,12.2,2.8,12.2,2.5z M9.7,3.4C9.3,3.4,8.9,3,8.9,2.5s0.4-0.8,0.8-0.8c0.5,0,0.8,0.4,0.8,0.9
			C10.5,3,10.1,3.4,9.7,3.4z"/>
	</g>
</g>
</svg>
