<?xml version="1.0" encoding="utf-8"?>
<!-- Generator: Adobe Illustrator 21.1.0, SVG Export Plug-In . SVG Version: 6.00 Build 0)  -->
<svg version="1.1" id="Слой_1" xmlns="http://www.w3.org/2000/svg" xmlns:xlink="http://www.w3.org/1999/xlink" x="0px" y="0px"
	 viewBox="0 0 266.1 265.7" enable-background="new 0 0 266.1 265.7" xml:space="preserve">
<g>
	<g>
		<path d="M134,0c-4.5,0-9.9,0-14.4,0.9C80.1,5.4,46.9,25,24.4,56.3C2,86.7-5.2,125.1,3.7,162.7c8.1,37.6,29.6,66.2,63.8,85.8
			c0-6.3,0-12.5,0-18.8c0-1.8,0-1.8-2.7-3.6c-35.9-27.7-52.1-65.3-46.7-110c7.2-55.4,56.6-98.3,114-98.3c1.8,0,3.6,0,6.3,0
			c60.2,2.7,106.9,51,109.6,110c1.8,48.3-27.8,94.8-72.7,111.8h-0.9c-1.8,0.9-4.5,1.8-7.2,1.8s-5.4-0.9-8.1-3.6
			c-3.6-3.6-3.6-8-3.6-10.7c0-22.4,0-46.5,0-75.1l0,0v-0.9c0-3.6,0.9-4.5,4.5-3.6c4.5,0,9,0,13.5,0c1.8,0,3.6,0,4.5-1.8
			s-0.9-2.7-1.8-4.5c-12.6-12.5-26-25.9-38.6-38.4c-2.7-2.7-5.4-3.6-8.1-0.9c-13.5,13.4-26.9,26.8-40.4,40.2
			c-0.9,0.9-1.8,2.7-0.9,3.6c0.9,1.8,1.8,1.8,3.6,1.8c4.5,0,8.1,0,12.6,0s6.3,0.9,5.4,5.4c0,0.9,0,1.8,0,1.8l0,0l0,0
			c0,12.5,0,25.9,0,38.4v30.4c0,13.4-1.8,34,2.7,37.6c6.3,5.4,13.5,4.5,20.7,4.5c4.5,0,9,0,13.5-0.9c70.9-8,119.4-63.5,119.4-134.1
			C266.9,59.9,205.8,0,134,0z"/>
	</g>
</g>
</svg>
