<?xml version="1.0" encoding="utf-8"?>
<!-- Generator: Adobe Illustrator 21.1.0, SVG Export Plug-In . SVG Version: 6.00 Build 0)  -->
<svg version="1.1" id="Слой_1" xmlns="http://www.w3.org/2000/svg" xmlns:xlink="http://www.w3.org/1999/xlink" x="0px" y="0px"
	 viewBox="0 0 34.3 30" enable-background="new 0 0 34.3 30" xml:space="preserve">
<title>account-maintenance</title>
<desc>Created with Sketch.</desc>
<g id="Page-1">
	<g id="account-maintenance">
		<g id="Group_1_" transform="translate(21.000000, 26.000000)">
			<path id="Shape_4_" fill="#3598D4" d="M-3-21.5c-0.3-0.4-0.5-0.7-0.7-1c-0.1-0.1-0.2-0.4-0.5-0.2c-0.1,0.1-0.3-0.1-0.2-0.2
				c0.4-0.6-0.3-0.8-0.5-1.2c0,0,0-0.1,0-0.2c1-0.2,2-0.3,3.1-0.5C-2.2-23.7-2.6-22.7-3-21.5z"/>
			<path id="Shape_5_" fill="#3598D4" d="M7.9-10.1c0.7,0.9,1.4,1.7,2.2,2.5C9-7.4,8-7.1,7-6.9C7.2-7.9,7.5-8.9,7.9-10.1z"/>
			<path id="Shape_6_" fill="#3598D4" d="M12.5-13.3c0,0.1-0.1,0.2-0.2,0.2c-0.2,0-0.2-0.1-0.2-0.3c0-0.1,0.1-0.2,0.2-0.2
				C12.4-13.6,12.5-13.5,12.5-13.3z"/>
			<path id="Shape_7_" fill="#3598D4" d="M12.1-12.5c0,0.1-0.1,0.2-0.3,0.2c-0.1,0-0.2-0.1-0.2-0.3c0-0.1,0.1-0.3,0.3-0.2
				C12.1-12.7,12.1-12.6,12.1-12.5z"/>
			<path id="Shape_8_" fill="#3598D4" d="M-6.4-17.7c0.1,0,0.2,0.1,0.2,0.2s-0.1,0.3-0.2,0.2c-0.1,0-0.2-0.1-0.2-0.2
				C-6.7-17.6-6.5-17.6-6.4-17.7z"/>
			<path id="Shape_9_" fill="#3598D4" d="M10.4-24.9c-0.1,0-0.2-0.1-0.2-0.2s0.1-0.2,0.2-0.2s0.2,0.1,0.2,0.2S10.5-24.9,10.4-24.9z"
				/>
			<path id="Shape_10_" fill="#3598D4" d="M13-17.4c-0.1,0-0.2-0.1-0.2-0.2s0.1-0.2,0.2-0.2s0.3,0.1,0.3,0.2S13.2-17.5,13-17.4z"/>
			<path id="Shape_11_" fill="#3598D4" d="M-4.8-22.5c0.2,0,0.2,0.1,0.2,0.2c0,0.1-0.1,0.2-0.2,0.2c-0.1,0-0.2-0.1-0.2-0.2
				C-5-22.4-4.9-22.4-4.8-22.5z"/>
			<path id="Shape_12_" fill="#3598D4" d="M11.6-23.7c0,0.1-0.1,0.2-0.2,0.2s-0.2-0.1-0.2-0.2c0-0.1,0.1-0.2,0.2-0.2
				S11.6-23.8,11.6-23.7z"/>
			<path id="Shape_13_" fill="#3598D4" d="M-6-14.8c-0.1,0-0.2-0.1-0.2-0.2s0.1-0.2,0.2-0.2c0.1,0,0.2,0.1,0.2,0.2S-5.9-14.8-6-14.8
				z"/>
			<path id="Shape_14_" fill="#3598D4" d="M-5-21.6c0,0.1-0.1,0.2-0.2,0.2s-0.2-0.1-0.2-0.2s0.1-0.2,0.2-0.2S-5.1-21.7-5-21.6z"/>
			<path id="Shape_15_" fill="#3598D4" d="M12.5-21c-0.1,0-0.2-0.1-0.2-0.2c0-0.1,0.1-0.2,0.2-0.2s0.2,0.1,0.2,0.2
				C12.7-21.1,12.6-21,12.5-21z"/>
			<path id="Shape_16_" fill="#3598D4" d="M12.9-15.7c-0.1,0-0.2-0.1-0.2-0.2c0-0.1,0.1-0.2,0.2-0.2s0.2,0.1,0.2,0.2
				C13.1-15.8,13-15.7,12.9-15.7z"/>
			<path id="Shape_17_" fill="#3598D4" d="M12.7-20.1c-0.1,0-0.2-0.1-0.2-0.2c0-0.1,0.1-0.2,0.2-0.2c0.1,0,0.2,0.1,0.2,0.2
				C12.9-20.2,12.9-20.2,12.7-20.1z"/>
			<path id="Shape_18_" fill="#3598D4" d="M13.1-19.5c0,0.1-0.1,0.2-0.2,0.2s-0.2-0.1-0.2-0.2s0.1-0.2,0.2-0.2S13.1-19.6,13.1-19.5z
				"/>
			<path id="Shape_19_" fill="#3598D4" d="M-5.7-14c-0.1,0-0.2-0.1-0.2-0.2c0-0.1,0.1-0.2,0.2-0.2s0.2,0.1,0.2,0.2
				C-5.5-14.1-5.6-14.1-5.7-14z"/>
			<path id="Shape_20_" fill="#3598D4" d="M-6-15.8c0,0.1,0,0.2-0.2,0.2c-0.1,0-0.2-0.1-0.2-0.2c0-0.1,0-0.2,0.1-0.2
				C-6.1-16.1-6-16-6-15.8z"/>
			<path id="Shape_21_" fill="#3598D4" d="M10-25.8c0,0.1-0.1,0.2-0.2,0.2c-0.1,0-0.2-0.1-0.2-0.2c0-0.1,0.1-0.2,0.2-0.2
				C9.9-26,10-25.9,10-25.8z"/>
			<path id="Shape_22_" fill="#3598D4" d="M-5.1-13.5c0,0.2-0.1,0.3-0.2,0.2c-0.1,0-0.2-0.1-0.2-0.3c0-0.1,0.1-0.2,0.2-0.2
				C-5.2-13.7-5.2-13.6-5.1-13.5z"/>
			<path id="Shape_23_" fill="#3598D4" d="M12-22.9c0,0.1-0.1,0.2-0.2,0.2c-0.1,0-0.2-0.1-0.2-0.2s0-0.2,0.1-0.3
				C11.9-23.1,12-23,12-22.9z"/>
			<path id="Shape_24_" fill="#3598D4" d="M-4.9-12.6c-0.1,0-0.2-0.1-0.2-0.3c0-0.1,0.1-0.2,0.2-0.2c0.1,0,0.2,0.1,0.2,0.2
				C-4.7-12.7-4.8-12.6-4.9-12.6z"/>
			<path id="Shape_25_" fill="#3598D4" d="M13-18.8c0.1,0,0.2,0.1,0.2,0.2s-0.1,0.2-0.2,0.2s-0.2-0.1-0.2-0.2S12.9-18.7,13-18.8z"/>
			<path id="Shape_26_" fill="#3598D4" d="M-6.1-18.3c0,0.1-0.1,0.2-0.2,0.2s-0.2-0.1-0.2-0.2c0-0.1,0.1-0.2,0.2-0.2
				S-6.1-18.5-6.1-18.3z"/>
			<path id="Shape_27_" fill="#3598D4" d="M9.4-9.3c0.1,0,0.2,0.1,0.2,0.3c0,0.1-0.1,0.2-0.2,0.2S9.2-8.9,9.3-9
				C9.2-9.2,9.3-9.3,9.4-9.3z"/>
			<path id="Shape_28_" fill="#3598D4" d="M10.5-10.6c0.2,0,0.2,0.1,0.2,0.2c0,0.1-0.1,0.2-0.2,0.2s-0.2-0.1-0.2-0.2
				C10.3-10.5,10.4-10.5,10.5-10.6z"/>
			<path id="Shape_29_" fill="#3598D4" d="M-6-19.2c0,0.1-0.1,0.2-0.2,0.2s-0.2-0.1-0.2-0.2c0-0.1,0-0.2,0.2-0.3
				C-6.1-19.4-6-19.3-6-19.2z"/>
			<path id="Shape_30_" fill="#3598D4" d="M10.2-9.7c0,0.1-0.1,0.2-0.2,0.2S9.8-9.6,9.8-9.7c0-0.1,0.1-0.2,0.2-0.2
				S10.2-9.9,10.2-9.7z"/>
			<path id="Shape_31_" fill="#3598D4" d="M-5.6-20.6c-0.1,0-0.2-0.1-0.2-0.2c0-0.1,0.1-0.2,0.2-0.2s0.2,0.1,0.2,0.2
				C-5.5-20.7-5.5-20.6-5.6-20.6z"/>
			<path id="Shape_32_" fill="#3598D4" d="M13-16.6c-0.1,0-0.2-0.1-0.2-0.2c0-0.1,0.1-0.2,0.2-0.2s0.2,0.1,0.2,0.2
				C13.2-16.6,13.1-16.6,13-16.6z"/>
			<path id="Shape_33_" fill="#3598D4" d="M-4.6-12.2c0-0.1,0.1-0.2,0.2-0.2c0.1,0,0.2,0.1,0.2,0.2c0,0.1-0.1,0.2-0.2,0.2
				C-4.5-12-4.6-12.1-4.6-12.2z"/>
			<path id="Shape_34_" fill="#3598D4" d="M12.9-15c0,0.1-0.1,0.2-0.2,0.2c-0.1,0-0.2-0.1-0.2-0.2s0.1-0.2,0.2-0.2
				C12.9-15.2,12.9-15.1,12.9-15z"/>
			<path id="Shape_35_" fill="#3598D4" d="M-5.9-19.8c-0.1,0-0.2-0.1-0.2-0.2s0.1-0.2,0.2-0.2c0.1,0,0.2,0.1,0.2,0.2
				S-5.8-19.8-5.9-19.8z"/>
			<path id="Shape_36_" fill="#3598D4" d="M12.2-22.3c0.1,0,0.2,0.1,0.2,0.2s-0.1,0.2-0.2,0.2c-0.1,0-0.2-0.1-0.2-0.2
				S12.1-22.3,12.2-22.3z"/>
			<path id="Shape_37_" fill="#3598D4" d="M10.9-24.6c0.1,0,0.2,0,0.2,0.1s0,0.2-0.2,0.2c-0.1,0-0.2-0.1-0.2-0.1
				C10.7-24.5,10.8-24.6,10.9-24.6z"/>
			<path id="Shape_38_" fill="#3598D4" d="M11-11.2c0.1,0,0.2,0.1,0.2,0.1c0,0.1,0,0.2-0.2,0.2c-0.1,0-0.2-0.1-0.2-0.2
				C10.8-11.1,10.9-11.2,11-11.2z"/>
			<path id="Shape_39_" fill="#3598D4" d="M-6.1-16.6c0,0.1-0.1,0.2-0.2,0.2s-0.2-0.1-0.2-0.2s0-0.2,0.2-0.2
				C-6.2-16.8-6.1-16.8-6.1-16.6z"/>
			<path id="Shape_40_" fill="#3598D4" d="M12.5-14c-0.1,0-0.2-0.1-0.1-0.2c0-0.1,0.1-0.2,0.2-0.2s0.2,0.1,0.2,0.2
				C12.7-14,12.6-14,12.5-14z"/>
			<path id="Shape_41_" fill="#3598D4" d="M11.5-11.6c-0.1,0-0.2-0.1-0.2-0.2c0-0.1,0.1-0.2,0.2-0.2s0.2,0.1,0.2,0.2
				C11.7-11.6,11.6-11.6,11.5-11.6z"/>
			<path id="Shape_42_" fill="#3598D4" d="M4.7-18c0-0.3-0.4-0.2-0.6-0.3c-0.7-0.1-0.8-0.5-0.4-1c0.1-0.2,0.2-0.3,0.3-0.5
				c-0.1-0.4-0.4-0.6-0.6-0.8c-0.3-0.4-0.5-0.4-0.9,0c-0.2,0.1-0.3,0.4-0.6,0.3c-0.4-0.2-0.3-0.5-0.4-0.7c0-0.2,0-0.5-0.2-0.6
				c-0.4-0.1-0.8-0.1-1.2,0c-0.3,0.1-0.3,0.5-0.3,0.7c0,0.2-0.1,0.4-0.3,0.5c-0.3,0.1-0.4-0.1-0.6-0.2c-0.2-0.1-0.3-0.4-0.5-0.3
				c-0.4,0.2-0.7,0.6-1,0.9c-0.2,0.3,0.1,0.4,0.2,0.6c0.4,0.6,0.3,0.9-0.4,1c-0.5,0.1-0.7,0.3-0.6,0.8c0,0.5-0.2,1,0.6,1
				c0.7,0,0.8,0.5,0.4,1C-2.8-15-2.8-15-2-14.2c0.4,0.4,0.6,0.1,0.8-0.1c0.2-0.1,0.3-0.4,0.6-0.2c0.3,0.1,0.3,0.3,0.3,0.6
				c0,0.2,0,0.6,0.2,0.7c0.4,0.1,0.8,0.1,1.2,0c0.3-0.1,0.2-0.5,0.3-0.7c0-0.2,0.1-0.4,0.4-0.5c0.3-0.1,0.4,0.1,0.5,0.2
				c0.2,0.1,0.3,0.4,0.6,0.3c0.4-0.2,0.7-0.6,1-1c0.2-0.3-0.1-0.4-0.2-0.6c-0.4-0.6-0.3-0.9,0.4-1c0.2,0,0.4,0,0.5-0.2
				C4.8-17,4.7-17.5,4.7-18z M0.6-15.6c-0.9,0-1.6-0.8-1.6-1.8s0.7-1.7,1.6-1.7c0.9,0,1.6,0.8,1.6,1.7C2.3-16.4,1.5-15.6,0.6-15.6z"
				/>
			<path id="Shape_43_" fill="#3598D4" d="M8.3-14.5c-0.7-0.1-0.8-0.2-0.5-0.9C8-15.9,7.7-16,7.4-16.2C7-16.5,6.9-16.1,6.8-16
				c-0.4,0.5-0.5,0.5-0.9,0c-0.1-0.2-0.2-0.6-0.6-0.3C5-16.1,4.6-16,4.8-15.5c0.3,0.7,0.2,0.8-0.5,0.9c-0.4,0.1-0.5,0.3-0.5,0.6
				s0,0.6,0.5,0.6c0.7,0.1,0.8,0.2,0.5,0.8c-0.2,0.4,0,0.6,0.3,0.8c0.4,0.3,0.5,0,0.7-0.2c0.4-0.5,0.5-0.5,0.9,0
				c0.1,0.1,0.2,0.3,0.4,0.4c0.5,0,0.8-0.5,0.6-0.9c-0.2-0.7-0.2-0.8,0.5-0.9c0.4-0.1,0.5-0.2,0.5-0.6C8.8-14.2,8.8-14.4,8.3-14.5z
				 M6.4-13c-0.4,0-0.8-0.4-0.8-0.8c0-0.5,0.3-0.9,0.8-0.9c0.4,0,0.8,0.4,0.8,0.8C7.1-13.4,6.8-13.1,6.4-13z"/>
			<path id="Shape_44_" fill="#3598D4" d="M8.8-20.8c0-0.3,0.1-0.5-0.3-0.6c-0.8-0.2-0.8-0.2-0.6-1.1c0-0.1,0-0.1,0.1-0.2
				c0-0.2-0.2-0.4-0.6-0.6c-0.2-0.1-0.3,0-0.5,0.2c-0.5,0.6-0.5,0.6-1.1,0c-0.1-0.1-0.2-0.3-0.4-0.2c-0.5,0.1-0.7,0.5-0.5,1
				c0.2,0.6,0.1,0.7-0.4,0.8c-0.4,0-0.5,0.2-0.5,0.6s0.1,0.6,0.5,0.7c0.6,0.1,0.7,0.2,0.4,0.8c0,0.1,0,0.1-0.1,0.2
				c-0.2,0.5,0.2,0.5,0.5,0.7s0.4,0.1,0.5-0.1c0.5-0.7,0.5-0.7,1.1,0c0.1,0.2,0.3,0.4,0.5,0.2c0.2-0.2,0.6-0.3,0.5-0.8
				c-0.3-0.8-0.3-0.8,0.5-1C8.8-20.3,8.8-20.5,8.8-20.8z M6.3-19.9c-0.4,0-0.8-0.4-0.8-0.9s0.4-0.8,0.8-0.8c0.5,0,0.8,0.4,0.8,0.9
				C7.1-20.3,6.7-19.9,6.3-19.9z"/>
		</g>
		<path id="Shape_45_" fill="#3598D4" d="M21.8,20.7c-0.5-0.4-1-0.8-1.5-1.2s-1.1-0.7-1.7-1.1c0.7-0.6,1.2-1.4,1.6-2.1
			c-0.6-0.2-1.2-0.4-1.8-0.7c-1.1,1.9-3.2,3.3-5.6,3.3c-3.5,0-6.4-2.9-6.4-6.4s2.9-6.4,6.4-6.4c0.2,0,0.4,0,0.7,0
			c0.1-0.6,0.2-1.2,0.4-1.8c-0.1,0-0.2,0-0.3,0s-0.2,0-0.3,0c-0.1,0-0.3,0-0.4,0s-0.3,0-0.4,0s-0.2,0-0.3,0c-0.2,0-0.3,0-0.5,0.1
			c-0.1,0-0.2,0-0.3,0c-0.2,0-0.4,0.1-0.5,0.1s-0.1,0-0.2,0c-0.2,0.1-0.4,0.1-0.7,0.2l0,0c-1.1,0.4-2.1,1-3,1.8
			c-3.1,3-3.6,8.4,0,11.9c-0.6,0.3-1.1,0.7-1.7,1.1c-0.5,0.4-1,0.8-1.5,1.2c0,0,0,0,0,0.1C1,23.5-0.1,27.2,0,30c3,0,6.1,0,9.1,0
			c2.5,0,4.9,0,7.4,0c3,0,6.1,0,9.1,0C25.7,27.1,24.5,23.5,21.8,20.7L21.8,20.7z M23.6,28L23.6,28c-2.4,0.1-4.7,0.1-7.1,0.1
			c-2.5,0-4.9,0-7.4,0c-2.4,0-4.7,0-7.1,0V28c0.8-3.8,2.9-6.5,6.4-8.1c0.3-0.1,0.7,0,1.1,0.2c0.1,0.1,0.3,0.1,0.4,0.2l0,0
			c0.6,0.2,1.1,0.4,1.7,0.5h0.1c0.2,0,0.4,0.1,0.7,0.1c0.1,0,0.3,0,0.4,0c0.1,0,0.3,0,0.4,0c0.2,0,0.4,0,0.7-0.1H14
			c0.6-0.1,1.1-0.2,1.7-0.5l0,0c0.1-0.1,0.3-0.1,0.4-0.2c0.4-0.2,0.7-0.2,1.1-0.2C20.7,21.5,22.8,24.2,23.6,28z"/>
	</g>
</g>
</svg>
