<?xml version="1.0" encoding="utf-8"?>
<!-- Generator: Adobe Illustrator 21.1.0, SVG Export Plug-In . SVG Version: 6.00 Build 0)  -->
<svg version="1.1" id="Слой_1" xmlns="http://www.w3.org/2000/svg" xmlns:xlink="http://www.w3.org/1999/xlink" x="0px" y="0px"
	 viewBox="0 0 73.9 73.8" enable-background="new 0 0 73.9 73.8" xml:space="preserve">
<g>
	<g>
		<path fill="#827DBA" d="M0.1,26.1c0.2-1.2,0.3-2.3,0.6-3.5c2.1-11,10.8-19.8,21.8-22c1.2-0.2,2.4-0.4,3.7-0.6c1.3,0,2.7,0,4,0
			c0.2,0,0.4,0.1,0.6,0.1c1.4,0.2,2.8,0.4,4.1,0.7c11.7,2.9,20,12.6,21.2,24.7c0.7,6.7-0.9,12.8-4.7,18.4
			c-6.6,9.6-17.8,14-29.2,11.7c-10.7-2.2-19.6-11.2-21.6-22c-0.2-1.1-0.4-2.3-0.6-3.4C0.1,28.8,0.1,27.5,0.1,26.1z M51.4,27.7
			C51.3,15.1,40.8,4.8,28,4.9S4.9,15.5,4.9,28.3C5,41,15.5,51.4,28.2,51.4C41.2,51.3,51.5,40.8,51.4,27.7z"/>
		<path fill="#827DBA" d="M73.8,68c-2-1.9-3.9-3.9-5.9-5.8c-4.8-4.7-9.5-9.5-14.2-14.2c-0.1-0.1-0.3-0.3-0.4-0.3
			c-1.9,1.9-3.7,3.8-5.7,5.7c1.1,1,2.2,2.2,3.4,3.3c5.6,5.6,11.1,11.1,16.7,16.7c0.1,0.1,0.3,0.3,0.4,0.4h0.1c0.3-0.3,0.6-0.7,1-1
			c1.5-1.5,3.1-3,4.7-4.6C73.8,68.1,73.8,68,73.8,68z"/>
	</g>
</g>
</svg>
