<?xml version="1.0" encoding="utf-8"?>
<!-- Generator: Adobe Illustrator 21.1.0, SVG Export Plug-In . SVG Version: 6.00 Build 0)  -->
<svg version="1.1" id="Слой_1" xmlns="http://www.w3.org/2000/svg" xmlns:xlink="http://www.w3.org/1999/xlink" x="0px" y="0px"
	 width="677.6px" height="768px" viewBox="0 0 677.6 768" enable-background="new 0 0 677.6 768" xml:space="preserve">
<path d="M543.1,446.1c26,0,51.1-7.2,72.6-20.6c11.7-7.2,22.4-17,31.4-26.8l2.7-2.7l27.8,15.2l-1.8-97.5l-84.3,50.1l35.9,19.7
	l-3.6,4.5c-20.6,22.4-49.3,34-79.8,34c-41.2,0-78.9-23.2-98.6-59.9h-27.8c7.2,17,17,32.2,29.6,45.6
	C473.2,431.8,507.3,446.1,543.1,446.1z"/>
<path d="M541.3,210.1c42.1,0,80.7,24.1,99.5,62.6h27.8c-7.2-17.9-17-34-31.4-48.3c-26-25.9-60.1-39.3-95.9-39.3
	c-26,0-51.1,7.2-72.6,20.6c-11.7,7.2-22.4,17-31.4,26.8l-2.7,2.7l-27.8-15.2l1.8,97.5l84.3-50.1L457,247.7l3.6-4.5
	C482.1,222.6,510.8,210.1,541.3,210.1z"/>
<path d="M347.7,733.1c-22.4,0-41.2-18.8-41.2-41.1s18.8-41.1,41.2-41.1c22.4,0,41.2,18.8,41.2,41.1S370.1,733.1,347.7,733.1z
	 M347.7,668.8c-12.6,0-23.3,10.7-23.3,23.2c0,12.5,10.8,23.2,23.3,23.2c12.6,0,23.3-10.7,23.3-23.2
	C371,679.5,360.2,668.8,347.7,668.8z"/>
<path d="M358.4,77.8h-38.6c-11.7,0-21.5-8.9-21.5-19.7s9.9-19.7,21.5-19.7h38.6c11.7,0,21.5,8.9,21.5,19.7S370.1,77.8,358.4,77.8z
	 M319.9,57.2c-2.7,0-3.6,1.8-3.6,1.8s0.9,1.8,3.6,1.8h38.6c2.7,0,3.6-1.8,3.6-1.8s-0.9-1.8-3.6-1.8H319.9z"/>
<path d="M241.9,77.8c-10.8,0-19.7-8.9-19.7-19.7s9-19.7,19.7-19.7c10.8,0,19.7,8.9,19.7,19.7S252.6,77.8,241.9,77.8z M241.9,57.2
	c-0.9,0-1.8,0.9-1.8,1.8c0,1.8,3.6,1.8,3.6,0S242.8,57.2,241.9,57.2z"/>
<path d="M542.2,474.7c-3.6,0-7.2,0-10.8-0.9v147.5H145.9V117.1h385.5v42c3.6,0,7.2-0.9,10.8-0.9c2.7,0,5.4,0,7.2,0V59.9
	c0-33.1-26-59.9-58.3-59.9H186.3C154,0,128,26.8,128,59.9v648.2c0,33.1,26,59.9,58.3,59.9h303.9c32.3,0,58.3-26.8,58.3-59.9V473.9
	C546.7,474.7,544.9,474.7,542.2,474.7z M145.9,60.8c0-23.2,17.9-42,40.3-42h303.9c22.4,0,40.3,18.8,40.3,42v38.4H145.9V60.8z
	 M531.5,709c0,23.2-17.9,42-40.3,42H186.3c-22.4,0-40.3-18.8-40.3-42v-69.7h385.5V709z"/>
</svg>
