<?xml version="1.0" encoding="utf-8"?>
<!-- Generator: Adobe Illustrator 21.1.0, SVG Export Plug-In . SVG Version: 6.00 Build 0)  -->
<svg version="1.1" id="Слой_1" xmlns="http://www.w3.org/2000/svg" xmlns:xlink="http://www.w3.org/1999/xlink" x="0px" y="0px"
	 viewBox="0 0 385.1 144.3" style="enable-background:new 0 0 385.1 144.3;" xml:space="preserve">
<style type="text/css">
	.st0{fill:#FFFFFF;}
	.st1{fill:#E9188C;}
</style>
<path class="st0" d="M152.1,63c0.4,9.8,6.1,16.2,16,16.2c5.6,0,11.1-2.6,13.3-7.8h21.9c-4.3,16.5-19.5,23.7-35.5,23.7
	c-23.3,0-39.1-14-39.1-38c0-21.9,17.5-37.6,38.5-37.6c25.6,0,38.4,19.3,37.3,43.5H152.1z M181.1,49.9c-0.4-8-6.1-14.6-13.9-14.6
	c-8.3,0-13.8,5.9-15.1,14.6H181.1z"/>
<path class="st0" d="M251.7,36.7h-14.4v32.5c0,5.6,3.3,6.9,8.4,6.9c1.9,0,4-0.3,6.1-0.3V93c-4.3,0.1-8.5,0.7-12.8,0.7
	c-19.9,0-25-5.8-25-25.2V36.7H202V21.6h11.8V0h23.4v21.6h14.4V36.7z"/>
<path class="st0" d="M258.4,21.6h22.7v12.5h0.3c3.4-9.1,11.4-13.9,21.5-13.9c1.8,0,3.7,0.1,5.5,0.5v21.3c-3-0.8-5.8-1.4-8.9-1.4
	c-11.6,0-17.6,8-17.6,16.9V93h-23.4V21.6z"/>
<path class="st0" d="M344.7,19.5c22.2,0,37.7,16.4,37.7,37.8c0,21.5-15.5,37.7-37.7,37.7c-22.2,0-37.6-16.2-37.6-37.7
	C307.1,35.9,322.5,19.5,344.7,19.5 M344.7,77.2c10.9,0,14.3-10.7,14.3-19.8c0-9.1-3.4-20-14.3-20c-10.9,0-14.2,10.9-14.2,20
	C330.5,66.5,333.8,77.2,344.7,77.2"/>
<path class="st0" d="M98.4,19.7c-9.6,0-16.6,4-22.3,11.6c-3.9-8.7-11.8-11.6-20.8-11.6c-8.7,0-16.2,4.7-20.5,11.8h-0.3v-9.8H11.9v47
	c0,12.6,9.5,20.1,23.4,21.7V58.4c0-14.6,3.6-19.4,12-19.4c6.3,0,8.8,5.2,8.8,13.6v40.6h23.4v-35c0-11.6,1-19.3,11-19.3
	c6.1,0,9.8,4.5,9.8,12.2v42h23.4V50.5C123.6,36.9,121.1,19.7,98.4,19.7"/>
<path class="st0" d="M55.9,132.7v-24.1c-32.9-0.5-51.1-10-54.6-32C-4.2,97.1,6.1,131.8,55.9,132.7"/>
<rect x="125" y="116.3" class="st1" width="6.6" height="6.6"/>
<path class="st1" d="M140.9,102.8c5.4,0.1,8.6,3.7,9,10.2l1.7-0.3l-0.3-11.5h-26l-0.3,11.5l1.7,0.3c0.5-6.5,3.6-10.1,9-10.2v24.1
	c0,4.4-0.8,5.1-5.5,5.1v1.8h16V132c-4.7,0-5.5-0.8-5.5-5.1V102.8z"/>
<rect x="145.1" y="116.3" class="st1" width="6.6" height="6.6"/>
<rect x="164.8" y="116.3" class="st1" width="6.6" height="6.6"/>
<rect x="184.6" y="116.3" class="st1" width="6.6" height="6.6"/>
<path class="st1" d="M209.4,133.9l8.3-28.5v22.4c0,2.4-0.1,3.3-0.7,3.9c-0.4,0.4-1.4,0.7-2.5,0.7h-0.4v1.5h11.8v-1.5h-0.6
	c-1.1,0-2.1-0.3-2.5-0.7c-0.6-0.6-0.7-1.5-0.7-3.9v-19.2c0-2.5,0.1-3.3,0.7-3.9c0.5-0.4,1.4-0.7,2.5-0.7h0.6v-1.5h-9.1l-6.9,23.1
	l-6.7-23.1H194v1.5h0.8c2.5,0,3,0.6,3,3.7v18.2c0,2.9-0.1,4.1-0.6,5c-0.5,0.9-1.5,1.5-2.5,1.5H194v1.5h9.7v-1.5h-0.6
	c-1.2,0-2.2-0.5-2.8-1.5c-0.6-0.9-0.7-1.8-0.7-5v-20.6l8.3,28.5H209.4z"/>
<path class="st1" d="M235.8,113.1c1.7,0,3.2,1,4,2.8c0.8,1.6,1.1,3.9,1.1,7.2c0,6.7-1.7,10-5,10c-3.3,0-4.9-3.3-4.9-10.1
	c0-3.2,0.3-5.4,1.1-7.1C232.8,114.2,234.3,113.1,235.8,113.1 M236,111.5c-5.8,0-9.7,4.5-9.7,11.5c0,6.8,3.8,11.4,9.5,11.4
	c5.7,0,9.6-4.6,9.6-11.5C245.4,116.2,241.6,111.5,236,111.5"/>
<path class="st1" d="M258.2,113.4c3,0,4.6,3.2,4.6,9.4c0,6.5-1.6,9.9-4.7,9.9c-3.4,0-5.2-3.4-5.2-9.8c0-3.1,0.4-5.3,1.4-7
	C255.2,114.4,256.7,113.4,258.2,113.4 M253.3,102.1l-6.7,0.3v1.5h0.3c2,0,2.4,0.7,2.4,3.8v21.5c0,2.7-0.1,3.5-0.5,4.7h1.6
	c1.2-1.9,1.5-2.2,1.9-2.2c0.2,0,0.5,0.1,0.8,0.4c2.3,1.9,3.3,2.3,5.4,2.3c5.1,0,8.8-4.9,8.8-11.7c0-6.5-3.4-10.9-8.5-10.9
	c-2.6,0-4.6,1.2-5.6,3.5V102.1z"/>
<path class="st1" d="M273.7,102.2c-1.5,0-2.6,1.1-2.6,2.6c0,1.4,1.2,2.6,2.6,2.6c1.5,0,2.6-1.1,2.6-2.6
	C276.3,103.4,275.2,102.2,273.7,102.2 M276,111.9l-6.9,0.3v1.5h0.5c2,0,2.4,0.7,2.4,3.8v11.2c0,3.1-0.4,3.8-2.4,3.8h-0.8v1.5h10.3
	v-1.5h-0.8c-2,0-2.4-0.7-2.4-3.8V111.9z"/>
<path class="st1" d="M287.9,102.1l-6.9,0.3v1.5h0.5c2,0,2.4,0.7,2.4,3.8v20.9c0,3.2-0.4,3.8-2.4,3.8h-0.8v1.5h10.3v-1.5h-0.8
	c-2,0-2.4-0.7-2.4-3.8V102.1z"/>
<path class="st1" d="M297,121.3c0-4.9,1.7-8.1,4.3-8.1c2.6,0,4.2,3,4.1,8.1H297z M309.8,122.9c-0.2-7-3.6-11.4-8.8-11.4
	c-4.9,0-8.5,4.8-8.5,11.4c0,7.1,3.5,11.6,9,11.6c3.5,0,6-1.8,8-5.9l-1.4-0.8c-1.6,3.5-3.3,4.9-5.8,4.9c-3.7,0-5.3-2.9-5.4-9.8H309.8
	z"/>
<rect x="315.5" y="116.3" class="st1" width="6.6" height="6.6"/>
<path class="st1" d="M103,128.4l5.1-12.6c0.1-0.2,0.2-0.4,0.2-0.6s0.1-0.3,0.1-0.5c0-0.4-0.2-0.7-0.5-0.8c-0.3-0.2-0.8-0.3-1.3-0.3
	l-1.1-0.1l0-1.2c0.7,0,1.4,0.1,2.1,0.1c0.7,0,1.4,0,2.1,0c0.7,0,1.4,0,2.1,0c0.7,0,1.4-0.1,2.1-0.1l0,1.2l-1.2,0.1
	c-0.5,0-1.1,0.4-1.6,1.2c-0.5,0.8-1.2,2.1-2,4l-8.7,20.3c-0.7,1.6-1.5,2.8-2.4,3.8c-0.9,1-2.3,1.5-4.1,1.5c-0.4,0-0.8-0.1-1.2-0.2
	c-0.4-0.1-0.7-0.3-1-0.4l1-3.2l0.6,0c0.3,0.3,0.6,0.5,1,0.7c0.4,0.2,0.8,0.3,1.1,0.3h0.1c1.2-0.1,2.2-0.8,3-2.2
	c0.7-1.4,1.3-2.5,1.7-3.5l1-2.6l-7.2-17.5c-0.3-0.8-0.7-1.4-1-1.6c-0.3-0.3-0.8-0.4-1.2-0.5l-0.8-0.1l0-1.2c0.8,0,1.7,0.1,2.5,0.1
	c0.8,0,1.7,0,2.5,0c0.8,0,1.7,0,2.5,0c0.8,0,1.7-0.1,2.5-0.1l0,1.2l-1.6,0.1c-0.4,0-0.7,0.1-1,0.3c-0.3,0.1-0.4,0.4-0.4,0.9
	c0,0.2,0,0.4,0.1,0.7c0.1,0.3,0.2,0.6,0.3,1L103,128.4z"/>
<path class="st1" d="M81.9,113.4c3,0,4.6,3.2,4.6,9.4c0,6.5-1.6,9.9-4.7,9.9c-3.4,0-5.2-3.4-5.2-9.8c0-3.1,0.4-5.3,1.4-7
	C78.9,114.4,80.4,113.4,81.9,113.4 M77,102.1l-6.7,0.3v1.5h0.3c2,0,2.4,0.7,2.4,3.8v21.5c0,2.7-0.1,3.5-0.5,4.7h1.6
	c1.2-1.9,1.5-2.2,1.9-2.2c0.2,0,4.1,2.7,6.2,2.7c5.1,0,8.8-4.9,8.8-11.7c0-6.5-3.4-10.9-8.5-10.9c-2.6,0-4.6,1.2-5.6,3.5V102.1z"/>
<polygon class="st0" points="372.8,21.2 378,21.2 378,21.7 375.7,21.7 375.7,27.7 375.1,27.7 375.1,21.7 372.8,21.7 "/>
<polygon class="st0" points="378.8,21.2 379.7,21.2 381.9,26.9 384.2,21.2 385.1,21.2 385.1,27.7 384.5,27.7 384.5,22.1 384.4,22.1 
	382.2,27.7 381.6,27.7 379.4,22.1 379.4,22.1 379.4,27.7 378.8,27.7 "/>
</svg>
