<svg id="Слой_1" xmlns="http://www.w3.org/2000/svg" viewBox="0 0 385.1 144.3">
    <style>
        .st0{fill:#fff}.st1{fill:#e9188c}
    </style>
    <path class="st0" d="M152.1 63c.4 9.8 6.1 16.2 16 16.2 5.6 0 11.1-2.6 13.3-7.8h21.9c-4.3 16.5-19.5 23.7-35.5 23.7-23.3 0-39.1-14-39.1-38 0-21.9 17.5-37.6 38.5-37.6 25.6 0 38.4 19.3 37.3 43.5h-52.4zm29-13.1c-.4-8-6.1-14.6-13.9-14.6-8.3 0-13.8 5.9-15.1 14.6h29z"/>
    <path class="st0" d="M251.7 36.7h-14.4v32.5c0 5.6 3.3 6.9 8.4 6.9 1.9 0 4-.3 6.1-.3V93c-4.3.1-8.5.7-12.8.7-19.9 0-25-5.8-25-25.2V36.7h-12V21.6h11.8V0h23.4v21.6h14.4v15.1z"/>
    <path class="st0" d="M258.4 21.6h22.7v12.5h.3c3.4-9.1 11.4-13.9 21.5-13.9 1.8 0 3.7.1 5.5.5V42c-3-.8-5.8-1.4-8.9-1.4-11.6 0-17.6 8-17.6 16.9V93h-23.4V21.6z"/>
    <path class="st0" d="M344.7 19.5c22.2 0 37.7 16.4 37.7 37.8 0 21.5-15.5 37.7-37.7 37.7-22.2 0-37.6-16.2-37.6-37.7 0-21.4 15.4-37.8 37.6-37.8m0 57.7c10.9 0 14.3-10.7 14.3-19.8 0-9.1-3.4-20-14.3-20s-14.2 10.9-14.2 20 3.3 19.8 14.2 19.8"/>
    <path class="st0" d="M98.4 19.7c-9.6 0-16.6 4-22.3 11.6-3.9-8.7-11.8-11.6-20.8-11.6-8.7 0-16.2 4.7-20.5 11.8h-.3v-9.8H11.9v47c0 12.6 9.5 20.1 23.4 21.7v-32c0-14.6 3.6-19.4 12-19.4 6.3 0 8.8 5.2 8.8 13.6v40.6h23.4v-35c0-11.6 1-19.3 11-19.3 6.1 0 9.8 4.5 9.8 12.2v42h23.4V50.5c-.1-13.6-2.6-30.8-25.3-30.8"/>
    <path class="st0" d="M55.9 132.7v-24.1c-32.9-.5-51.1-10-54.6-32-5.5 20.5 4.8 55.2 54.6 56.1"/>
    <path class="st1" d="M125 116.3h6.6v6.6H125z"/>
    <path class="st1" d="M140.9 102.8c5.4.1 8.6 3.7 9 10.2l1.7-.3-.3-11.5h-26l-.3 11.5 1.7.3c.5-6.5 3.6-10.1 9-10.2v24.1c0 4.4-.8 5.1-5.5 5.1v1.8h16V132c-4.7 0-5.5-.8-5.5-5.1v-24.1z"/>
    <path class="st1" d="M145.1 116.3h6.6v6.6h-6.6z"/>
    <path class="st1" d="M164.8 116.3h6.6v6.6h-6.6z"/>
    <path class="st1" d="M184.6 116.3h6.6v6.6h-6.6z"/>
    <path class="st1" d="M209.4 133.9l8.3-28.5v22.4c0 2.4-.1 3.3-.7 3.9-.4.4-1.4.7-2.5.7h-.4v1.5h11.8v-1.5h-.6c-1.1 0-2.1-.3-2.5-.7-.6-.6-.7-1.5-.7-3.9v-19.2c0-2.5.1-3.3.7-3.9.5-.4 1.4-.7 2.5-.7h.6v-1.5h-9.1l-6.9 23.1-6.7-23.1H194v1.5h.8c2.5 0 3 .6 3 3.7v18.2c0 2.9-.1 4.1-.6 5-.5.9-1.5 1.5-2.5 1.5h-.7v1.5h9.7v-1.5h-.6c-1.2 0-2.2-.5-2.8-1.5-.6-.9-.7-1.8-.7-5v-20.6l8.3 28.5h1.5z"/>
    <path class="st1" d="M235.8 113.1c1.7 0 3.2 1 4 2.8.8 1.6 1.1 3.9 1.1 7.2 0 6.7-1.7 10-5 10s-4.9-3.3-4.9-10.1c0-3.2.3-5.4 1.1-7.1.7-1.7 2.2-2.8 3.7-2.8m.2-1.6c-5.8 0-9.7 4.5-9.7 11.5 0 6.8 3.8 11.4 9.5 11.4s9.6-4.6 9.6-11.5c0-6.7-3.8-11.4-9.4-11.4"/>
    <path class="st1" d="M258.2 113.4c3 0 4.6 3.2 4.6 9.4 0 6.5-1.6 9.9-4.7 9.9-3.4 0-5.2-3.4-5.2-9.8 0-3.1.4-5.3 1.4-7 .9-1.5 2.4-2.5 3.9-2.5m-4.9-11.3l-6.7.3v1.5h.3c2 0 2.4.7 2.4 3.8v21.5c0 2.7-.1 3.5-.5 4.7h1.6c1.2-1.9 1.5-2.2 1.9-2.2.2 0 .5.1.8.4 2.3 1.9 3.3 2.3 5.4 2.3 5.1 0 8.8-4.9 8.8-11.7 0-6.5-3.4-10.9-8.5-10.9-2.6 0-4.6 1.2-5.6 3.5v-13.2z"/>
    <path class="st1" d="M273.7 102.2c-1.5 0-2.6 1.1-2.6 2.6 0 1.4 1.2 2.6 2.6 2.6 1.5 0 2.6-1.1 2.6-2.6 0-1.4-1.1-2.6-2.6-2.6m2.3 9.7l-6.9.3v1.5h.5c2 0 2.4.7 2.4 3.8v11.2c0 3.1-.4 3.8-2.4 3.8h-.8v1.5h10.3v-1.5h-.8c-2 0-2.4-.7-2.4-3.8v-16.8z"/>
    <path class="st1" d="M287.9 102.1l-6.9.3v1.5h.5c2 0 2.4.7 2.4 3.8v20.9c0 3.2-.4 3.8-2.4 3.8h-.8v1.5H291v-1.5h-.8c-2 0-2.4-.7-2.4-3.8v-26.5z"/>
    <path class="st1" d="M297 121.3c0-4.9 1.7-8.1 4.3-8.1 2.6 0 4.2 3 4.1 8.1H297zm12.8 1.6c-.2-7-3.6-11.4-8.8-11.4-4.9 0-8.5 4.8-8.5 11.4 0 7.1 3.5 11.6 9 11.6 3.5 0 6-1.8 8-5.9l-1.4-.8c-1.6 3.5-3.3 4.9-5.8 4.9-3.7 0-5.3-2.9-5.4-9.8h12.9z"/>
    <path class="st1" d="M315.5 116.3h6.6v6.6h-6.6z"/>
    <path class="st1" d="M103 128.4l5.1-12.6c.1-.2.2-.4.2-.6s.1-.3.1-.5c0-.4-.2-.7-.5-.8-.3-.2-.8-.3-1.3-.3l-1.1-.1v-1.2c.7 0 1.4.1 2.1.1h4.2c.7 0 1.4-.1 2.1-.1v1.2l-1.2.1c-.5 0-1.1.4-1.6 1.2-.5.8-1.2 2.1-2 4l-8.7 20.3c-.7 1.6-1.5 2.8-2.4 3.8-.9 1-2.3 1.5-4.1 1.5-.4 0-.8-.1-1.2-.2-.4-.1-.7-.3-1-.4l1-3.2h.6c.3.3.6.5 1 .7.4.2.8.3 1.1.3h.1c1.2-.1 2.2-.8 3-2.2.7-1.4 1.3-2.5 1.7-3.5l1-2.6-7.2-17.5c-.3-.8-.7-1.4-1-1.6-.3-.3-.8-.4-1.2-.5l-.8-.1v-1.2c.8 0 1.7.1 2.5.1h5c.8 0 1.7-.1 2.5-.1v1.2l-1.6.1c-.4 0-.7.1-1 .3-.3.1-.4.4-.4.9 0 .2 0 .4.1.7.1.3.2.6.3 1l4.6 11.8z"/>
    <path class="st1" d="M81.9 113.4c3 0 4.6 3.2 4.6 9.4 0 6.5-1.6 9.9-4.7 9.9-3.4 0-5.2-3.4-5.2-9.8 0-3.1.4-5.3 1.4-7 .9-1.5 2.4-2.5 3.9-2.5M77 102.1l-6.7.3v1.5h.3c2 0 2.4.7 2.4 3.8v21.5c0 2.7-.1 3.5-.5 4.7h1.6c1.2-1.9 1.5-2.2 1.9-2.2.2 0 4.1 2.7 6.2 2.7 5.1 0 8.8-4.9 8.8-11.7 0-6.5-3.4-10.9-8.5-10.9-2.6 0-4.6 1.2-5.6 3.5v-13.2z"/>
    <path class="st0" d="M372.8 21.2h5.2v.5h-2.3v6h-.6v-6h-2.3z"/>
    <path class="st0" d="M378.8 21.2h.9l2.2 5.7 2.3-5.7h.9v6.5h-.6v-5.6h-.1l-2.2 5.6h-.6l-2.2-5.6v5.6h-.6z"/>
</svg>
