<?xml version="1.0" encoding="UTF-8"?><!DOCTYPE svg PUBLIC "-//W3C//DTD SVG 1.1//EN" "http://www.w3.org/Graphics/SVG/1.1/DTD/svg11.dtd"><svg xmlns="http://www.w3.org/2000/svg"><defs>
        <style>
            .cls-1{fill:none;stroke:#000;stroke-linejoin:round;stroke-width:2px}
        </style>
    </defs><symbol id="icon-activation" viewBox="0 0 549.6 768">
    <path d="M403.2 464v244.1c0 23.2-18 42-40.4 42H58.4c-22.4 0-40.4-18.8-40.4-42V59.9c0-23.2 18-42 40.4-42h304.4c22.4 0 40.4 18.8 40.4 42V169h18V59.9c0-33.1-26-59.9-58.4-59.9H58.4C26 0 0 26.8 0 59.9v648.2C0 741.2 26 768 58.4 768h304.4c32.3 0 58.4-26.8 58.4-59.9V464h-18z"/>
    <path d="M8.1 616h404.1v17.9H8.1z"/>
    <path d="M8.1 93.9h404.1v17.9H8.1z"/>
    <path d="M229.8 77.8h-38.4c-12.5 0-21.5-8-21.5-19.7s8.9-19.7 21.5-19.7h38.4c12.5 0 21.5 8 21.5 19.7s-9 19.7-21.5 19.7zm-38.4-21.5c-1.8 0-3.6.9-3.6 1.8s1.8 1.8 3.6 1.8h38.4c1.8 0 3.6-.9 3.6-1.8s-1.8-1.8-3.6-1.8h-38.4z"/>
    <path d="M417.6 185.1c-4.5 0-9.9 0-14.4.9-39.5 4.5-72.7 24.1-95.2 55.4-22.4 30.4-29.6 68.8-20.7 106.4 8.1 37.6 29.6 66.2 63.8 85.8v-18.8c0-1.8 0-1.8-2.7-3.6-35.9-27.7-52.1-65.3-46.7-110 7.2-55.4 56.6-98.3 114-98.3h6.3c60.2 2.7 106.9 51 109.6 110 1.8 48.3-27.8 94.8-72.7 111.8h-.9c-1.8.9-4.5 1.8-7.2 1.8s-5.4-.9-8.1-3.6c-3.6-3.6-3.6-8-3.6-10.7v-76c0-3.6.9-4.5 4.5-3.6h13.5c1.8 0 3.6 0 4.5-1.8.9-1.8-.9-2.7-1.8-4.5-12.6-12.5-26-25.9-38.6-38.4-2.7-2.7-5.4-3.6-8.1-.9-13.5 13.4-26.9 26.8-40.4 40.2-.9.9-1.8 2.7-.9 3.6.9 1.8 1.8 1.8 3.6 1.8H388c4.5 0 6.3.9 5.4 5.4v70.6c0 13.4-1.8 34 2.7 37.6 6.3 5.4 13.5 4.5 20.7 4.5 4.5 0 9 0 13.5-.9 70.9-8 119.4-63.5 119.4-134.1.8-70.7-60.3-130.6-132.1-130.6z"/>
    <path d="M191.4 59.9h38.4"/>
    <g>
        <path d="M219.1 730.4c-21.5 0-39-17.5-39-39s17.5-39 39-39 39 17.5 39 39-17.5 39-39 39zm0-62c-12.7 0-23 10.3-23 23s10.3 23 23 23 23-10.3 23-23-10.3-23-23-23z"/>
    </g>
    <g>
        <path d="M113.6 78.2c-11.1 0-20.1-9-20.1-20.1s9-20.1 20.1-20.1 20.1 9 20.1 20.1-9 20.1-20.1 20.1zm0-24.2c-2.2 0-4.1 1.8-4.1 4.1s1.8 4.1 4.1 4.1 4.1-1.8 4.1-4.1-1.8-4.1-4.1-4.1z"/>
    </g>
    <path d="M155.3 329.7h-43.7v-29.3h43.7v-43.9h29.2v43.9h43.7v29.3h-43.7v43.9h-29.2v-43.9z"/>
</symbol><symbol id="icon-close" viewBox="0 0 357 357">
    <path d="M357 35.7L321.3 0 178.5 142.8 35.7 0 0 35.7l142.8 142.8L0 321.3 35.7 357l142.8-142.8L321.3 357l35.7-35.7-142.8-142.8z"/>
</symbol><symbol id="icon-new-activation" viewBox="0 0 549.6 768">
    <path d="M403.2 464v244.1c0 23.2-18 42-40.4 42H58.4c-22.4 0-40.4-18.8-40.4-42V59.9c0-23.2 18-42 40.4-42h304.4c22.4 0 40.4 18.8 40.4 42V169h18V59.9c0-33.1-26-59.9-58.4-59.9H58.4C26 0 0 26.8 0 59.9v648.2C0 741.2 26 768 58.4 768h304.4c32.3 0 58.4-26.8 58.4-59.9V464h-18z"/>
    <path d="M8.1 616h404.1v17.9H8.1z"/>
    <path d="M8.1 93.9h404.1v17.9H8.1z"/>
    <path d="M229.8 77.8h-38.4c-12.5 0-21.5-8-21.5-19.7s8.9-19.7 21.5-19.7h38.4c12.5 0 21.5 8 21.5 19.7s-9 19.7-21.5 19.7zm-38.4-21.5c-1.8 0-3.6.9-3.6 1.8s1.8 1.8 3.6 1.8h38.4c1.8 0 3.6-.9 3.6-1.8s-1.8-1.8-3.6-1.8h-38.4z"/>
    <g>
        <path d="M417.6 185.1c-4.5 0-9.9 0-14.4.9-39.5 4.5-72.7 24.1-95.2 55.4-22.4 30.4-29.6 68.8-20.7 106.4 8.1 37.6 29.6 66.2 63.8 85.8v-18.8c0-1.8 0-1.8-2.7-3.6-35.9-27.7-52.1-65.3-46.7-110 7.2-55.4 56.6-98.3 114-98.3h6.3c60.2 2.7 106.9 51 109.6 110 1.8 48.3-27.8 94.8-72.7 111.8h-.9c-1.8.9-4.5 1.8-7.2 1.8s-5.4-.9-8.1-3.6c-3.6-3.6-3.6-8-3.6-10.7v-76c0-3.6.9-4.5 4.5-3.6h13.5c1.8 0 3.6 0 4.5-1.8.9-1.8-.9-2.7-1.8-4.5-12.6-12.5-26-25.9-38.6-38.4-2.7-2.7-5.4-3.6-8.1-.9-13.5 13.4-26.9 26.8-40.4 40.2-.9.9-1.8 2.7-.9 3.6.9 1.8 1.8 1.8 3.6 1.8H388c4.5 0 6.3.9 5.4 5.4v70.6c0 13.4-1.8 34 2.7 37.6 6.3 5.4 13.5 4.5 20.7 4.5 4.5 0 9 0 13.5-.9 70.9-8 119.4-63.5 119.4-134.1.8-70.7-60.3-130.6-132.1-130.6z"/>
    </g>
    <path d="M191.4 59.9h38.4"/>
    <g>
        <path d="M219.1 730.4c-21.5 0-39-17.5-39-39s17.5-39 39-39 39 17.5 39 39-17.5 39-39 39zm0-62c-12.7 0-23 10.3-23 23s10.3 23 23 23 23-10.3 23-23-10.3-23-23-23z"/>
    </g>
    <g>
        <path d="M113.6 78.2c-11.1 0-20.1-9-20.1-20.1s9-20.1 20.1-20.1 20.1 9 20.1 20.1-9 20.1-20.1 20.1zm0-24.2c-2.2 0-4.1 1.8-4.1 4.1s1.8 4.1 4.1 4.1 4.1-1.8 4.1-4.1-1.8-4.1-4.1-4.1z"/>
    </g>
</symbol><symbol id="icon-port-in-activation" viewBox="0 0 549.6 768">
    <path d="M419.3 418h-17.9v299c-3.6 18.8-19.7 33.1-39.3 33.1h-304c-22.4 0-40.2-18.8-40.2-42V59.9c0-23.2 17.9-42 40.2-42h303.1c22.4 0 40.2 18.8 40.2 42V200H419.3V59.9c0-33.1-25.9-59.9-58.1-59.9H58.1C25.9 0 0 26.8 0 59.9v648.2C0 741.2 25.9 768 58.1 768h304c32.2 0 58.1-26.8 58.1-59.9l-.9-8.9V418z"/>
    <path d="M8.9 616h402.3v17.9H8.9V616z"/>
    <path d="M8.9 93.9h402.3v17.9H8.9V93.9z"/>
    <path d="M229.8 77.8h-38.4c-12.5 0-21.5-8-21.5-19.7s8.9-19.7 21.5-19.7h38.4c12.5 0 21.5 8 21.5 19.7s-9 19.7-21.5 19.7zm-38.5-21.5c-1.8 0-3.6.9-3.6 1.8s1.8 1.8 3.6 1.8h38.4c1.8 0 3.6-.9 3.6-1.8s-1.8-1.8-3.6-1.8h-38.4z"/>
    <path d="M320.1 400.5c8-7.2 16.1-4.5 23.2-4.5h110c26.8 0 42.9-16.1 43.8-40.2 0-24.1-16.1-40.2-42.9-40.2h-127c-34 0-55.4-19.7-55.4-50.1 0-29.5 21.5-49.2 55.4-49.2H439c6.3 0 12.5-.9 19.7 4.5-7.2 6.3-14.3 4.5-20.6 4.5h-110c-28.6 0-46.5 15.2-46.5 39.3-.9 25 17.9 41.1 46.5 41.1h125.2c32.2 0 55.4 21.5 55.4 50.1 0 26.8-24.1 49.2-54.5 49.2H338c-6.3.9-12.6 2.7-17.9-4.5z"/>
    <path d="M330.8 410.4c-4.5 0-9.8-1.8-14.3-7.2l-2.7-3.6 2.7-2.7c8-7.2 15.2-6.3 22.4-6.3h114.4c24.1 0 38.4-13.4 39.3-35.8 0-21.5-14.3-35.8-38.4-35.8h-127c-36.7 0-59.9-21.5-59.9-54.5 0-32.2 24.1-53.6 59.9-53.6h114.4c6.3 0 12.5 0 19.7 5.4l4.5 3.6-4.5 3.6c-7.2 6.3-14.3 6.3-20.6 5.4H328.1c-25.9 0-42 13.4-42 34.9 0 9.8 2.7 18.8 8.9 25 7.2 8 19.7 11.6 33.1 11.6h125.2c34 0 59.9 23.2 59.9 54.5 0 29.5-26.8 53.6-59 53.6H337.1c-1.8 1.9-4.5 1.9-6.3 1.9zm-3.6-9c1.8.9 4.5 0 8 0h118.9c27.7 0 50.1-19.7 50.1-44.7 0-26.8-21.5-45.6-51-45.6H328.1c-16.1 0-30.4-5.4-39.3-14.3-8-8.9-11.6-19.7-11.6-32.2 0-26.8 19.7-43.8 51-43.8h-.9c-31.3 0-51 17.9-51 44.7 0 27.7 19.7 45.6 51 45.6h127c28.6 0 47.4 17.9 47.4 44.7-.9 26.8-19.7 44.7-48.3 44.7H338c-3.6-.9-7.2-.9-10.8.9zm110.9-180.6h8.9-8.9z"/>
    <path d="M219 730.4c-21.5 0-39-17.5-39-39s17.5-39 39-39 39 17.5 39 39-17.4 39-39 39zm0-62c-12.7 0-23 10.3-23 23s10.3 23 23 23 23-10.3 23-23-10.3-23-23-23z"/>
    <path d="M267.3 439.2c-21.5 0-39-17.5-39-39s17.5-39 39-39 39 17.5 39 39-17.5 39-39 39zm0-62c-12.7 0-23 10.3-23 23s10.3 23 23 23 23-10.3 23-23-10.3-23-23-23z"/>
    <g>
        <path d="M510.6 259.2c-21.5 0-39-17.5-39-39s17.5-39 39-39 39 17.5 39 39-17.5 39-39 39zm0-62c-12.7 0-23 10.3-23 23s10.3 23 23 23 23-10.3 23-23-10.4-23-23-23z"/>
    </g>
    <g>
        <path d="M113.5 78.2c-11.1 0-20.1-9-20.1-20.1s9-20.1 20.1-20.1 20.1 9 20.1 20.1-9 20.1-20.1 20.1zm0-24.2c-2.2 0-4.1 1.8-4.1 4.1s1.8 4.1 4.1 4.1 4.1-1.8 4.1-4.1-1.8-4.1-4.1-4.1z"/>
    </g>
</symbol><symbol id="icon-user-plus" viewBox="0 0 32 32">
    <circle cx="16" cy="8" r="7"/>
    <path d="M23.55 18A11 11 0 0 0 5 26v5h13"/>
    <path d="M24 21v10"/>
    <path d="M29 26H19"/>
</symbol><symbol id="icon-user" viewBox="0 0 32 32">
    
    <title/>
    <g data-name="41-User" id="_41-User">
        <circle class="cls-1" cx="16" cy="8" r="7"/>
        <path class="cls-1" d="M27 26a11 11 0 0 0-22 0v5h22z"/>
    </g>
</symbol></svg>