<?xml version="1.0" encoding="UTF-8"?><!DOCTYPE svg PUBLIC "-//W3C//DTD SVG 1.1//EN" "http://www.w3.org/Graphics/SVG/1.1/DTD/svg11.dtd"><svg xmlns="http://www.w3.org/2000/svg"><defs>
        <style>
            .cls-1{fill:none;stroke:#000;stroke-linejoin:round;stroke-width:2px}
        </style>
    </defs><symbol id="icon-activation" viewBox="0 0 677.6 768">
    <path d="M531.1 464v244.1c0 23.2-18 42-40.4 42H186.3c-22.4 0-40.4-18.8-40.4-42V59.9c0-23.2 18-42 40.4-42h304.4c22.4 0 40.4 18.8 40.4 42V169h18V59.9c0-33.1-26-59.9-58.4-59.9H186.3c-32.4 0-58.4 26.8-58.4 59.9v648.2c0 33.1 26 59.9 58.4 59.9h304.4c32.3 0 58.4-26.8 58.4-59.9V464h-18z"/>
    <path d="M136 616h404.1v17.9H136z"/>
    <path d="M136 93.9h404.1v17.9H136z"/>
    <path d="M357.7 77.8h-38.4c-12.5 0-21.5-8-21.5-19.7s8.9-19.7 21.5-19.7h38.4c12.5 0 21.5 8 21.5 19.7s-9 19.7-21.5 19.7zm-38.4-21.5c-1.8 0-3.6.9-3.6 1.8s1.8 1.8 3.6 1.8h38.4c1.8 0 3.6-.9 3.6-1.8s-1.8-1.8-3.6-1.8h-38.4z"/>
    <path d="M545.5 185.1c-4.5 0-9.9 0-14.4.9-39.5 4.5-72.7 24.1-95.2 55.4-22.4 30.4-29.6 68.8-20.7 106.4 8.1 37.6 29.6 66.2 63.8 85.8v-18.8c0-1.8 0-1.8-2.7-3.6-35.9-27.7-52.1-65.3-46.7-110 7.2-55.4 56.6-98.3 114-98.3h6.3c60.2 2.7 106.9 51 109.6 110 1.8 48.3-27.8 94.8-72.7 111.8h-.9c-1.8.9-4.5 1.8-7.2 1.8s-5.4-.9-8.1-3.6c-3.6-3.6-3.6-8-3.6-10.7v-76c0-3.6.9-4.5 4.5-3.6H585c1.8 0 3.6 0 4.5-1.8.9-1.8-.9-2.7-1.8-4.5-12.6-12.5-26-25.9-38.6-38.4-2.7-2.7-5.4-3.6-8.1-.9-13.5 13.4-26.9 26.8-40.4 40.2-.9.9-1.8 2.7-.9 3.6.9 1.8 1.8 1.8 3.6 1.8h12.6c4.5 0 6.3.9 5.4 5.4v70.6c0 13.4-1.8 34 2.7 37.6 6.3 5.4 13.5 4.5 20.7 4.5 4.5 0 9 0 13.5-.9 70.9-8 119.4-63.5 119.4-134.1.8-70.7-60.3-130.6-132.1-130.6z"/>
    <path d="M319.3 59.9h38.4"/>
    <g>
        <path d="M347 730.4c-21.5 0-39-17.5-39-39s17.5-39 39-39 39 17.5 39 39-17.5 39-39 39zm0-62c-12.7 0-23 10.3-23 23s10.3 23 23 23 23-10.3 23-23-10.3-23-23-23z"/>
    </g>
    <g>
        <path d="M241.5 78.2c-11.1 0-20.1-9-20.1-20.1s9-20.1 20.1-20.1c11.1 0 20.1 9 20.1 20.1s-9 20.1-20.1 20.1zm0-24.2c-2.2 0-4.1 1.8-4.1 4.1s1.8 4.1 4.1 4.1 4.1-1.8 4.1-4.1-1.8-4.1-4.1-4.1z"/>
    </g>
    <path d="M283.2 329.7h-43.7v-29.3h43.7v-43.9h29.2v43.9h43.7v29.3h-43.7v43.9h-29.2v-43.9z"/>
</symbol><symbol id="icon-close" viewBox="0 0 357 357">
    <path d="M357 35.7L321.3 0 178.5 142.8 35.7 0 0 35.7l142.8 142.8L0 321.3 35.7 357l142.8-142.8L321.3 357l35.7-35.7-142.8-142.8z"/>
</symbol><symbol id="icon-new-activation" viewBox="0 0 677.6 768">
    <path d="M531.1 464v244.1c0 23.2-18 42-40.4 42H186.3c-22.4 0-40.4-18.8-40.4-42V59.9c0-23.2 18-42 40.4-42h304.4c22.4 0 40.4 18.8 40.4 42V169h18V59.9c0-33.1-26-59.9-58.4-59.9H186.3c-32.4 0-58.4 26.8-58.4 59.9v648.2c0 33.1 26 59.9 58.4 59.9h304.4c32.3 0 58.4-26.8 58.4-59.9V464h-18z"/>
    <path d="M136 616h404.1v17.9H136z"/>
    <path d="M136 93.9h404.1v17.9H136z"/>
    <path d="M357.7 77.8h-38.4c-12.5 0-21.5-8-21.5-19.7s8.9-19.7 21.5-19.7h38.4c12.5 0 21.5 8 21.5 19.7s-9 19.7-21.5 19.7zm-38.4-21.5c-1.8 0-3.6.9-3.6 1.8s1.8 1.8 3.6 1.8h38.4c1.8 0 3.6-.9 3.6-1.8s-1.8-1.8-3.6-1.8h-38.4z"/>
    <path d="M545.5 185.1c-4.5 0-9.9 0-14.4.9-39.5 4.5-72.7 24.1-95.2 55.4-22.4 30.4-29.6 68.8-20.7 106.4 8.1 37.6 29.6 66.2 63.8 85.8v-18.8c0-1.8 0-1.8-2.7-3.6-35.9-27.7-52.1-65.3-46.7-110 7.2-55.4 56.6-98.3 114-98.3h6.3c60.2 2.7 106.9 51 109.6 110 1.8 48.3-27.8 94.8-72.7 111.8h-.9c-1.8.9-4.5 1.8-7.2 1.8s-5.4-.9-8.1-3.6c-3.6-3.6-3.6-8-3.6-10.7v-76c0-3.6.9-4.5 4.5-3.6H585c1.8 0 3.6 0 4.5-1.8.9-1.8-.9-2.7-1.8-4.5-12.6-12.5-26-25.9-38.6-38.4-2.7-2.7-5.4-3.6-8.1-.9-13.5 13.4-26.9 26.8-40.4 40.2-.9.9-1.8 2.7-.9 3.6.9 1.8 1.8 1.8 3.6 1.8h12.6c4.5 0 6.3.9 5.4 5.4v70.6c0 13.4-1.8 34 2.7 37.6 6.3 5.4 13.5 4.5 20.7 4.5 4.5 0 9 0 13.5-.9 70.9-8 119.4-63.5 119.4-134.1.8-70.7-60.3-130.6-132.1-130.6z"/>
    <path d="M319.3 59.9h38.4"/>
    <g>
        <path d="M347 730.4c-21.5 0-39-17.5-39-39s17.5-39 39-39 39 17.5 39 39-17.5 39-39 39zm0-62c-12.7 0-23 10.3-23 23s10.3 23 23 23 23-10.3 23-23-10.3-23-23-23z"/>
    </g>
    <g>
        <path d="M241.5 78.2c-11.1 0-20.1-9-20.1-20.1s9-20.1 20.1-20.1c11.1 0 20.1 9 20.1 20.1s-9 20.1-20.1 20.1zm0-24.2c-2.2 0-4.1 1.8-4.1 4.1s1.8 4.1 4.1 4.1 4.1-1.8 4.1-4.1-1.8-4.1-4.1-4.1z"/>
    </g>
</symbol><symbol id="icon-open-portal" viewBox="0 0 46.9 85.9">
    <g>
        <path d="M22.4 21h2.3c.1 0 .2 0 .2.1 1 .1 1.9.2 2.9.4 2.6.6 4.9 1.7 7 3.2 1.7 1.2 3.1 2.7 4.2 4.4 1.6 2.4 2.7 5 3.1 7.8.1.6.2 1.2.2 1.8V41c-.1.4-.1.9-.2 1.3-.3 2.7-1.3 5.3-2.7 7.6-1.6 2.5-3.7 4.6-6.2 6.1-2.1 1.3-4.4 2.1-6.8 2.5-.6.1-1.2.2-1.8.2h-2.3c-.1 0-.2 0-.3-.1-2-.2-3.9-.6-5.7-1.4-3.4-1.3-6.2-3.5-8.3-6.5-1.7-2.4-2.7-5-3.1-7.9-.1-.6-.2-1.2-.2-1.8v-2.3c0-.1 0-.2.1-.3.1-.9.2-1.9.4-2.8.6-2.6 1.7-4.9 3.2-7 1.4-1.9 3.1-3.5 5.2-4.8 2.2-1.4 4.6-2.3 7.1-2.6.5-.1 1.1-.1 1.7-.2zm-10.2 6.1c-.6.5-1.2 1-1.7 1.5-.4.3-.8.6-1.1 1.1-1.3 1.8-2.3 3.8-2.7 6-.2 1-.3 2.1-.5 3.2 0 .2 0 .3.2.4.3.2.6.4.9.7 1.3 1.2 2.3 2.6 3 4.1.1.2 0 .3 0 .5-.3.6-.5 1.1-.7 1.7-.2.6-.1 1.3.4 1.7.3.3.6.5.9.7.2.1.3.3.4.5 0 .2.1.4.2.5.8.8 1.6 1.4 2.6 1.8.3.1.5.4.6.7.4 1.4 1.1 2.5 2.2 3.4.6.5 1.3.7 2 .9l1.2.3v-.4c-.1 0-.2-.1-.4-.1.3 0 .6-.1.9-.1-.1-.1-.1-.2-.1-.3l.9-.3c.2-.1.3-.2.6-.1.2.1.4-.2.4-.4 0-.3-.1-.6-.1-.9 0-.1.1-.2.1-.3.1-.1.2-.1.3-.2.5-.3.9-.6 1.4-.9.1-.1.3-.4.2-.5-.2-.4 0-.6.3-.9.1-.1.2-.3.4-.4.5-.5.6-1 .6-1.7-.3 0-.6-.1-.9-.1-1.4-.2-2.7-.7-3.8-1.6-.1-.1-.2-.1-.3-.1-.3.1-.6.3-.9.4-.1 0-.2.1-.3 0-.1 0-.2-.2-.3-.2.4-.5.4-.5 0-1.1 0-.1-.1-.1-.1-.2-.2-.4-.5-.6-1-.6-.2 0-.3-.1-.5-.1-.3-.1-.5-.2-.6-.6-.1-.2-.2-.5-.3-.6-.7-.7-1.5-1-2.4-1.4H14c-.3.1-.6 0-.8-.2-.2-.1-.4-.2-.6-.4-.1-.1-.2-.1-.4 0s-.4.2-.6.2c-.6-.1-1.2-.4-1.6-.8-.4-.4-.7-.8-1.1-1.1-.1-.1-.2-.3-.2-.5 0-.4 0-.8.3-1.2.1-.1.1-.3.2-.4-.4-.1-.6.2-.8.4s-.7.1-.7-.1c-.1-.7-.5-1.5.2-2.2.2-.2.3-.5.5-.8 0-.1.1-.2.2-.2.4 0 .8 0 1.1.2.4.1.7.5 1.1 0 .1.2.1.4.2.5.1.1.3 0 .6 0v2.1h.1c.2-.2.4-.3.6-.5.2-.1.2-.2.1-.4-.2-.3-.1-.6 0-.8.1-.1.1-.2.1-.3.1 0 .2 0 .3-.1.4-.1.8-.6 1.3-.4.4.1.6-.1.8-.4.2-.2.3-.4.5-.6.1-.1.3-.2.4-.3.7-.3 1.5-.5 2.3-.8.7-.2 1.5-.4 2.2-.6-.2-.1-.3-.3-.4-.4.1-.2.2-.3.4-.5-.5.1-.9.2-1.4.2v-.1c.3-.1.5-.3.8-.3.6-.1 1.2-.1 1.8-.2.2 0 .5-.1.7-.3.2-.1.5-.4.7-.5.1-.1.2-.1.3-.1l-.1-.1c-.2.1-.5.1-.8.2.2-.4.2-.7 0-1V30c0-.1.1-.2.2-.3-.2 0-.4-.2-.6-.1-.5.1-.7-.1-.9-.5 0-.1-.1-.1-.1-.2-.1-.1-.2-.2-.4-.3 0 .2-.1.4-.1.6-.5-.3-.8.1-1 .4l-.5.5c-.4.4-.9.8-1.3 1.3 0 0-.1 0-.1-.1-.3-.6-.5-1.3-.5-2.1 0-.1.1-.1.1-.2.9-.5 1.9-1 2.8-1.5.2-.1.5-.2.7 0 .3.2.5-.2.6-.3s0-.3 0-.4c-.3.1-.5.2-.8.3 0-.4-.1-.8-.1-1.3-.1.1-.1.2-.1.2-.2.3-.3.6-.5.8s-.7.3-.9.2c-.4-.2-.8-.4-1.2-.1-.2-.2-.5-.2-.4-.6-.5.2-.9.4-1.3.6-.2.1-.3.1-.4-.1.5-.2 1-.4 1.5-.5-.2-.1-.2-.1-.3-.2 0-.1 0-.2.1-.4H15.5l.3-.6c-.4 0-.6 0-.9.1v-.4s-.1 0-.1-.1c-.8.6-1.7 1.2-2.6 1.9-.3.4-.2.4 0 .5zM32 39.5c.5.2.6.6.6 1.1 0 .2.1.4.1.6 0 .4.1.8-.1 1.2 0 .1 0 .2.1.3.4.4.9.8 1.4 1.2.4.3.8.6 1.1.9.3.2.3.2.6-.1.1-.1.3-.3.4-.3l2.1-.6c.3-.1.6-.2.9-.2.4 0 .6.1.6.5v1.8h.1c1.4-4.1 1.4-8.2-.2-12.2-.3 0-.4.1-.4.4 0 .1-.1.3-.1.5-.2-.1-.3-.1-.5-.2-.3-.2-.6-.4-.9-.7-.2-.2-.3-.2-.6-.1-.7.3-1.5.6-2.2.9h-.1v.3c-.4 0-.5.3-.7.6-.4 1.1-.9 2.1-1.6 3.1 0 .2-.3.5-.6 1zm7-7.3c-1-2.3-2.5-4.3-4.5-5.8.2.7.7 1.3.8 2-.2-.1-.3-.1-.5-.1 0 .1-.1.2-.1.3-.2-.2-.5-.4-.7-.6h-.1c.1.2.3.4.4.6-.1.3-.1.6-.2.9-.3-.1-.6-.2-.8-.3-.3-.2-.5-.5-.8-.8-.3.2-.3.3-.1.5.1.1.3.3.4.3.2.1.4.3.3.6s.2.6.4.7c.5.3.6.8 1 1.3-.3 0-.6.1-.8.1-.2 0-.5 0-.8.1l.6 1.2c0 .1.1.2.1.4 0 .4.2.5.5.4.2-.1.4-.1.7-.2.3-.1.6-.2.9-.4l-.3-.6c0-.1-.1-.2-.1-.3.1-.4.2-.8.4-1.2.1-.3.5-.4.7-.2l.3.3c.3.3.6.6 1.1.3-.2-.2-.3-.4-.5-.6l-.1-.1c-.2-.1-.3-.1-.5-.2v-.1h.3c.1.1.3.1.4.2.6.5 1.1.9 1.6 1.3zm-15.3-6.9c.7.3.9.5 1 1.4v.1c.3.3.1.5 0 .8-.3.6 0 1.3.6 1.5.3.1.4 0 .4-.2 0-.1.1-.2.2-.2.7-.3 1.2-.7 1.8-1.2.2-.2.4-.5.6-.7-.2-.1-.3-.2-.5-.3v-.1h.6c-.1-.2-.2-.4-.4-.6h.4c-.4-.5-.7-1-1.1-1.6-.2.1-.4.3-.6-.1.1 0 .1-.1.2-.1-.4-.3-.9-.1-1.1.3-.2 0-.4 0-.6-.1-.2 0-.4-.1-.6-.2 0 .1-.1.2-.1.4-.1 0-.2-.1-.2-.1-.1.3-.4.6-.6 1zm9.6 1.9c.2.2.3.3.5.4.1-.2.1-.3.2-.5h.1V27l-.2-.2-.1.1c-.3-.4-.5-.7-.8-1.1 0 0 0-.1.1-.1.1.1.2.1.3.2.1.1.2.2.3.4.3.3.5.3.8-.1-.8-.5-1.5-1-2.3-1.5-.4-.3-.6-.2-.8.1.2.3.5.5.6.8.2.3.4.6.5 1 .1.2.1.4.2.6.2.1.3.3.5.4h.2v-.2c0-.1-.1-.1-.1-.2zm-11.8 1.6c.7-.9.7-.9 1.4-.5.1-.1.2-.2.2-.3s.1-.2 0-.3c0-.1-.1-.3-.2-.4-.1-.3-.3-.6-.6-.8-.2-.1-.5-.2-.7-.3v-.1c-.1.1-.2.1-.4.2V26c-.1.1-.3.1-.4.2-.2.1-.2.3 0 .4h.2c.2.1.5.2.7.3-.1.1-.2.3-.2.4 0 .1-.1.1-.2.2-.2.3-.4.6-.8.6.2 0 .4 0 .5.1.4.3.4.5.5.6zm.4-3.2c.3.1.6-.1.9-.2.1 0 .2-.1.2-.1.2.1.3-.1.5-.2.1-.1.1-.1.2-.1.3-.1.4-.4.5-.6 0-.1-.1-.2-.2-.2-.4 0-.7.1-1.1.2 0 .1.1.2.1.3.2.2.1.3-.1.4-.4.1-.7.3-1 .5zm-4.5.7c.3.5 1.4.3 1.8-.3-.2-.1-.4-.3-.7-.2-.1 0-.2-.2-.3-.3-.1-.1-.1-.1-.1-.2H18c-.1.2-.2.3-.2.5 0 .3-.1.5-.4.5zm-3.8 15.1l.3-.3v-.2c-.1-.4-.4-.6-.8-.7-.1 0-.4.1-.5.2-.1.1 0 .4.1.4.5 0 .7.3.9.6zm-1.5-1.5c-.1-.1-.2-.3-.3-.4-.3-.3-.4-.4-.8-.1.3.6.9.9 1.1.5zm7.1-14.7l-.2.2c.2.2.4.4.7.3.1 0 .1-.1.2-.2h-.3c0-.2 0-.3.1-.5-.3-.1-.6-.1-.9.2h.4zm10.9 2.3c-.4-.1-.8 0-1.2.2.3.3.4.4.9.2.1-.1.3-.1.3-.4zm2.4 2.9c.1-.2.2-.3.3-.5l-.3-.6c-.5.3-.5.4 0 1.1zm-21.6 9.1c0-.6-.3-.7-1-.5.3.1.7.3 1 .5zM22 32.7c-.3-.1-.6-.1-.9-.2v.1c.2.2.4.3.5.5.2-.1.3-.2.4-.4zm-1.8-7.3c.4 0 .5-.1.4-.5-.1.2-.2.4-.4.5zm.1-1c.5 0 .6 0 .6-.3-.2.1-.3.2-.6.3z"/>
        <path d="M15.8 33c-.7.3-1.1.9-1.9.8l.6-1.2c-.2.1-.4.1-.5.2-.3.3-.6.5-1 .8 0-.6.5-1 1-1.3-.2-.2-.4-.3-.6-.4.4-.5.9-.6 1.4-.3.1 0 .1.1.1.2.2.5.4.9.9 1.2z"/>
        <path d="M34.2 29.8c.1.4-.1.4-.3.5.1-.2.2-.3.3-.5z"/>
    </g>
    <path d="M39.1 37.5c1.5-.9 2.7-1.9 3.8-3.1.9-.9 1.4-2 1.5-3.2.4-2.9-.7-4.9-3.2-5.9-1.7-.7-3.4-.9-5.1-.9h-1.8c.1.1.1.1.1.2 1.1.8 2.2 1.7 3.3 2.5.1.1.3.2.5.2.6.2 1.2.3 1.8.5 1.5.6 2 1.7 1.6 3.2-.3 1.3-1.1 2.3-1.9 3.2-.1.1-.2.2-.3.4 0 .9-.1 1.8-.3 2.9z"/>
    <path d="M38.3 36.9c1.5-.9 2.7-1.9 3.8-3.1.9-.9 1.4-2 1.5-3.2.4-2.9-.7-4.9-3.2-5.9-1.7-.7-3.4-.9-5.1-.9h-1.8c.1.1.1.1.1.2 1.1.8 2.2 1.7 3.3 2.5.1.1.3.2.5.2.6.2 1.2.3 1.8.5 1.5.6 2 1.7 1.6 3.2-.2 1.3-1 2.3-1.8 3.3-.1.1-.2.2-.3.4-.1.8-.2 1.8-.4 2.8z"/>
    <path d="M38.2 37.2l.1-1c.1-.8.2-1.5.3-2.2 0-.2.1-.3.3-.4 1-1.1 1.6-2.1 1.9-3.1.4-1.5-.1-2.6-1.5-3.1l-1.2-.3c-.2-.1-.5-.1-.7-.2-.2-.1-.4-.1-.5-.2-.9-.7-1.9-1.4-2.8-2.1l-.5-.4-.1-.1s0-.1-.1-.1l-.2-.2h2.1c2.1 0 3.7.3 5.2.9 2.6 1 3.7 3.1 3.3 6.1-.2 1.3-.7 2.3-1.6 3.3-1.1 1.2-2.4 2.2-3.8 3.1h-.2zM33.8 24l.5.3c.9.7 1.9 1.4 2.8 2.1.1.1.3.2.5.2.2.1.4.1.7.2l1.2.3c1.6.6 2.1 1.7 1.7 3.4-.3 1.1-.9 2.1-2 3.2-.1.1-.2.2-.2.3-.1.7-.2 1.4-.3 2.2l-.2.5c1.3-.8 2.5-1.8 3.6-2.9.8-.9 1.3-1.9 1.5-3.1.4-2.8-.7-4.8-3.1-5.8-1.4-.6-3-.8-5.1-.9h-1.6z"/>
    <path d="M5 43c-1.8 1.9-3.2 3.9-3.4 6.5-.2 2.2.5 3.4 2.5 4.2 1.4.6 2.8.7 4.3.7 2 0 3.9-.4 5.9-.9 3.7-1 7.1-2.5 10.1-5 .2-.2.4-.2.6 0 .3.3.6.5 1 .8.6-2 1.1-4 1.7-6.1-1.9 1.1-3.7 2.2-5.5 3.3l.6.6c.3.2.3.4 0 .7l-.2.2c-2.3 1.8-4.9 2.9-7.6 3.7-2.5.7-5 1.2-7.6.9-.8-.1-1.8-.2-2.3-1s-.8-1.7-.9-2.5c-.2-1.4.5-2.6 1.2-3.8.1-.2.2-.4.2-.5-.4-.5-.5-1.1-.6-1.8z"/>
    <path d="M4.7 41.8c-1.8 1.9-3.2 3.9-3.4 6.5-.2 2.2.5 3.4 2.5 4.2 1.4.6 2.8.7 4.3.7 2 0 3.9-.4 5.9-.9 3.7-1 7.1-2.5 10.1-5 .2-.2.4-.2.6 0 .3.3.6.5 1 .8.6-2 1.1-4 1.7-6.1-1.9 1.1-3.7 2.2-5.5 3.3l.6.6c.3.2.3.4 0 .7l-.2.2c-2.3 1.8-4.9 2.9-7.6 3.7-2.5.7-5 1.2-7.6.9-.8-.1-1.8-.2-2.3-1-.5-.8-.8-1.7-.9-2.5-.2-1.4.5-2.6 1.2-3.8.1-.2.2-.4.2-.5-.4-.5-.5-1.1-.6-1.8z"/>
    <path d="M7.8 53.4c-1.2 0-2.6-.1-4-.7-2-.9-2.8-2.2-2.6-4.4.2-2.9 1.9-4.9 3.4-6.6l.2-.2v.2c0 .2.1.4.1.6.1.5.2.9.2 1.3 0 .3-.1.5-.2.6-.7 1.2-1.4 2.3-1.2 3.7.1.8.5 1.7.9 2.5.4.7 1.3.8 2.1.9.5.1 1.1.1 1.6.1 1.8 0 3.6-.3 6-1 3-.9 5.5-2.1 7.6-3.7 0 0 .1 0 .1-.1 0 0 .1-.1.2-.1l.2-.2c0-.1-.1-.2-.2-.3s-.3-.2-.4-.4l-.2-.2-.1-.1 6-3.6-.1.3c-.6 2.1-1.1 4.1-1.7 6.1l-.1.2-.1-.1-.3-.3c-.2-.2-.5-.4-.7-.6-.2-.2-.2-.2-.4 0-2.6 2.2-5.8 3.8-10.1 5-2.1.6-4 .9-5.9.9-.2.2-.3.2-.3.2zM4.6 42.1c-1.5 1.6-3 3.6-3.2 6.3-.2 2.1.5 3.2 2.4 4.1 1.3.6 2.7.7 3.9.7H8c1.9 0 3.8-.3 5.8-.9 4.3-1.2 7.5-2.8 10-5 .3-.3.6-.1.7 0l.6.6c.1 0 .1.1.2.1.5-1.9 1-3.7 1.6-5.6l-5.1 3.1.1.1c.1.1.3.2.4.3.2.2.3.3.3.5s-.1.3-.3.4l-.1.1s-.1 0-.1.1c-2.1 1.6-4.6 2.8-7.7 3.7-2.4.7-4.3 1-6 1-.6 0-1.1 0-1.7-.1-.9-.1-1.8-.2-2.3-1s-.8-1.7-.9-2.6c-.2-1.4.4-2.6 1.2-3.9.1-.2.2-.3.1-.5 0-.4-.1-.9-.2-1.3v-.2z"/>
    <g>
        <path d="M40.5 0h-34C2.9 0 0 3 0 6.7v72.5c0 3.7 2.9 6.7 6.5 6.7h33.9c3.6 0 6.5-3 6.5-6.7V6.7C47 3 44.1 0 40.5 0zm-34 2h33.9c2.5 0 4.5 2.1 4.5 4.7V11H2V6.7C2 4.1 4 2 6.5 2zM45 13.1v56.4H2V13.1h43zM40.5 84h-34C4 84 2 81.9 2 79.3v-7.8h43v7.8c0 2.6-2 4.7-4.5 4.7z"/>
        <path d="M24.5 81.9c-2.5 0-4.6-2.1-4.6-4.6s2.1-4.6 4.6-4.6 4.6 2.1 4.6 4.6-2.1 4.6-4.6 4.6zm0-7.1c-1.4 0-2.6 1.2-2.6 2.6s1.2 2.6 2.6 2.6 2.6-1.2 2.6-2.6-1.2-2.6-2.6-2.6z"/>
        <path d="M25.7 8.7h-4.3c-1.3 0-2.4-1-2.4-2.2s1.1-2.2 2.4-2.2h4.3c1.3 0 2.4 1 2.4 2.2S27 8.7 25.7 8.7zm-4.4-2.4c-.3 0-.4.2-.4.2s.1.2.4.2h4.3c.3 0 .4-.2.4-.2s-.1-.2-.4-.2h-4.3z"/>
        <path d="M12.7 8.7c-1.2 0-2.2-1-2.2-2.2s1-2.2 2.2-2.2 2.2 1 2.2 2.2-1 2.2-2.2 2.2zm0-2.4c-.1 0-.2.1-.2.2 0 .2.4.2.4 0 0-.1-.1-.2-.2-.2z"/>
    </g>
</symbol><symbol id="icon-port-in-activation" viewBox="0 0 677.6 768">
    <path d="M547 418.1h-17.9v299c-3.6 18.8-19.7 33.1-39.3 33.1h-304c-22.4 0-40.2-18.8-40.2-42V60c0-23.2 17.9-42 40.2-42h303.1c22.4 0 40.2 18.8 40.2 42v140.1H547V60C547 26.9 521.1.1 488.9.1H185.8c-32.2 0-58.1 26.8-58.1 59.9v648.2c0 33.1 25.9 59.9 58.1 59.9h304c32.2 0 58.1-26.8 58.1-59.9l-.9-8.9V418.1z"/>
    <path d="M136.6 616.1h402.3V634H136.6v-17.9z"/>
    <path d="M136.6 94h402.3v17.9H136.6V94z"/>
    <path d="M357.5 77.9h-38.4c-12.5 0-21.5-8-21.5-19.7s8.9-19.7 21.5-19.7h38.4c12.5 0 21.5 8 21.5 19.7s-9 19.7-21.5 19.7zM319 56.4c-1.8 0-3.6.9-3.6 1.8s1.8 1.8 3.6 1.8h38.4c1.8 0 3.6-.9 3.6-1.8s-1.8-1.8-3.6-1.8H319z"/>
    <path d="M447.8 400.6c8-7.2 16.1-4.5 23.2-4.5h110c26.8 0 42.9-16.1 43.8-40.2 0-24.1-16.1-40.2-42.9-40.2h-127c-34 0-55.4-19.7-55.4-50.1 0-29.5 21.5-49.2 55.4-49.2h111.8c6.3 0 12.5-.9 19.7 4.5-7.2 6.3-14.3 4.5-20.6 4.5h-110c-28.6 0-46.5 15.2-46.5 39.3-.9 25 17.9 41.1 46.5 41.1H581c32.2 0 55.4 21.5 55.4 50.1 0 26.8-24.1 49.2-54.5 49.2H465.7c-6.3.9-12.6 2.7-17.9-4.5z"/>
    <path d="M458.5 410.5c-4.5 0-9.8-1.8-14.3-7.2l-2.7-3.6 2.7-2.7c8-7.2 15.2-6.3 22.4-6.3H581c24.1 0 38.4-13.4 39.3-35.8 0-21.5-14.3-35.8-38.4-35.8h-127c-36.7 0-59.9-21.5-59.9-54.5 0-32.2 24.1-53.6 59.9-53.6h114.4c6.3 0 12.5 0 19.7 5.4l4.5 3.6-4.5 3.6c-7.2 6.3-14.3 6.3-20.6 5.4H455.8c-25.9 0-42 13.4-42 34.9 0 9.8 2.7 18.8 8.9 25 7.2 8 19.7 11.6 33.1 11.6H581c34 0 59.9 23.2 59.9 54.5 0 29.5-26.8 53.6-59 53.6H464.8c-1.8 1.9-4.5 1.9-6.3 1.9zm-3.6-9c1.8.9 4.5 0 8 0h118.9c27.7 0 50.1-19.7 50.1-44.7 0-26.8-21.5-45.6-51-45.6H455.8c-16.1 0-30.4-5.4-39.3-14.3-8-8.9-11.6-19.7-11.6-32.2 0-26.8 19.7-43.8 51-43.8h-.9c-31.3 0-51 17.9-51 44.7 0 27.7 19.7 45.6 51 45.6h127c28.6 0 47.4 17.9 47.4 44.7-.9 26.8-19.7 44.7-48.3 44.7H465.7c-3.6-.9-7.2-.9-10.8.9zm110.9-180.6h8.9-8.9z"/>
    <path d="M346.7 730.5c-21.5 0-39-17.5-39-39s17.5-39 39-39 39 17.5 39 39-17.4 39-39 39zm0-62c-12.7 0-23 10.3-23 23s10.3 23 23 23 23-10.3 23-23-10.3-23-23-23z"/>
    <path d="M395 439.3c-21.5 0-39-17.5-39-39s17.5-39 39-39 39 17.5 39 39-17.5 39-39 39zm0-62c-12.7 0-23 10.3-23 23s10.3 23 23 23 23-10.3 23-23-10.3-23-23-23z"/>
    <path d="M638.3 259.3c-21.5 0-39-17.5-39-39s17.5-39 39-39 39 17.5 39 39-17.5 39-39 39zm0-62c-12.7 0-23 10.3-23 23s10.3 23 23 23 23-10.3 23-23-10.4-23-23-23z"/>
    <g>
        <path d="M241.2 78.3c-11.1 0-20.1-9-20.1-20.1s9-20.1 20.1-20.1c11.1 0 20.1 9 20.1 20.1s-9 20.1-20.1 20.1zm0-24.2c-2.2 0-4.1 1.8-4.1 4.1s1.8 4.1 4.1 4.1 4.1-1.8 4.1-4.1-1.8-4.1-4.1-4.1z"/>
    </g>
</symbol><symbol id="icon-port-in-add-a-line" viewBox="0 0 677.6 768">
    <path d="M350.9 732.2c-22.7 0-41.9-18.8-41.9-41.1s19.1-41.1 41.9-41.1c22.7 0 41.9 18.8 41.9 41.1s-19.1 41.1-41.9 41.1zm0-64.3c-12.7 0-23.7 10.7-23.7 23.2s10.9 23.2 23.7 23.2 23.7-10.7 23.7-23.2-10.9-23.2-23.7-23.2z"/>
    <path d="M361.9 76.9h-39.1C311 76.9 301 68 301 57.2s10-19.7 21.8-19.7h39.1c11.8 0 21.8 8.9 21.8 19.7s-10 19.7-21.8 19.7zm-39.2-20.6c-2.7 0-3.6 1.8-3.6 1.8s.9 1.8 3.6 1.8h39.1c2.7 0 3.6-1.8 3.6-1.8s-.9-1.8-3.6-1.8h-39.1z"/>
    <path d="M243.6 76.9c-10.9 0-20-8.9-20-19.7s9.1-19.7 20-19.7 20 8.9 20 19.7-9.1 19.7-20 19.7zm0-20.6c-.9 0-1.8.9-1.8 1.8 0 1.8 3.6 1.8 3.6 0s-.9-1.8-1.8-1.8z"/>
    <path d="M537.5 440.8v179.7H146.2V116.2h391.3v64.4h18.2V59.9c0-33.1-26.4-59.9-59.1-59.9H187.1C154.4 0 128 26.8 128 59.9v648.2c0 33.1 26.4 59.9 59.1 59.9h308.5c32.8 0 59.1-26.8 59.1-59.9V440.8h-17.2zM146.2 59.9c0-23.2 18.2-42 40.9-42h308.5c22.7 0 40.9 18.8 40.9 42v38.4H146.2V59.9zm391.3 648.2c0 23.2-18.2 42-40.9 42H187.1c-22.7 0-40.9-18.8-40.9-42v-69.7h391.3v69.7z"/>
    <path d="M633.9 320.1c-11.8-11.6-28.2-17.9-46.4-17.9H461c-14.6 0-26.4-4.5-33.7-11.6-6.4-6.3-9.1-15.2-9.1-25 .9-21.5 16.4-34.9 42.8-34.9H576.5c5.5 0 13.6.9 20.9-6.3l3.6-3.6-4.5-3.6c-6.4-4.5-11.8-5.4-17.3-5.4H460.1c-36.4 0-61 21.5-61 53.6 0 32.2 24.6 53.6 61 54.5h129.2c24.6 0 40 13.4 39.1 35.8 0 21.5-15.5 35.8-40 35.8H466.5c-4.5 0-10.9.9-16.4 5.4l-3.6 2.7 2.7 3.6c5.5 6.3 10.9 7.2 14.6 7.2h124.6c33.7 0 59.1-24.1 60.1-53.6.9-13.5-4.6-26.9-14.6-36.7z"/>
    <path d="M666.7 197.6c-6.4-6.3-14.6-9.8-21.8-9.8-17.3 0-33.7 16.1-33.7 33.1-.9 16.1 15.5 33.1 32.8 34h.9c16.4 0 32.8-16.1 32.8-33.1-1-9-4.6-18-11-24.2zm-22.8 52.7zm.9-11.6c-12.7.9-19.1-7.2-19.1-17.9 0-9.8 7.3-17 18.2-17 10.9 0 16.4 7.2 18.2 16.1-.9 11.7-6.3 17.9-17.3 18.8z"/>
    <path d="M421.9 381.8c-6.4-6.3-14.6-9.8-21.8-9.8-17.3 0-33.7 16.1-33.7 33.1-.9 16.1 15.5 33.1 32.8 34h.9c16.4 0 32.8-16.1 32.8-33.1-.1-8.1-3.7-17.1-11-24.2zm-21.8 53.6zm0-12.5c-12.7.9-19.1-7.2-19.1-17.9 0-9.8 7.3-17 18.2-17s16.4 7.2 18.2 16.1c0 11.6-6.4 18.8-17.3 18.8z"/>
    <path d="M259 325.4h-43.7v-28.6H259v-42.9h29.1v42.9h43.7v28.6h-43.7v42.9H259v-42.9z"/>
</symbol><symbol id="icon-reactivation" viewBox="0 0 677.6 768">
    <path d="M464.2 431.8c22.4 16.1 49.3 24.1 78 24.1 36.8 0 70.8-14.3 95.9-39.3 26-25.9 39.4-59.9 39.4-95.7 0-36.7-14.3-70.6-39.4-95.7-26-25.9-60.1-39.3-95.9-39.3-26 0-51.1 7.2-72.6 20.6-11.7 7.2-22.4 17-31.4 26.8l-2.7 2.7-27.8-15.2.9 97.5 84.3-50.1-35.9-19.7 3.6-4.5c20.6-22.4 49.3-34 79.8-34 61 0 110.3 49.2 110.3 110s-49.3 110-110.3 110c-44.8 0-83.4-25.9-101.3-66.2l-23.3 8.9c11.7 24.3 27.8 44.8 48.4 59.1z"/>
    <path d="M346.8 733.1c-22.4 0-41.2-18.8-41.2-41.1s18.8-41.1 41.2-41.1c22.4 0 41.2 18.8 41.2 41.1s-18.8 41.1-41.2 41.1zm0-64.3c-12.6 0-23.3 10.7-23.3 23.2s10.8 23.2 23.3 23.2 23.3-10.7 23.3-23.2-10.8-23.2-23.3-23.2z"/>
    <path d="M357.5 77.8H319c-11.7 0-21.5-8.9-21.5-19.7s9.9-19.7 21.5-19.7h38.6c11.7 0 21.5 8.9 21.5 19.7s-9.9 19.7-21.6 19.7zM319 57.2c-2.7 0-3.6 1.8-3.6 1.8s.9 1.8 3.6 1.8h38.6c2.7 0 3.6-1.8 3.6-1.8s-.9-1.8-3.6-1.8H319z"/>
    <path d="M241.9 77.8c-10.8 0-19.7-8.9-19.7-19.7s9-19.7 19.7-19.7c10.8 0 19.7 8.9 19.7 19.7s-9 19.7-19.7 19.7zm0-20.6c-.9 0-1.8.9-1.8 1.8 0 1.8 3.6 1.8 3.6 0s-.9-1.8-1.8-1.8z"/>
    <path d="M543.1 474.7c-4.5 0-8.1 0-11.7-.9v147.5H145.9V117.1h385.5v42c3.6 0 8.1-.9 11.7-.9h6.3V59.9c0-33.1-26-59.9-58.3-59.9H186.3C154 0 128 26.8 128 59.9v648.2c0 33.1 26 59.9 58.3 59.9h303.9c32.3 0 58.3-26.8 58.3-59.9V473.9c-1.8.8-3.6.8-5.4.8zM145 60.8c0-23.2 17.9-42 40.3-42h303.9c22.4 0 40.3 18.8 40.3 42v38.4H144.1V60.8h.9zM530.6 709c0 23.2-17.9 42-40.3 42h-304c-22.4 0-40.3-18.8-40.3-42v-69.7h385.5l-.9 69.7z"/>
</symbol><symbol id="icon-sales-quote" viewBox="0 0 73.9 73.8">
    <g>
        <path d="M.1 26.1c.2-1.2.3-2.3.6-3.5 2.1-11 10.8-19.8 21.8-22 1.2-.2 2.4-.4 3.7-.6h4c.2 0 .4.1.6.1 1.4.2 2.8.4 4.1.7 11.7 2.9 20 12.6 21.2 24.7.7 6.7-.9 12.8-4.7 18.4-6.6 9.6-17.8 14-29.2 11.7C11.5 53.4 2.6 44.4.6 33.6c-.2-1.1-.4-2.3-.6-3.4.1-1.4.1-2.7.1-4.1zm51.3 1.6C51.3 15.1 40.8 4.8 28 4.9S4.9 15.5 4.9 28.3C5 41 15.5 51.4 28.2 51.4c13-.1 23.3-10.6 23.2-23.7z"/>
        <path d="M73.8 68c-2-1.9-3.9-3.9-5.9-5.8-4.8-4.7-9.5-9.5-14.2-14.2-.1-.1-.3-.3-.4-.3-1.9 1.9-3.7 3.8-5.7 5.7 1.1 1 2.2 2.2 3.4 3.3l16.7 16.7.4.4h.1c.3-.3.6-.7 1-1 1.5-1.5 3.1-3 4.7-4.6-.1-.1-.1-.2-.1-.2z"/>
        <path d="M33.2 14.7H16.3v1.5H32v5.9h5.8V41h-20V15.6h-1.5v26.8h23V20.9l-6.1-6.2zm.3 2.4l3.5 3.5h-3.5v-3.5z"/>
        <path d="M21.4 26.2h13v1.5h-13z"/>
        <path d="M21.4 30.7h13v1.5h-13z"/>
        <path d="M21.4 35.2h13v1.5h-13z"/>
    </g>
</symbol><symbol id="icon-upgrade" viewBox="0 0 677.6 768">
    <path d="M543.1 446.1c26 0 51.1-7.2 72.6-20.6 11.7-7.2 22.4-17 31.4-26.8l2.7-2.7 27.8 15.2-1.8-97.5-84.3 50.1 35.9 19.7-3.6 4.5c-20.6 22.4-49.3 34-79.8 34-41.2 0-78.9-23.2-98.6-59.9h-27.8c7.2 17 17 32.2 29.6 45.6 26 24.1 60.1 38.4 95.9 38.4z"/>
    <path d="M541.3 210.1c42.1 0 80.7 24.1 99.5 62.6h27.8c-7.2-17.9-17-34-31.4-48.3-26-25.9-60.1-39.3-95.9-39.3-26 0-51.1 7.2-72.6 20.6-11.7 7.2-22.4 17-31.4 26.8l-2.7 2.7-27.8-15.2 1.8 97.5 84.3-50.1-35.9-19.7 3.6-4.5c21.5-20.6 50.2-33.1 80.7-33.1z"/>
    <path d="M347.7 733.1c-22.4 0-41.2-18.8-41.2-41.1s18.8-41.1 41.2-41.1c22.4 0 41.2 18.8 41.2 41.1s-18.8 41.1-41.2 41.1zm0-64.3c-12.6 0-23.3 10.7-23.3 23.2s10.8 23.2 23.3 23.2c12.6 0 23.3-10.7 23.3-23.2s-10.8-23.2-23.3-23.2z"/>
    <path d="M358.4 77.8h-38.6c-11.7 0-21.5-8.9-21.5-19.7s9.9-19.7 21.5-19.7h38.6c11.7 0 21.5 8.9 21.5 19.7s-9.8 19.7-21.5 19.7zm-38.5-20.6c-2.7 0-3.6 1.8-3.6 1.8s.9 1.8 3.6 1.8h38.6c2.7 0 3.6-1.8 3.6-1.8s-.9-1.8-3.6-1.8h-38.6z"/>
    <path d="M241.9 77.8c-10.8 0-19.7-8.9-19.7-19.7s9-19.7 19.7-19.7c10.8 0 19.7 8.9 19.7 19.7s-9 19.7-19.7 19.7zm0-20.6c-.9 0-1.8.9-1.8 1.8 0 1.8 3.6 1.8 3.6 0s-.9-1.8-1.8-1.8z"/>
    <path d="M542.2 474.7c-3.6 0-7.2 0-10.8-.9v147.5H145.9V117.1h385.5v42c3.6 0 7.2-.9 10.8-.9h7.2V59.9c0-33.1-26-59.9-58.3-59.9H186.3C154 0 128 26.8 128 59.9v648.2c0 33.1 26 59.9 58.3 59.9h303.9c32.3 0 58.3-26.8 58.3-59.9V473.9c-1.8.8-3.6.8-6.3.8zM145.9 60.8c0-23.2 17.9-42 40.3-42h303.9c22.4 0 40.3 18.8 40.3 42v38.4H145.9V60.8zM531.5 709c0 23.2-17.9 42-40.3 42H186.3c-22.4 0-40.3-18.8-40.3-42v-69.7h385.5V709z"/>
</symbol><symbol id="icon-user-plus" viewBox="0 0 32 32">
    <circle cx="16" cy="8" r="7"/>
    <path d="M23.55 18A11 11 0 0 0 5 26v5h13"/>
    <path d="M24 21v10"/>
    <path d="M29 26H19"/>
</symbol><symbol id="icon-user" viewBox="0 0 32 32">
    
    <title/>
    <g data-name="41-User" id="_41-User">
        <circle class="cls-1" cx="16" cy="8" r="7"/>
        <path class="cls-1" d="M27 26a11 11 0 0 0-22 0v5h22z"/>
    </g>
</symbol></svg>