<?xml version="1.0" encoding="utf-8"?>
<!-- Generator: Adobe Illustrator 21.1.0, SVG Export Plug-In . SVG Version: 6.00 Build 0)  -->
<svg version="1.1" id="svg8267" xmlns:svg="http://www.w3.org/2000/svg"
	 xmlns="http://www.w3.org/2000/svg" xmlns:xlink="http://www.w3.org/1999/xlink" x="0px" y="0px" viewBox="0 0 1024 167"
	 enable-background="new 0 0 1024 167" xml:space="preserve">
<path id="path4252" fill="#353192" d="M558.5,74c-16.4,0-18.5,15.9-18.5,27.9c0,12,2.2,28.1,18.5,28.1c16.3,0,18.5-16.1,18.5-28.1
	C577,89.9,574.8,74,558.5,74z M558.5,161.4c-42.5,0-61.7-28.1-61.7-59.5s19.2-59.3,61.7-59.3c42.5,0,61.7,27.9,61.7,59.3
	S601,161.4,558.5,161.4 M410.2,45.5h41.4v18.1h0.4c7-13.5,16.1-20.9,31.8-20.9c4.4,0,8.5,0.7,12.6,1.7v38.1c-4.4-1.5-8.3-2.8-17-2.8
	c-17,0-26.2,10-26.2,34.2v44.7h-43.1V45.5 M379.2,45.5h23.1v26.6h-23.1v39.4c0,10.5,2.4,15,13.3,15c3.3,0,6.5-0.2,9.8-0.7v32.7
	c-8.7,0-18.5,1.3-27.7,1.3c-18.3,0-38.6-2.8-38.6-33.8v-54h-19.2V45.5h19.2V11h43.1L379.2,45.5 M280.8,89.3c0-10.5-7.8-19-19-19
	c-12.9,0-20.3,6.8-22.2,19H280.8z M239.4,111.7c1.1,12.9,8.5,22,22,22c7,0,14.6-2.6,18.1-8.1h40.3c-8.7,24.4-32.5,35.7-58.2,35.7
	c-36.2,0-63.4-21.4-63.4-59.1c0-32.9,24-59.7,59.7-59.7c44.9,0,64.3,25.1,64.3,69.1H239.4 M4.7,45.5h41.6v15h0.4
	c8.7-13.1,21.4-17.9,37-17.9c12.2,0,25.3,6.3,30.5,17.6c1.7-1.3,10.5-17.6,38.6-17.6c29,0,38.8,20,38.8,38.3v77.6h-43.1V97.3
	c0-10.7-1.1-20.3-14.2-20.3c-10.9,0-14.6,8.5-14.6,20.3v61.2H76.6V97.3c0-10.7-1.1-20.3-14.2-20.3c-10.9,0-14.6,8.5-14.6,20.3v61.2
	H4.7L4.7,45.5"/>
<path id="path4264" fill="#F15C22" d="M981.6,51.3c-1.1-25.7-20.4-38.5-48.1-38.5c-17,0-41.2,7.1-41.2,32
	c0,24.2,25.7,28.2,51.1,33.4c25.6,5.3,51.3,11.8,51.3,41.6c0,31.1-29.9,42.3-52.8,42.3c-35.1,0-63.7-14.5-63.3-53.2h9.3
	c-1.9,32.8,24.4,45.2,54,45.2c18.1,0,43.5-8.2,43.5-34.3c0-25.4-25.7-29.9-51.3-35.1C908.7,79.5,883,73.4,883,44.8
	c0-28.8,26.7-39.9,50.5-39.9c31.3,0,55.9,13.5,57.4,46.5L981.6,51.3 M861.7,53.2c-4-25.2-26.1-40.4-51.1-40.4
	c-39.3,0-62.2,32.2-62.2,70.6c0,38.5,22.9,70.6,62.2,70.6c29.2,0,51.9-26.1,53.6-54h9.2c-3.4,35.7-29.9,62-62.9,62
	c-45,0-71.5-34.7-71.5-78.6c0-44,26.5-78.6,71.5-78.6c53.2,0,60.1,46.3,60.4,48.4L861.7,53.2 M638,83.7h52.8
	c27.1,0,36.4-17.9,36.4-33.4c0-11.1-5.1-33.8-35.1-33.8H638L638,83.7L638,83.7z M628.8,8.4h63.9c17,0,43.7,6.1,43.7,42
	c0,26.3-17.2,41.2-47.1,41.2H638v66.9h-9.3V8.4"/>
<path id="path4268" fill="#353192" d="M1010.9,153c1.2,0,2.3-0.1,2.3-1.6c0-1.2-1.1-1.4-2.1-1.4h-2v3L1010.9,153L1010.9,153z
	 M1009.1,158.3h-1.4v-9.6h3.6c2.3,0,3.4,0.8,3.4,2.7c0,1.7-1.1,2.5-2.5,2.6l2.7,4.2h-1.6l-2.5-4.2h-1.7L1009.1,158.3L1009.1,158.3z
	 M1010.9,160.5c3.8,0,6.7-2.9,6.7-6.9c0-3.9-3-6.9-6.7-6.9c-3.8,0-6.8,3-6.8,6.9C1004.2,157.5,1007.1,160.5,1010.9,160.5z
	 M1002.5,153.5c0-4.8,3.8-8.3,8.4-8.3c4.5,0,8.4,3.5,8.4,8.3c0,4.8-3.9,8.3-8.4,8.3C1006.4,161.8,1002.5,158.3,1002.5,153.5"/>
</svg>
